if (_typeface_js && _typeface_js.loadFace) _typeface_js.loadFace({"glyphs":{"¦":{"x_min":106,"x_max":227,"ha":312,"o":"m 227 525 q 208 514 220 520 q 183 502 196 508 q 156 492 169 497 l 135 485 l 106 505 l 106 1094 q 151 1116 125 1106 q 197 1132 177 1127 l 227 1112 l 227 525 m 227 -235 q 208 -246 220 -240 q 183 -257 196 -252 q 156 -267 169 -263 q 135 -275 143 -272 l 106 -254 l 106 326 q 127 338 115 332 q 151 349 139 344 q 175 359 163 354 q 197 366 187 363 l 227 345 l 227 -235 "},"Ő":{"x_min":37,"x_max":796.484375,"ha":847,"o":"m 629 427 q 612 561 629 496 q 566 677 596 627 q 494 757 536 727 q 401 787 452 787 q 316 762 353 787 q 255 693 280 738 q 217 583 230 648 q 205 435 205 517 q 222 292 205 359 q 270 177 240 226 q 340 100 300 128 q 426 72 381 72 q 507 93 470 72 q 571 159 544 115 q 613 270 598 204 q 629 427 629 337 m 796 439 q 781 319 796 377 q 740 210 767 262 q 678 117 714 159 q 597 44 641 74 q 502 -3 552 13 q 397 -20 451 -20 q 246 15 314 -20 q 133 112 179 51 q 61 251 86 172 q 37 415 37 329 q 66 590 37 507 q 148 737 96 674 q 275 837 201 800 q 436 875 348 875 q 591 838 524 875 q 704 740 658 801 q 773 600 749 679 q 796 439 796 521 m 316 922 q 288 933 305 925 q 258 950 272 942 l 361 1237 q 385 1234 369 1235 q 419 1229 401 1232 q 452 1225 436 1227 q 474 1220 468 1222 l 494 1182 l 316 922 m 529 922 q 501 933 518 925 q 472 950 484 942 l 573 1237 q 598 1234 581 1235 q 631 1229 614 1232 q 665 1225 649 1227 q 688 1220 680 1222 l 707 1182 l 529 922 "},"Ž":{"x_min":34.703125,"x_max":690,"ha":742,"o":"m 690 239 q 690 184 690 217 q 690 117 690 151 q 690 51 690 83 q 690 0 690 19 l 58 0 l 34 35 l 481 766 l 222 766 q 198 754 211 766 q 171 721 184 742 q 147 671 158 700 q 128 607 135 642 l 70 620 l 95 865 q 128 858 113 861 q 157 855 143 855 q 186 855 171 855 l 665 855 l 687 820 l 243 88 l 546 88 q 571 98 560 88 q 593 129 583 108 q 614 181 603 150 q 637 254 624 212 l 690 239 m 430 939 l 339 939 l 158 1162 q 177 1186 168 1175 q 198 1204 187 1198 l 386 1076 l 571 1204 q 591 1186 582 1198 q 609 1162 601 1175 l 430 939 "},"Á":{"x_min":0,"x_max":841,"ha":855,"o":"m 496 373 l 386 688 l 286 373 l 496 373 m 260 292 l 196 95 q 212 65 189 74 q 290 49 235 55 l 290 0 l 0 0 l 0 49 q 69 66 45 57 q 100 95 93 75 l 331 818 q 366 843 347 832 q 404 864 384 855 q 443 880 423 873 q 479 893 462 887 l 758 95 q 767 78 761 86 q 781 65 772 71 q 805 56 791 60 q 841 49 819 52 l 841 0 l 511 0 l 511 51 q 581 61 562 51 q 592 95 599 72 l 524 292 l 260 292 m 332 922 q 308 941 321 927 q 287 967 296 954 l 530 1198 q 564 1178 545 1190 q 599 1157 582 1167 q 629 1137 616 1146 q 648 1122 643 1127 l 654 1087 l 332 922 "},"ĥ":{"x_min":32,"x_max":777,"ha":792,"o":"m 441 0 l 441 49 q 508 71 488 62 q 528 90 528 81 l 528 388 q 523 456 528 429 q 510 498 519 482 q 487 520 501 514 q 452 527 472 527 q 373 502 414 527 q 279 432 332 478 l 279 90 q 301 69 279 80 q 368 49 324 58 l 368 0 l 32 0 l 32 49 q 97 70 75 60 q 119 90 119 79 l 119 859 q 117 904 119 888 q 107 928 115 920 q 81 941 99 937 q 32 949 63 945 l 32 996 q 98 1007 68 1002 q 153 1019 128 1013 q 201 1033 178 1025 q 249 1050 225 1040 l 279 1023 l 279 529 q 422 622 355 593 q 541 651 489 651 q 596 641 569 651 q 643 611 622 632 q 675 557 663 591 q 688 476 688 524 l 688 90 q 692 81 688 86 q 706 72 696 77 q 733 61 716 67 q 777 49 750 56 l 777 0 l 441 0 m 628 1132 q 610 1108 620 1119 q 589 1091 600 1097 l 403 1202 l 217 1091 q 196 1108 205 1097 q 177 1132 186 1119 l 363 1352 l 444 1352 l 628 1132 "},"Î":{"x_min":-9.84375,"x_max":440.859375,"ha":446,"o":"m 42 0 l 42 49 q 110 70 87 58 q 133 90 133 81 l 133 762 q 111 782 133 770 q 42 804 89 795 l 42 854 l 391 854 l 391 804 q 322 783 345 795 q 299 762 299 771 l 299 90 q 321 70 299 82 q 391 49 343 58 l 391 0 l 42 0 m 440 962 q 423 938 432 949 q 402 921 413 927 l 215 1032 l 30 921 q 9 938 18 927 q -9 962 0 949 l 175 1182 l 256 1182 l 440 962 "},"e":{"x_min":43,"x_max":615,"ha":658,"o":"m 338 570 q 285 557 307 570 q 246 522 262 545 q 222 467 231 499 q 209 394 213 434 l 430 394 q 451 399 446 394 q 456 418 456 404 q 450 464 456 438 q 431 514 445 490 q 395 553 418 537 q 338 570 372 570 m 615 373 q 597 358 609 366 q 573 343 586 350 q 546 328 559 335 q 521 318 532 322 l 208 318 q 219 228 208 269 q 252 157 231 187 q 304 110 273 127 q 373 94 334 94 q 414 96 394 94 q 456 107 433 98 q 508 132 479 116 q 576 176 537 148 q 586 167 580 174 q 596 154 591 161 q 605 141 601 147 q 611 132 609 135 q 528 55 565 85 q 458 8 492 25 q 391 -13 425 -7 q 318 -20 358 -20 q 212 3 262 -20 q 124 68 161 26 q 64 169 86 110 q 43 299 43 228 q 77 464 43 392 q 179 587 111 536 q 218 612 197 600 q 263 632 240 623 q 312 645 287 640 q 363 651 337 651 q 475 628 428 651 q 554 566 523 605 q 600 478 585 528 q 615 373 615 428 "},"»":{"x_min":82.609375,"x_max":656,"ha":700,"o":"m 656 290 l 392 1 l 353 31 l 487 314 l 353 598 l 392 629 l 656 339 l 656 290 m 385 290 l 121 1 l 83 31 l 216 314 l 82 598 l 121 629 l 385 339 l 385 290 "},"Ĕ":{"x_min":29,"x_max":683.859375,"ha":715,"o":"m 683 205 q 677 144 681 176 q 670 83 674 112 q 662 32 666 54 q 656 0 659 10 l 29 0 l 29 49 q 97 69 74 58 q 120 90 120 81 l 120 762 q 98 783 120 770 q 29 804 76 795 l 29 854 l 614 854 l 640 832 q 637 788 640 814 q 630 734 634 761 q 622 681 626 706 q 613 644 617 657 l 562 644 q 548 740 562 707 q 510 773 535 773 l 286 773 l 286 498 l 550 498 l 572 474 q 559 452 567 464 q 543 427 551 439 q 527 404 535 415 q 511 388 518 394 q 489 405 501 398 q 463 417 478 412 q 428 423 448 421 q 379 426 407 426 l 286 426 l 286 124 q 290 106 286 114 q 309 92 295 98 q 351 84 324 87 q 421 81 377 81 l 487 81 q 539 88 517 81 q 577 112 561 95 q 607 156 594 129 q 635 223 621 183 l 683 205 m 592 1144 q 545 1050 572 1089 q 488 986 519 1011 q 424 949 458 961 q 357 938 391 938 q 287 949 321 938 q 222 986 252 961 q 166 1050 192 1011 q 120 1144 140 1089 q 130 1157 124 1150 q 144 1170 137 1164 q 158 1182 151 1177 q 170 1190 165 1187 q 209 1136 187 1158 q 257 1098 232 1113 q 307 1075 282 1082 q 355 1068 333 1068 q 404 1075 378 1068 q 455 1097 430 1082 q 502 1135 480 1112 q 542 1190 525 1158 q 554 1182 548 1187 q 568 1170 561 1177 q 582 1157 575 1164 q 592 1144 588 1150 "},"ò":{"x_min":43,"x_max":671,"ha":714,"o":"m 503 298 q 492 400 503 352 q 461 485 481 449 q 413 544 441 522 q 351 566 385 566 q 282 547 310 566 q 239 496 255 528 q 217 418 223 463 q 211 320 211 373 q 223 220 211 267 q 256 139 235 173 q 305 84 277 104 q 363 64 332 64 q 429 80 403 64 q 472 125 456 95 q 496 198 489 155 q 503 298 503 242 m 671 329 q 659 240 671 283 q 625 158 647 196 q 573 86 603 119 q 507 30 544 53 q 430 -6 471 6 q 344 -20 388 -20 q 220 4 276 -20 q 125 71 164 28 q 64 173 86 114 q 43 301 43 232 q 67 431 43 368 q 135 543 91 494 q 238 621 178 592 q 370 651 298 651 q 493 626 438 651 q 588 559 549 602 q 649 457 628 516 q 671 329 671 398 m 478 736 q 466 727 474 732 q 451 718 459 722 q 435 710 443 714 q 421 705 427 707 l 167 960 l 186 998 q 213 1004 193 1000 q 258 1013 234 1009 q 303 1021 282 1017 q 333 1025 325 1024 l 478 736 "},"^":{"x_min":66.453125,"x_max":602.796875,"ha":670,"o":"m 602 430 q 570 404 586 415 q 532 383 554 393 l 507 401 l 319 891 l 153 430 q 136 416 146 423 q 117 403 127 409 q 98 391 107 396 q 81 383 88 386 l 66 401 l 280 991 q 300 1008 288 999 q 323 1024 311 1016 q 347 1039 335 1032 q 368 1051 359 1046 l 602 430 "},"«":{"x_min":43,"x_max":617.0625,"ha":700,"o":"m 43 291 l 43 315 q 43 332 43 325 q 44 341 43 340 l 308 629 l 345 599 l 339 586 q 325 554 334 574 q 303 509 316 534 q 278 457 291 483 q 254 405 266 430 q 232 360 242 380 q 218 328 223 340 q 213 317 212 317 l 346 32 l 308 1 l 43 291 m 314 291 l 314 315 q 314 332 314 325 q 315 341 314 340 l 578 629 l 616 599 l 610 586 q 595 554 605 574 q 574 509 586 534 q 549 457 561 483 q 524 405 536 430 q 503 360 512 380 q 488 328 494 340 q 483 317 482 317 l 617 32 l 578 1 l 314 291 "},"í":{"x_min":42,"x_max":423.859375,"ha":409,"o":"m 42 0 l 42 49 q 108 70 87 59 q 129 90 129 81 l 129 439 q 129 495 129 474 q 121 528 129 516 q 95 545 113 540 q 42 554 77 551 l 42 602 q 150 622 99 610 q 246 651 201 634 l 289 651 l 289 90 q 309 70 289 82 q 378 49 329 59 l 378 0 l 42 0 m 169 705 q 155 709 163 705 q 138 717 146 713 q 122 726 129 722 q 111 734 115 731 l 251 1025 q 281 1021 259 1024 q 327 1014 303 1018 q 374 1005 352 1010 q 403 999 396 1001 l 423 962 l 169 705 "},"ˆ":{"x_min":12.625,"x_max":468.546875,"ha":487,"o":"m 468 750 q 450 724 460 737 q 430 705 441 710 l 242 856 l 57 705 q 34 724 46 710 q 12 750 21 737 l 198 1013 l 289 1013 l 468 750 "},"ū":{"x_min":22.90625,"x_max":760.6875,"ha":767,"o":"m 760 76 q 706 42 736 59 q 649 11 677 25 q 600 -11 621 -2 q 570 -20 578 -20 q 547 -15 558 -20 q 527 1 536 -11 q 510 35 517 13 q 499 92 502 57 q 424 33 457 55 q 364 0 391 11 q 314 -16 337 -12 q 270 -20 292 -20 q 209 -11 239 -20 q 155 20 179 -2 q 116 84 131 44 q 102 189 102 125 l 102 467 q 102 517 102 499 q 94 545 102 535 q 69 557 86 554 q 22 564 53 561 l 22 613 q 83 616 56 613 q 136 624 111 620 q 186 635 161 629 q 239 651 211 642 l 263 619 l 263 232 q 267 163 263 189 q 282 122 272 137 q 307 102 292 107 q 340 97 321 97 q 370 100 354 97 q 406 112 386 103 q 448 137 425 122 q 499 177 471 153 l 499 467 q 496 516 499 498 q 485 545 494 535 q 459 559 477 555 q 411 563 441 563 l 411 611 q 531 628 477 617 q 633 651 585 638 l 659 619 l 659 192 q 659 157 659 171 q 660 134 659 143 q 665 120 662 125 q 673 111 668 114 q 695 108 681 105 q 744 126 710 111 l 760 76 m 673 886 q 666 866 671 879 q 655 840 661 854 q 644 815 649 826 q 636 797 639 803 l 128 797 l 107 818 q 113 838 109 826 q 124 864 118 850 q 135 889 130 877 q 144 908 141 901 l 652 908 l 673 886 "},"µ":{"x_min":30.25,"x_max":770.328125,"ha":774,"o":"m 770 66 q 725 36 751 51 q 673 7 699 20 q 623 -12 647 -4 q 582 -21 599 -21 q 551 -10 565 -21 q 528 16 538 0 q 512 57 518 34 q 504 108 506 81 q 412 9 454 39 q 330 -21 371 -21 q 265 4 301 -21 q 196 72 229 29 l 196 58 q 205 -54 196 -3 q 231 -146 215 -105 q 267 -218 247 -187 q 307 -270 287 -249 q 273 -283 297 -273 q 223 -304 249 -292 q 172 -325 196 -315 q 141 -339 149 -334 l 110 -314 l 110 471 q 110 513 110 497 q 102 537 110 528 q 78 551 95 546 q 30 559 61 555 l 30 606 q 140 622 90 612 q 239 651 190 633 l 243 647 q 252 637 247 643 q 262 626 257 632 q 270 617 267 620 l 270 258 q 280 202 270 228 q 305 156 290 176 q 338 126 320 137 q 372 115 356 115 q 398 118 384 115 q 426 130 411 121 q 460 159 441 140 q 503 207 479 177 l 503 507 q 500 533 503 518 q 494 563 498 548 q 486 591 491 578 q 477 610 482 604 q 517 618 495 614 q 563 628 540 622 q 608 639 586 633 q 649 651 630 645 l 673 620 q 670 601 671 611 q 667 580 668 592 q 665 552 666 567 q 664 515 664 536 l 664 202 q 664 150 664 170 q 667 118 664 130 q 675 102 670 106 q 687 98 680 98 q 717 102 702 98 q 753 117 731 106 l 770 66 "},"č":{"x_min":43,"x_max":593.796875,"ha":620,"o":"m 593 129 q 513 49 550 79 q 444 4 477 20 q 380 -15 411 -11 q 319 -20 350 -20 q 215 2 265 -20 q 127 65 165 24 q 65 166 88 106 q 43 301 43 226 q 69 438 43 374 q 143 548 96 501 q 257 623 191 596 q 402 651 323 651 q 451 647 424 651 q 505 636 479 643 q 554 619 532 629 q 588 597 577 609 q 586 578 589 592 q 580 547 584 564 q 569 510 575 529 q 557 472 563 490 q 545 440 551 455 q 535 420 539 426 l 491 427 q 437 529 469 493 q 352 566 405 566 q 296 552 323 566 q 248 509 269 539 q 215 434 228 480 q 203 322 203 388 q 216 225 203 268 q 253 154 230 183 q 309 109 277 125 q 377 94 341 94 q 413 96 395 94 q 450 106 430 98 q 497 130 471 115 q 557 172 522 146 l 593 129 m 382 722 l 291 722 l 111 980 q 129 1007 119 993 q 150 1026 139 1021 l 337 878 l 522 1026 q 545 1007 533 1021 q 567 980 557 993 l 382 722 "},"’":{"x_min":48.328125,"x_max":302,"ha":353,"o":"m 302 844 q 289 769 302 807 q 254 695 276 730 q 203 630 232 660 q 142 578 174 599 l 98 612 q 138 687 122 645 q 154 773 154 729 q 129 835 154 811 q 58 859 104 859 l 48 910 q 65 923 52 915 q 97 939 78 931 q 136 955 115 947 q 176 969 157 963 q 211 979 196 975 q 235 981 227 982 q 285 922 269 955 q 302 844 302 889 "},"-":{"x_min":35.21875,"x_max":448.609375,"ha":484,"o":"m 448 375 q 442 356 446 367 q 433 334 438 345 q 425 313 429 323 q 418 298 420 303 l 56 298 l 35 319 q 40 337 37 327 q 49 358 44 348 q 58 379 53 369 q 65 396 62 389 l 426 396 l 448 375 "},"Q":{"x_min":37,"x_max":942.03125,"ha":847,"o":"m 629 427 q 612 561 629 496 q 566 677 596 627 q 494 757 536 727 q 401 787 452 787 q 316 762 353 787 q 255 693 280 738 q 217 583 230 648 q 205 435 205 517 q 222 292 205 359 q 270 177 240 226 q 340 100 300 128 q 426 72 381 72 q 507 93 470 72 q 571 159 544 115 q 613 270 598 204 q 629 427 629 337 m 942 -84 q 907 -139 926 -114 q 871 -182 889 -164 q 838 -211 853 -201 q 812 -222 822 -222 q 750 -211 781 -222 q 687 -183 719 -201 q 625 -144 656 -166 q 562 -99 593 -122 q 499 -55 530 -77 q 436 -16 467 -33 q 417 -19 426 -19 q 397 -19 407 -19 q 248 16 315 -19 q 135 112 182 52 q 62 250 88 172 q 37 415 37 329 q 66 591 37 507 q 148 737 96 674 q 275 837 201 800 q 436 875 348 875 q 591 838 524 875 q 704 740 658 801 q 773 600 749 679 q 796 439 796 521 q 778 306 796 370 q 728 187 760 242 q 650 88 695 132 q 553 18 606 45 q 625 -13 590 4 q 692 -48 659 -31 q 755 -76 724 -64 q 816 -88 786 -88 q 832 -86 824 -88 q 851 -79 841 -84 q 875 -64 861 -74 q 909 -40 889 -55 l 942 -84 "},"M":{"x_min":35,"x_max":1103,"ha":1152,"o":"m 1085 805 q 1047 800 1068 805 q 1003 786 1025 795 l 1003 90 q 1029 70 1003 82 q 1103 49 1055 59 l 1103 0 l 756 0 l 756 49 q 826 70 801 59 q 851 90 851 81 l 851 642 l 566 0 l 504 0 l 225 640 l 225 90 q 245 70 225 82 q 314 49 266 59 l 314 0 l 35 0 l 35 49 q 104 70 80 59 q 129 90 129 81 l 129 781 q 84 799 107 794 q 42 805 61 805 l 42 855 l 271 855 q 283 852 278 855 q 293 844 288 850 q 304 827 298 838 q 318 797 310 815 l 563 231 l 812 797 q 827 829 821 818 q 838 846 833 840 q 848 853 843 852 q 859 855 853 855 l 1085 855 l 1085 805 "},"œ":{"x_min":43,"x_max":1053,"ha":1096,"o":"m 789 570 q 698 524 733 570 q 655 394 664 478 l 877 394 q 897 399 891 394 q 903 418 903 404 q 899 462 903 436 q 882 512 895 488 q 848 553 870 536 q 789 570 826 570 m 496 308 q 484 410 496 362 q 452 491 473 457 q 403 546 432 526 q 341 566 375 566 q 279 548 305 566 q 237 500 254 531 q 212 424 220 468 q 205 326 205 380 q 217 225 205 272 q 252 141 230 177 q 302 85 274 106 q 361 64 330 64 q 422 82 397 64 q 464 132 447 100 q 488 209 480 165 q 496 308 496 254 m 1053 373 q 1035 358 1046 366 q 1012 342 1025 350 q 987 327 1000 334 q 964 317 974 321 l 655 317 q 666 229 655 270 q 698 158 677 188 q 750 111 719 128 q 821 95 780 95 q 859 97 840 95 q 900 109 878 100 q 950 134 923 118 q 1013 175 978 149 q 1022 167 1017 173 q 1033 154 1028 161 q 1042 141 1038 147 q 1047 132 1046 135 q 967 52 1003 82 q 896 6 930 22 q 830 -14 863 -9 q 763 -20 798 -20 q 654 9 707 -20 q 561 93 601 39 q 458 10 517 41 q 331 -20 398 -20 q 215 4 268 -20 q 124 71 162 28 q 64 173 86 114 q 43 301 43 232 q 53 389 43 346 q 85 471 64 432 q 134 543 105 510 q 199 600 163 576 q 277 637 235 623 q 365 651 319 651 q 489 623 432 651 q 585 547 545 595 q 641 596 609 574 q 715 634 671 617 q 808 651 758 651 q 891 638 855 651 q 955 604 928 625 q 1001 555 982 583 q 1031 496 1019 527 q 1048 434 1043 465 q 1053 373 1053 402 "},"ě":{"x_min":43,"x_max":615,"ha":658,"o":"m 338 570 q 285 557 307 570 q 246 522 262 545 q 222 467 231 499 q 209 394 213 434 l 430 394 q 451 399 446 394 q 456 418 456 404 q 450 464 456 438 q 431 514 445 490 q 395 553 418 537 q 338 570 372 570 m 615 373 q 597 358 609 366 q 573 343 586 350 q 546 328 559 335 q 521 318 532 322 l 208 318 q 219 228 208 269 q 252 157 231 187 q 304 110 273 127 q 373 94 334 94 q 414 96 394 94 q 456 107 433 98 q 508 132 479 116 q 576 176 537 148 q 586 167 580 174 q 596 154 591 161 q 605 141 601 147 q 611 132 609 135 q 528 55 565 85 q 458 8 492 25 q 391 -13 425 -7 q 318 -20 358 -20 q 212 3 262 -20 q 124 68 161 26 q 64 169 86 110 q 43 299 43 228 q 77 464 43 392 q 179 587 111 536 q 218 612 197 600 q 263 632 240 623 q 312 645 287 640 q 363 651 337 651 q 475 628 428 651 q 554 566 523 605 q 600 478 585 528 q 615 373 615 428 m 398 722 l 307 722 l 127 980 q 145 1007 135 993 q 166 1026 154 1021 l 353 878 l 538 1026 q 561 1007 549 1021 q 583 980 573 993 l 398 722 "},"ũ":{"x_min":22.90625,"x_max":760.6875,"ha":767,"o":"m 760 76 q 706 42 736 59 q 649 11 677 25 q 600 -11 621 -2 q 570 -20 578 -20 q 547 -15 558 -20 q 527 1 536 -11 q 510 35 517 13 q 499 92 502 57 q 424 33 457 55 q 364 0 391 11 q 314 -16 337 -12 q 270 -20 292 -20 q 209 -11 239 -20 q 155 20 179 -2 q 116 84 131 44 q 102 189 102 125 l 102 467 q 102 518 102 500 q 94 545 102 536 q 69 557 86 554 q 22 564 53 561 l 22 613 q 83 616 56 613 q 136 624 111 620 q 186 635 161 629 q 239 651 211 642 l 263 619 l 263 232 q 267 163 263 190 q 282 122 272 137 q 307 102 292 107 q 340 97 321 97 q 370 100 354 97 q 406 112 386 103 q 448 137 425 122 q 499 177 471 153 l 499 468 q 496 517 499 498 q 485 545 494 535 q 459 559 477 555 q 411 564 441 564 l 411 611 q 531 628 477 617 q 633 651 585 638 l 659 619 l 659 192 q 659 157 659 171 q 660 134 659 143 q 665 120 662 125 q 673 111 668 114 q 695 108 681 105 q 744 126 710 111 l 760 76 m 645 934 q 616 873 633 906 q 577 812 599 840 q 528 764 555 783 q 471 745 501 745 q 416 756 442 745 q 366 780 390 767 q 317 804 341 793 q 267 816 292 816 q 240 810 252 816 q 217 796 228 805 q 195 771 206 786 q 172 738 184 757 l 122 757 q 151 818 134 785 q 190 880 168 851 q 239 928 212 909 q 296 948 265 948 q 354 936 326 948 q 406 912 382 925 q 454 888 431 899 q 498 877 477 877 q 550 895 528 877 q 594 954 572 914 l 645 934 "},"ŭ":{"x_min":22.90625,"x_max":760.6875,"ha":767,"o":"m 760 76 q 706 42 736 59 q 649 11 677 25 q 600 -11 621 -2 q 570 -20 578 -20 q 547 -15 558 -20 q 527 1 536 -11 q 510 35 517 13 q 499 92 502 57 q 424 33 457 55 q 364 0 391 11 q 314 -16 337 -12 q 270 -20 292 -20 q 209 -11 239 -20 q 155 20 179 -2 q 116 84 131 44 q 102 189 102 125 l 102 467 q 102 518 102 500 q 94 545 102 536 q 69 557 86 554 q 22 564 53 561 l 22 613 q 83 616 56 613 q 136 624 111 620 q 186 635 161 629 q 239 651 211 642 l 263 619 l 263 232 q 267 163 263 190 q 282 122 272 137 q 307 102 292 107 q 340 97 321 97 q 370 100 354 97 q 406 112 386 103 q 448 137 425 122 q 499 177 471 153 l 499 468 q 496 517 499 498 q 485 545 494 535 q 459 559 477 555 q 411 564 441 564 l 411 611 q 531 628 477 617 q 633 651 585 638 l 659 619 l 659 192 q 659 157 659 171 q 660 134 659 143 q 665 120 662 125 q 673 111 668 114 q 695 108 681 105 q 744 126 710 111 l 760 76 m 619 927 q 573 833 599 872 q 516 769 546 794 q 452 732 485 744 q 385 721 419 721 q 314 732 348 721 q 249 769 280 744 q 193 833 219 794 q 147 927 167 872 q 158 940 151 933 q 171 953 164 947 q 185 965 178 960 q 197 973 192 970 q 237 919 214 941 q 284 881 259 896 q 335 858 309 865 q 382 851 360 851 q 431 858 405 851 q 482 880 457 865 q 530 918 507 895 q 569 973 552 941 q 582 965 575 970 q 596 953 589 960 q 609 940 603 947 q 619 927 615 933 "},"{":{"x_min":57.359375,"x_max":460.390625,"ha":476,"o":"m 460 1032 q 375 954 408 999 q 343 858 343 910 q 347 795 343 823 q 356 742 351 768 q 365 688 361 716 q 370 625 370 660 q 360 569 370 597 q 333 518 350 542 q 292 474 315 494 q 240 442 268 454 q 338 383 307 430 q 370 260 370 336 q 365 193 370 224 q 356 133 361 161 q 347 76 351 104 q 343 18 343 48 q 347 -31 343 -9 q 363 -74 351 -54 q 396 -113 375 -95 q 453 -152 418 -132 l 428 -213 q 319 -167 367 -190 q 239 -113 271 -143 q 189 -47 206 -84 q 173 38 173 -10 q 177 103 173 74 q 186 159 181 132 q 195 217 191 187 q 200 285 200 247 q 176 363 200 340 q 111 387 153 387 l 97 387 q 90 386 93 387 q 82 385 87 386 q 68 382 78 384 l 57 439 q 165 497 131 460 q 200 585 200 534 q 195 649 200 622 q 186 701 191 676 q 177 754 181 727 q 173 820 173 782 q 192 904 173 865 q 247 975 212 943 q 330 1034 282 1008 q 433 1084 378 1061 l 460 1032 "},"¼":{"x_min":46.703125,"x_max":809.640625,"ha":848,"o":"m 204 2 q 185 -4 196 -1 q 162 -10 174 -7 q 138 -15 150 -13 q 117 -19 126 -17 l 101 0 l 692 815 q 710 821 699 818 q 733 827 721 824 q 757 833 745 830 q 776 837 769 836 l 793 818 l 204 2 m 809 145 q 790 124 801 135 q 771 109 780 114 l 751 109 l 751 45 q 761 36 751 40 q 803 25 771 31 l 803 0 l 584 0 l 584 25 q 623 32 608 28 q 647 37 638 35 q 659 43 656 40 q 662 48 662 45 l 662 109 l 483 109 l 467 121 l 649 379 q 669 385 658 382 l 692 392 q 715 399 704 396 q 734 405 726 402 l 751 391 l 751 156 l 799 156 l 809 145 m 58 432 l 58 460 q 107 466 87 463 q 137 474 126 470 q 153 482 148 478 q 158 489 158 486 l 158 727 q 157 747 158 739 q 151 758 156 754 q 143 761 149 760 q 127 763 138 763 q 99 760 116 763 q 57 754 81 758 l 46 781 q 88 791 62 784 q 142 807 115 798 q 196 824 170 815 q 235 837 221 832 l 252 823 l 252 489 q 255 482 252 486 q 270 474 259 478 q 298 466 280 470 q 345 460 316 463 l 345 432 l 58 432 m 662 318 l 542 156 l 662 156 l 662 318 "},"#":{"x_min":47.859375,"x_max":692.515625,"ha":689,"o":"m 573 662 l 675 662 l 692 645 q 687 626 691 637 q 678 602 683 614 q 668 580 673 591 q 661 564 664 569 l 546 564 l 503 410 l 605 410 l 620 391 q 615 373 618 384 q 606 350 611 362 q 598 328 602 339 q 591 312 594 318 l 475 312 l 420 115 q 404 106 414 110 q 382 99 394 102 q 359 92 371 95 q 339 86 348 88 l 322 99 l 381 312 l 265 312 l 210 115 q 194 106 204 110 q 173 99 184 102 l 150 92 q 130 86 139 88 l 113 99 l 172 312 l 62 312 l 47 328 q 52 346 49 335 q 61 369 56 357 q 70 392 65 380 q 77 410 74 403 l 200 410 l 243 564 l 134 564 l 118 580 q 123 598 119 587 q 132 621 127 609 q 141 644 137 633 q 148 662 146 655 l 271 662 l 323 848 q 340 857 330 853 q 362 864 350 861 q 383 870 373 867 q 401 876 394 872 l 420 861 l 364 662 l 479 662 l 531 848 q 549 857 539 853 q 570 864 559 861 q 592 870 582 867 q 611 876 603 872 l 629 861 l 573 662 m 293 410 l 409 410 l 451 564 l 336 564 l 293 410 "},"ꞌ":{"x_min":91.71875,"x_max":287.109375,"ha":379,"o":"m 234 443 q 218 437 229 440 q 195 433 208 435 q 170 430 182 431 q 150 429 158 429 l 91 945 q 109 953 96 948 q 137 964 121 958 q 172 977 154 970 q 206 989 190 983 q 234 998 222 994 q 251 1003 247 1002 l 287 983 l 234 443 "},"Ⱡ":{"x_min":21.6875,"x_max":677.734375,"ha":694,"o":"m 677 206 q 671 144 675 177 q 664 83 667 112 q 656 32 660 54 q 650 0 653 10 l 29 0 l 29 49 q 97 69 74 58 q 120 90 120 81 l 120 297 l 36 297 l 21 313 q 26 326 23 317 q 32 345 29 335 q 38 363 35 355 q 43 378 41 372 l 120 378 l 120 458 l 36 458 l 21 474 q 26 487 23 478 q 32 506 29 496 q 38 524 35 516 q 43 539 41 533 l 120 539 l 120 762 q 98 783 120 770 q 29 804 76 795 l 29 854 l 378 854 l 378 804 q 309 783 332 795 q 286 762 286 772 l 286 539 l 483 539 l 499 523 l 475 458 l 286 458 l 286 378 l 483 378 l 499 362 l 475 297 l 286 297 l 286 131 q 291 109 286 119 q 311 94 297 100 q 349 84 325 87 q 409 81 373 81 l 484 81 q 536 88 515 81 q 573 112 557 96 q 602 156 589 129 q 629 224 615 183 l 677 206 "},"Ĳ":{"x_min":42,"x_max":859,"ha":900,"o":"m 42 0 l 42 49 q 110 70 87 58 q 133 90 133 81 l 133 762 q 111 782 133 770 q 42 804 89 795 l 42 854 l 391 854 l 391 804 q 322 783 345 795 q 299 762 299 771 l 299 90 q 321 70 299 82 q 391 49 343 58 l 391 0 l 42 0 m 859 804 q 791 783 814 795 q 768 762 768 771 l 768 124 q 753 -4 768 49 q 715 -96 738 -57 q 664 -161 692 -134 q 610 -210 636 -188 q 570 -238 593 -225 q 524 -261 548 -251 q 475 -277 500 -271 q 428 -283 451 -283 q 370 -275 398 -283 q 319 -258 341 -268 q 282 -237 296 -248 q 269 -218 269 -226 q 283 -194 269 -211 q 315 -160 297 -178 q 353 -128 334 -143 q 381 -110 371 -114 q 449 -156 418 -143 q 506 -170 481 -170 q 541 -161 524 -170 q 571 -127 558 -153 q 593 -53 585 -101 q 602 74 602 -5 l 602 762 q 597 771 602 766 q 579 781 593 776 q 541 792 565 786 q 477 804 517 798 l 477 854 l 859 854 l 859 804 "},"Ê":{"x_min":29,"x_max":683.859375,"ha":715,"o":"m 683 205 q 677 144 681 176 q 670 83 674 112 q 662 32 666 54 q 656 0 659 10 l 29 0 l 29 49 q 97 69 74 58 q 120 90 120 81 l 120 762 q 98 783 120 770 q 29 804 76 795 l 29 854 l 614 854 l 640 832 q 637 788 640 814 q 630 734 634 761 q 622 681 626 706 q 613 644 617 657 l 562 644 q 548 740 562 707 q 510 773 535 773 l 286 773 l 286 498 l 550 498 l 572 474 q 559 452 567 464 q 543 427 551 439 q 527 404 535 415 q 511 388 518 394 q 489 405 501 398 q 463 417 478 412 q 428 423 448 421 q 379 426 407 426 l 286 426 l 286 124 q 290 106 286 114 q 309 92 295 98 q 351 84 324 87 q 421 81 377 81 l 487 81 q 539 88 517 81 q 577 112 561 95 q 607 156 594 129 q 635 223 621 183 l 683 205 m 581 962 q 563 938 573 949 q 542 921 553 927 l 355 1032 l 170 921 q 149 938 159 927 q 130 962 139 949 l 315 1182 l 397 1182 l 581 962 "},")":{"x_min":16.9375,"x_max":382,"ha":451,"o":"m 382 448 q 359 237 382 337 q 293 51 336 136 q 189 -100 250 -33 q 52 -214 128 -168 l 16 -163 q 91 -65 56 -122 q 152 65 126 -8 q 193 229 178 139 q 209 429 209 320 q 196 617 209 528 q 160 784 184 707 q 100 924 135 861 q 16 1033 64 987 l 52 1084 q 197 975 135 1039 q 300 829 258 910 q 361 652 341 748 q 382 448 382 556 "},"Å":{"x_min":0,"x_max":841,"ha":855,"o":"m 496 373 l 387 688 l 286 373 l 496 373 m 260 292 l 196 95 q 213 65 190 74 q 290 49 236 55 l 290 0 l 0 0 l 0 49 q 69 66 45 57 q 100 95 93 75 l 332 818 q 366 843 348 831 q 404 864 384 855 q 443 880 423 873 q 479 892 462 887 l 758 95 q 767 78 762 86 q 781 65 772 71 q 805 56 791 60 q 841 49 819 52 l 841 0 l 511 0 l 511 51 q 581 61 562 51 q 592 95 599 72 l 524 292 l 260 292 m 469 1059 q 455 1109 469 1092 q 427 1127 442 1127 q 403 1121 413 1127 q 386 1106 393 1115 q 375 1085 379 1097 q 372 1061 372 1073 q 385 1012 372 1029 q 414 996 399 996 q 454 1014 440 996 q 469 1059 469 1032 m 559 1087 q 545 1019 559 1051 q 510 964 532 987 q 459 927 487 941 q 400 914 430 914 q 352 922 374 914 q 314 946 330 930 q 290 984 299 962 q 282 1033 282 1006 q 295 1101 282 1069 q 330 1157 308 1133 q 381 1195 352 1181 q 441 1209 410 1209 q 489 1199 467 1209 q 527 1174 511 1190 q 550 1136 542 1158 q 559 1087 559 1114 "},"¸":{"x_min":37.328125,"x_max":302,"ha":312,"o":"m 302 -155 q 284 -203 302 -180 q 234 -247 266 -227 q 158 -281 202 -266 q 61 -300 113 -295 l 37 -252 q 120 -223 95 -243 q 145 -182 145 -203 q 129 -149 145 -159 q 84 -136 114 -139 l 86 -134 q 94 -117 89 -131 q 110 -73 100 -102 q 137 9 121 -43 l 219 9 l 193 -60 q 273 -93 245 -69 q 302 -155 302 -116 "},"a":{"x_min":43,"x_max":675.671875,"ha":680,"o":"m 273 98 q 300 101 286 98 q 331 112 314 104 q 368 133 348 119 q 414 169 388 148 l 414 319 q 346 306 374 312 q 301 293 319 300 q 270 278 282 286 q 250 262 259 271 q 222 224 233 244 q 212 175 212 204 q 218 137 212 152 q 234 113 224 122 q 254 101 243 104 q 273 98 265 98 m 675 75 q 616 38 647 56 q 559 7 586 21 q 509 -12 532 -5 q 475 -20 487 -20 q 433 8 450 -20 q 416 87 416 36 q 354 36 384 56 q 296 3 324 15 q 241 -14 267 -9 q 194 -20 215 -20 q 139 -10 166 -20 q 91 18 112 0 q 56 67 69 38 q 43 136 43 97 q 59 214 43 182 q 100 272 75 247 q 137 303 116 288 q 192 333 158 319 q 280 360 227 347 q 414 386 333 373 l 414 466 q 410 505 414 487 q 396 535 406 523 q 369 555 386 548 q 327 563 352 563 q 295 556 311 563 q 267 539 279 550 q 248 512 255 528 q 243 476 241 496 q 233 466 244 472 q 204 453 221 460 q 166 440 187 447 q 126 429 145 434 q 91 423 106 425 q 70 422 76 420 l 56 458 q 107 534 72 499 q 187 595 141 569 q 287 636 233 621 q 396 651 341 651 q 476 638 442 651 q 531 604 509 626 q 563 552 552 582 q 574 488 574 523 l 574 161 q 581 121 574 133 q 600 109 588 109 q 610 109 605 109 q 622 112 615 110 q 638 118 629 114 q 661 127 647 121 l 675 75 "},"=":{"x_min":35.21875,"x_max":582.859375,"ha":618,"o":"m 582 307 q 576 289 580 299 q 568 267 572 278 q 559 246 563 256 q 552 231 554 237 l 56 231 l 35 252 q 40 270 37 260 q 49 291 44 280 q 58 312 53 302 q 65 329 62 322 l 561 329 l 582 307 m 582 510 q 576 492 580 502 q 568 470 572 481 q 559 449 563 459 q 552 434 554 439 l 56 434 l 35 455 q 40 473 37 462 q 49 494 44 483 q 58 515 53 505 q 65 532 62 525 l 561 532 l 582 510 "},"˚":{"x_min":32,"x_max":309,"ha":340,"o":"m 219 842 q 205 892 219 875 q 176 910 191 910 q 152 904 162 910 q 135 889 142 898 q 125 868 128 880 q 122 844 122 856 q 135 795 122 812 q 163 779 148 779 q 204 797 189 779 q 219 842 219 815 m 309 870 q 295 802 309 834 q 260 747 282 770 q 209 710 237 724 q 149 697 180 697 q 101 705 123 697 q 64 729 79 713 q 40 767 49 745 q 32 816 32 789 q 45 884 32 852 q 80 940 58 916 q 130 978 102 964 q 190 992 159 992 q 239 982 217 992 q 276 957 261 973 q 300 919 292 941 q 309 870 309 897 "},"ú":{"x_min":22.90625,"x_max":760.6875,"ha":767,"o":"m 760 76 q 706 42 736 59 q 649 11 677 25 q 600 -11 621 -2 q 570 -20 578 -20 q 547 -15 558 -20 q 527 1 536 -11 q 510 35 517 13 q 499 92 502 57 q 424 33 457 55 q 364 0 391 11 q 314 -16 337 -12 q 270 -20 292 -20 q 209 -11 239 -20 q 155 20 179 -2 q 116 84 131 44 q 102 189 102 125 l 102 467 q 102 518 102 500 q 94 545 102 536 q 69 557 86 554 q 22 564 53 561 l 22 613 q 83 616 56 613 q 136 624 111 620 q 186 635 161 629 q 239 650 211 642 l 263 619 l 263 232 q 267 163 263 190 q 282 122 272 137 q 307 102 292 107 q 340 97 321 97 q 370 100 354 97 q 406 112 386 103 q 448 137 425 122 q 499 177 471 153 l 499 468 q 496 517 499 498 q 485 545 494 535 q 459 559 477 555 q 411 564 441 564 l 411 611 q 531 628 477 617 q 633 650 585 638 l 659 619 l 659 192 q 659 157 659 171 q 660 134 659 143 q 665 120 662 125 q 673 111 668 114 q 695 108 681 105 q 744 126 710 111 l 760 76 m 344 705 q 329 709 338 705 q 312 717 321 713 q 297 726 304 722 q 286 734 290 731 l 426 1025 q 456 1021 434 1024 q 502 1014 477 1018 q 548 1005 526 1010 q 578 999 570 1001 l 597 962 l 344 705 "},"¯":{"x_min":52.5,"x_max":618.75,"ha":671,"o":"m 618 886 q 611 866 616 879 q 600 840 606 854 q 589 815 594 826 q 581 797 584 803 l 73 797 l 52 818 q 59 838 54 826 q 69 864 63 850 q 81 889 75 877 q 89 908 86 901 l 597 908 l 618 886 "},"Z":{"x_min":34.703125,"x_max":690,"ha":742,"o":"m 690 239 q 690 184 690 217 q 690 117 690 151 q 690 51 690 83 q 690 0 690 19 l 58 0 l 34 35 l 481 766 l 222 766 q 198 754 211 766 q 171 721 184 742 q 147 671 158 700 q 128 607 135 642 l 70 620 l 95 865 q 128 858 113 861 q 157 855 143 855 q 186 855 171 855 l 665 855 l 687 820 l 243 88 l 546 88 q 571 98 560 88 q 593 129 583 108 q 614 181 603 150 q 637 254 624 212 l 690 239 "},"u":{"x_min":22.90625,"x_max":760.6875,"ha":767,"o":"m 760 76 q 706 42 736 59 q 649 11 677 25 q 600 -11 621 -2 q 570 -20 578 -20 q 547 -15 558 -20 q 527 1 536 -11 q 510 35 517 13 q 499 92 502 57 q 424 33 457 55 q 364 0 391 11 q 314 -16 337 -12 q 270 -20 292 -20 q 209 -11 239 -20 q 155 20 179 -2 q 116 84 131 44 q 102 189 102 125 l 102 467 q 102 518 102 500 q 94 545 102 536 q 69 557 86 554 q 22 564 53 561 l 22 613 q 83 616 56 613 q 136 624 111 620 q 186 635 161 629 q 239 650 211 642 l 263 619 l 263 232 q 267 163 263 190 q 282 122 272 137 q 307 102 292 107 q 340 97 321 97 q 370 100 354 97 q 406 112 386 103 q 448 137 425 122 q 499 177 471 153 l 499 468 q 496 517 499 498 q 485 545 494 535 q 459 559 477 555 q 411 564 441 564 l 411 611 q 531 628 477 617 q 633 650 585 638 l 659 619 l 659 192 q 659 157 659 171 q 660 134 659 143 q 665 120 662 125 q 673 111 668 114 q 695 108 681 105 q 744 126 710 111 l 760 76 "},"k":{"x_min":32,"x_max":753.421875,"ha":750,"o":"m 32 0 l 32 49 q 97 69 75 60 q 119 90 119 78 l 119 858 q 116 906 119 890 q 103 932 113 923 q 77 943 94 940 q 32 949 60 946 l 32 997 q 150 1018 95 1006 q 249 1051 204 1031 l 279 1023 l 279 361 l 453 521 q 481 553 475 541 q 483 571 488 565 q 465 579 478 577 q 435 581 452 581 l 435 631 l 732 631 l 732 581 q 673 566 702 577 q 615 534 644 555 l 413 378 l 653 100 q 671 83 662 89 q 692 74 680 77 q 717 71 703 71 q 753 71 732 71 l 753 22 q 709 12 734 17 q 662 2 685 7 q 621 -4 640 -1 q 597 -6 603 -6 q 550 1 569 -6 q 516 29 531 9 l 279 350 l 279 90 q 281 81 279 85 q 290 72 283 77 q 312 62 298 68 q 352 49 327 57 l 352 0 l 32 0 "},"Ù":{"x_min":29,"x_max":873,"ha":910,"o":"m 873 805 q 804 784 827 795 q 781 763 781 772 l 781 355 q 756 196 781 266 q 688 78 732 127 q 584 5 644 30 q 452 -20 524 -20 q 323 0 384 -20 q 218 58 263 18 q 146 158 172 97 q 120 301 120 218 l 120 763 q 98 783 120 771 q 29 805 76 795 l 29 855 l 378 855 l 378 805 q 309 784 332 795 q 286 763 286 772 l 286 345 q 297 230 286 280 q 333 146 308 180 q 397 95 357 112 q 494 78 436 78 q 573 99 541 78 q 626 157 606 121 q 656 240 647 193 q 665 337 665 287 l 665 763 q 643 783 665 771 q 574 805 621 795 l 574 855 l 873 855 l 873 805 m 587 963 q 569 939 578 950 q 548 922 559 928 l 229 1081 l 236 1124 q 255 1140 240 1129 q 288 1162 270 1151 q 322 1184 306 1174 q 345 1198 338 1194 l 587 963 "},"Ů":{"x_min":29,"x_max":873,"ha":910,"o":"m 873 805 q 804 784 827 795 q 781 763 781 772 l 781 355 q 756 196 781 266 q 688 78 732 127 q 584 5 644 30 q 452 -20 524 -20 q 323 0 384 -20 q 218 58 263 18 q 146 158 172 97 q 120 301 120 218 l 120 763 q 98 783 120 771 q 29 805 76 795 l 29 855 l 378 855 l 378 805 q 309 784 332 795 q 286 763 286 772 l 286 345 q 297 230 286 280 q 333 146 308 180 q 397 95 357 112 q 494 78 436 78 q 573 99 541 78 q 626 157 606 121 q 656 240 647 193 q 665 337 665 287 l 665 763 q 643 783 665 771 q 574 805 622 795 l 574 855 l 873 855 l 873 805 m 509 1059 q 495 1109 509 1092 q 466 1127 482 1127 q 442 1121 453 1127 q 425 1106 432 1115 q 414 1085 418 1097 q 411 1061 411 1073 q 424 1012 411 1029 q 453 996 438 996 q 494 1014 480 996 q 509 1059 509 1032 m 599 1087 q 585 1019 599 1051 q 550 964 572 987 q 499 927 527 941 q 439 914 470 914 q 391 922 413 914 q 354 946 369 930 q 329 984 338 962 q 321 1033 321 1006 q 334 1101 321 1069 q 369 1157 347 1133 q 420 1195 391 1181 q 481 1209 449 1209 q 529 1199 507 1209 q 567 1174 551 1190 q 590 1136 582 1158 q 599 1087 599 1114 "},"¢":{"x_min":59,"x_max":629.640625,"ha":689,"o":"m 205 417 q 214 336 205 372 q 240 272 223 299 q 280 227 257 245 q 331 198 303 209 l 331 638 q 283 615 305 631 q 243 573 260 599 q 215 507 225 546 q 205 417 205 469 m 411 4 q 383 -14 399 -5 q 352 -27 368 -22 l 331 -5 l 331 88 q 236 114 284 92 q 148 175 187 135 q 83 270 108 214 q 59 397 59 325 q 78 510 59 457 q 133 605 97 563 q 218 677 168 647 q 331 720 269 707 l 331 813 q 346 823 340 819 q 358 831 353 827 q 371 838 364 835 q 388 844 378 841 l 411 824 l 411 731 q 421 731 416 731 q 433 731 427 731 q 484 727 455 731 q 540 716 512 723 q 590 699 567 709 q 625 677 613 690 q 620 649 626 670 q 606 606 615 629 q 588 562 597 583 q 572 533 578 541 l 529 544 q 514 568 523 554 q 489 596 504 582 q 455 622 475 610 q 411 639 436 634 l 411 188 q 448 192 430 188 q 488 209 467 197 q 532 240 508 220 q 588 291 557 260 l 629 242 q 566 177 595 204 q 511 132 537 150 q 460 105 485 115 q 411 91 436 95 l 411 4 "},"é":{"x_min":43,"x_max":615,"ha":658,"o":"m 338 570 q 285 557 307 570 q 246 522 262 545 q 222 467 231 499 q 209 394 213 434 l 430 394 q 451 399 446 394 q 456 418 456 404 q 450 464 456 438 q 431 514 445 490 q 395 553 418 537 q 338 570 372 570 m 615 373 q 597 358 609 366 q 573 343 586 350 q 546 328 559 335 q 521 318 532 322 l 208 318 q 219 228 208 269 q 252 157 231 187 q 304 110 273 127 q 373 94 334 94 q 414 96 394 94 q 456 107 433 98 q 508 132 479 116 q 576 176 537 148 q 586 167 580 174 q 596 154 591 161 q 605 141 601 147 q 611 132 609 135 q 528 55 565 85 q 458 8 492 25 q 391 -13 425 -7 q 318 -20 358 -20 q 212 3 262 -20 q 124 68 161 26 q 64 169 86 110 q 43 299 43 228 q 77 464 43 392 q 179 587 111 536 q 218 612 197 600 q 263 632 240 623 q 312 645 287 640 q 363 651 337 651 q 475 628 428 651 q 554 566 523 605 q 600 478 585 528 q 615 373 615 428 m 315 705 q 301 709 309 705 q 284 717 293 713 q 268 726 275 722 q 257 734 261 731 l 398 1025 q 427 1021 406 1024 q 473 1014 449 1018 q 520 1005 498 1010 q 549 999 542 1001 l 569 962 l 315 705 "},"B":{"x_min":20.359375,"x_max":751,"ha":819,"o":"m 751 243 q 727 140 751 186 q 659 62 703 94 q 551 12 614 29 q 407 -5 487 -5 q 370 -5 392 -5 q 323 -5 349 -5 q 270 -5 297 -5 q 215 -5 242 -5 q 82 -5 152 -5 l 29 -5 l 29 49 q 97 70 74 58 q 120 90 120 81 l 120 790 q 71 784 94 787 q 29 777 48 780 l 20 834 q 90 850 50 842 q 176 864 131 858 q 266 871 221 871 q 352 871 312 871 q 488 858 428 871 q 590 822 548 846 q 654 765 632 799 q 677 689 677 732 q 638 565 677 617 q 525 490 600 514 q 617 460 575 482 q 688 405 658 437 q 734 331 717 372 q 751 243 751 290 m 375 433 q 325 430 345 433 q 286 424 305 427 l 286 86 q 289 77 286 81 q 332 66 308 69 q 382 63 355 63 q 528 107 479 63 q 577 228 577 151 q 567 302 577 265 q 534 367 557 338 q 472 415 511 397 q 375 433 433 433 m 309 803 l 298 803 q 286 802 292 803 l 286 502 l 298 502 q 406 515 365 502 q 470 551 447 529 q 501 601 493 573 q 509 658 509 629 q 499 719 509 692 q 466 764 489 746 q 404 793 443 783 q 309 803 366 803 "},"…":{"x_min":87,"x_max":1053,"ha":1115,"o":"m 1053 89 q 1043 40 1053 62 q 1017 3 1033 18 q 978 -19 1001 -11 q 931 -27 956 -27 q 894 -21 912 -27 q 863 -5 876 -16 q 842 22 850 5 q 835 64 835 40 q 844 113 835 91 q 871 149 854 134 q 911 172 888 164 q 957 181 933 181 q 993 175 975 181 q 1023 158 1010 170 q 1045 130 1037 147 q 1053 89 1053 113 m 679 89 q 669 40 679 62 q 643 3 659 18 q 604 -19 627 -11 q 557 -27 582 -27 q 520 -21 538 -27 q 489 -5 502 -16 q 468 22 476 5 q 461 64 461 40 q 470 113 461 91 q 497 149 480 134 q 537 172 514 164 q 583 181 559 181 q 619 175 601 181 q 649 158 636 170 q 671 130 663 147 q 679 89 679 113 m 305 89 q 295 40 305 62 q 269 3 285 18 q 230 -19 253 -11 q 183 -27 208 -27 q 146 -21 164 -27 q 115 -5 128 -16 q 94 22 102 5 q 87 64 87 40 q 96 113 87 91 q 123 149 106 134 q 163 172 140 164 q 209 181 185 181 q 245 175 227 181 q 275 158 262 170 q 297 130 289 147 q 305 89 305 113 "},"ē":{"x_min":43,"x_max":645.578125,"ha":658,"o":"m 338 570 q 285 557 307 570 q 246 522 262 545 q 222 467 231 499 q 209 394 213 434 l 430 394 q 451 399 446 394 q 456 418 456 404 q 450 464 456 438 q 431 514 445 490 q 395 553 418 537 q 338 570 372 570 m 615 373 q 597 358 609 366 q 573 343 586 350 q 546 328 559 335 q 521 318 532 322 l 208 318 q 219 228 208 269 q 252 157 231 187 q 304 110 273 127 q 373 94 334 94 q 414 96 394 94 q 456 107 433 98 q 508 132 479 116 q 576 176 537 148 q 586 167 580 174 q 596 154 591 161 q 605 141 601 147 q 611 132 609 135 q 528 55 565 85 q 458 8 492 25 q 391 -13 425 -7 q 318 -20 358 -20 q 212 3 262 -20 q 124 68 161 26 q 64 169 86 110 q 43 299 43 228 q 77 464 43 392 q 179 587 111 536 q 218 612 197 600 q 263 632 240 623 q 312 645 287 640 q 363 651 337 651 q 475 628 428 651 q 554 566 523 605 q 600 478 585 528 q 615 373 615 428 m 645 886 q 638 866 643 879 q 627 840 633 854 q 616 815 621 826 q 608 797 611 803 l 100 797 l 79 818 q 86 838 81 826 q 96 864 90 850 q 107 889 102 877 q 116 908 113 901 l 624 908 l 645 886 "},"H":{"x_min":29,"x_max":890,"ha":931,"o":"m 29 0 l 29 49 q 97 70 74 59 q 120 90 120 81 l 120 762 q 98 782 120 770 q 29 804 76 795 l 29 854 l 378 854 l 378 804 q 309 783 332 795 q 286 762 286 772 l 286 488 l 632 488 l 632 762 q 610 782 632 770 q 541 804 588 795 l 541 854 l 890 854 l 890 804 q 821 783 844 795 q 798 762 798 772 l 798 90 q 820 70 798 82 q 890 49 842 59 l 890 0 l 541 0 l 541 49 q 609 70 586 59 q 632 91 632 81 l 632 407 l 286 407 l 286 91 q 307 70 286 82 q 378 49 329 59 l 378 0 l 29 0 "},"î":{"x_min":-20.484375,"x_max":435.15625,"ha":409,"o":"m 42 0 l 42 49 q 108 70 87 59 q 129 90 129 81 l 129 439 q 129 495 129 474 q 121 528 129 516 q 95 545 113 540 q 42 554 77 551 l 42 602 q 150 622 99 610 q 246 651 201 634 l 289 651 l 289 90 q 309 70 289 82 q 378 49 329 59 l 378 0 l 42 0 m 435 750 q 417 724 427 737 q 396 705 407 710 l 209 856 l 24 705 q 0 724 12 710 q -20 750 -11 737 l 164 1013 l 255 1013 l 435 750 "},"¥":{"x_min":-52.828125,"x_max":709,"ha":688,"o":"m 152 0 l 152 49 q 202 62 182 55 q 234 75 222 69 q 251 87 246 81 q 256 98 256 93 l 256 263 l 64 263 l 49 279 q 53 292 50 283 q 60 311 56 301 q 66 329 63 321 q 72 344 70 338 l 256 344 l 256 358 q 206 462 232 410 q 154 561 180 514 q 101 650 127 608 q 52 722 75 691 q 39 735 46 729 q 22 746 33 742 q -6 752 11 750 q -52 755 -23 755 l -52 803 q -8 809 -33 806 q 42 816 17 813 q 90 820 67 818 q 126 822 112 822 q 163 814 145 822 q 193 791 182 806 q 240 722 217 757 q 286 648 263 687 q 331 565 309 608 q 376 473 353 522 l 505 722 q 498 750 515 740 q 431 767 482 760 l 431 815 l 709 815 l 709 767 q 642 748 663 758 q 610 722 620 739 l 422 356 l 422 344 l 599 344 l 616 328 l 591 263 l 422 263 l 422 98 q 426 88 422 94 q 443 75 431 82 q 476 62 455 69 q 528 49 496 55 l 528 0 l 152 0 "},"Ĥ":{"x_min":29,"x_max":890,"ha":931,"o":"m 29 0 l 29 49 q 97 70 74 59 q 120 90 120 81 l 120 762 q 98 782 120 770 q 29 804 76 795 l 29 854 l 378 854 l 378 804 q 309 783 332 795 q 286 762 286 772 l 286 488 l 632 488 l 632 762 q 610 782 632 770 q 541 804 588 795 l 541 854 l 890 854 l 890 804 q 821 783 844 795 q 798 762 798 772 l 798 90 q 820 70 798 82 q 890 49 842 59 l 890 0 l 541 0 l 541 49 q 609 70 586 59 q 632 91 632 81 l 632 407 l 286 407 l 286 91 q 307 70 286 82 q 378 49 329 59 l 378 0 l 29 0 m 683 962 q 666 938 675 949 q 645 922 656 927 l 458 1032 l 272 922 q 251 938 261 927 q 232 962 242 949 l 418 1182 l 499 1182 l 683 962 "},"U":{"x_min":29,"x_max":873,"ha":910,"o":"m 873 805 q 804 784 827 795 q 781 763 781 772 l 781 355 q 756 196 781 266 q 688 78 732 127 q 584 5 644 30 q 452 -20 524 -20 q 323 0 384 -20 q 218 58 263 18 q 146 158 172 97 q 120 301 120 218 l 120 763 q 98 783 120 771 q 29 805 76 795 l 29 855 l 378 855 l 378 805 q 309 784 332 795 q 286 763 286 772 l 286 345 q 297 230 286 280 q 333 146 308 180 q 397 95 357 112 q 494 78 436 78 q 573 99 541 78 q 626 157 606 121 q 656 240 647 193 q 665 337 665 287 l 665 763 q 643 783 665 771 q 574 805 621 795 l 574 855 l 873 855 l 873 805 "},"Ñ":{"x_min":29,"x_max":876,"ha":903,"o":"m 29 0 l 29 49 q 98 68 77 55 q 120 90 120 81 l 120 755 q 29 804 76 796 l 29 854 l 214 854 q 230 852 224 854 q 243 845 237 850 q 257 829 250 839 q 278 801 265 818 l 685 226 l 685 762 q 680 772 685 766 q 666 783 676 778 q 638 795 655 789 q 594 804 620 800 l 594 854 l 876 854 l 876 804 q 806 784 828 797 q 785 762 785 771 l 785 -20 q 682 5 721 -14 q 625 50 643 25 l 220 623 l 220 90 q 224 80 220 86 q 240 69 229 75 q 268 58 251 63 q 311 49 285 52 l 311 0 l 29 0 m 714 1123 q 685 1062 702 1095 q 645 1001 667 1029 q 596 953 623 972 q 539 934 569 934 q 484 945 510 934 q 434 969 458 956 q 385 993 409 982 q 335 1005 361 1005 q 308 999 320 1005 q 285 985 296 994 q 263 960 274 975 q 241 927 252 946 l 191 946 q 220 1007 203 974 q 259 1069 237 1040 q 307 1117 280 1098 q 364 1137 334 1137 q 422 1125 395 1137 q 475 1101 450 1114 q 522 1077 500 1088 q 566 1066 545 1066 q 618 1084 596 1066 q 663 1143 640 1103 l 714 1123 "},"F":{"x_min":29,"x_max":646,"ha":691,"o":"m 29 0 l 29 49 q 97 70 74 59 q 120 91 120 81 l 120 763 q 98 784 120 771 q 29 805 76 796 l 29 855 l 621 855 l 646 833 q 643 789 646 815 q 637 735 640 762 q 629 682 633 707 q 620 645 624 658 l 568 645 q 554 741 568 708 q 515 774 540 774 l 286 774 l 286 499 l 530 499 l 554 475 q 540 450 548 463 q 523 426 532 437 q 506 404 514 414 q 491 389 498 395 q 470 406 481 399 q 444 418 459 413 q 408 424 429 422 q 360 427 388 427 l 286 427 l 286 91 q 291 82 286 87 q 309 72 296 77 q 343 61 322 67 q 398 49 365 56 l 398 0 l 29 0 "},"ā":{"x_min":43,"x_max":675.671875,"ha":680,"o":"m 273 98 q 300 101 286 98 q 331 112 314 104 q 368 133 348 119 q 414 169 388 148 l 414 319 q 346 306 374 312 q 301 293 319 300 q 270 278 282 286 q 250 262 259 271 q 222 224 233 244 q 212 175 212 204 q 218 137 212 152 q 234 113 224 122 q 254 101 243 104 q 273 98 265 98 m 675 75 q 616 38 647 56 q 559 7 586 21 q 509 -12 532 -5 q 475 -20 487 -20 q 433 8 450 -20 q 416 87 416 36 q 354 36 384 56 q 296 3 324 15 q 241 -14 267 -9 q 194 -20 215 -20 q 139 -10 166 -20 q 91 18 112 0 q 56 67 69 38 q 43 136 43 97 q 59 214 43 182 q 100 272 75 247 q 137 303 116 288 q 192 333 158 319 q 280 360 227 347 q 414 386 333 373 l 414 466 q 410 505 414 487 q 396 535 406 523 q 369 555 386 548 q 327 563 352 563 q 295 556 311 563 q 267 539 279 550 q 248 512 255 528 q 243 476 241 496 q 233 466 244 472 q 204 453 221 460 q 166 440 187 447 q 126 429 145 434 q 91 423 106 425 q 70 422 76 420 l 56 458 q 107 534 72 499 q 187 595 141 569 q 287 636 233 621 q 396 651 341 651 q 476 638 442 651 q 531 604 509 626 q 563 552 552 582 q 574 488 574 523 l 574 161 q 581 121 574 133 q 600 109 588 109 q 610 109 605 109 q 622 112 615 110 q 638 118 629 114 q 661 127 647 121 l 675 75 m 632 886 q 625 866 630 879 q 614 840 620 854 q 603 815 608 826 q 595 797 597 803 l 86 797 l 65 818 q 72 838 67 826 q 82 864 76 850 q 94 889 88 877 q 102 908 99 901 l 611 908 l 632 886 "},"Ĩ":{"x_min":-45.0625,"x_max":478.078125,"ha":446,"o":"m 42 0 l 42 49 q 110 70 87 58 q 133 90 133 81 l 133 762 q 111 782 133 770 q 42 804 89 795 l 42 854 l 391 854 l 391 804 q 322 783 345 795 q 299 762 299 771 l 299 90 q 321 70 299 82 q 391 49 343 58 l 391 0 l 42 0 m 478 1123 q 448 1062 466 1095 q 409 1001 431 1029 q 360 953 387 972 q 303 934 333 934 q 248 945 274 934 q 198 969 222 956 q 149 993 173 982 q 99 1005 125 1005 q 72 999 84 1005 q 49 985 60 994 q 27 960 38 975 q 4 927 16 946 l -45 946 q -16 1007 -33 974 q 22 1069 0 1040 q 71 1117 44 1098 q 128 1137 97 1137 q 186 1125 158 1137 q 238 1101 214 1114 q 286 1077 263 1088 q 330 1066 309 1066 q 382 1084 360 1066 q 426 1143 404 1103 l 478 1123 "},"ă":{"x_min":43,"x_max":675.671875,"ha":680,"o":"m 273 98 q 300 101 286 98 q 331 112 314 104 q 368 133 348 119 q 414 169 388 148 l 414 319 q 346 306 374 312 q 301 293 319 300 q 270 278 282 286 q 250 262 259 271 q 222 224 233 244 q 212 175 212 204 q 218 137 212 152 q 234 113 224 122 q 254 101 243 104 q 273 98 265 98 m 675 75 q 616 38 647 56 q 559 7 586 21 q 509 -12 532 -5 q 475 -20 487 -20 q 433 8 450 -20 q 416 87 416 36 q 354 36 384 56 q 296 3 324 15 q 241 -14 267 -9 q 194 -20 215 -20 q 139 -10 166 -20 q 91 18 112 0 q 56 67 69 38 q 43 136 43 97 q 59 214 43 182 q 100 272 75 247 q 137 303 116 288 q 192 333 158 319 q 280 360 227 347 q 414 386 333 373 l 414 466 q 410 505 414 487 q 396 535 406 523 q 369 555 386 548 q 327 563 352 563 q 295 556 311 563 q 267 539 279 550 q 248 512 255 528 q 243 476 241 496 q 233 466 244 472 q 204 453 221 460 q 166 440 187 447 q 126 429 145 434 q 91 423 106 425 q 70 422 76 420 l 56 458 q 107 534 72 499 q 187 595 141 569 q 287 636 233 621 q 396 651 341 651 q 476 638 442 651 q 531 604 509 626 q 563 552 552 582 q 574 488 574 523 l 574 161 q 581 121 574 133 q 600 109 588 109 q 610 109 605 109 q 622 112 615 110 q 638 118 629 114 q 661 127 647 121 l 675 75 m 578 927 q 532 833 558 872 q 474 769 505 794 q 410 732 444 744 q 343 721 377 721 q 272 732 307 721 q 208 769 238 744 q 152 833 178 794 q 106 927 126 872 q 116 940 110 933 q 129 953 122 947 q 143 965 136 960 q 156 973 150 970 q 195 919 172 941 q 242 881 217 896 q 293 858 267 865 q 341 851 319 851 q 390 858 364 851 q 441 880 416 865 q 488 918 466 895 q 528 973 511 941 q 540 965 533 970 q 554 953 548 960 q 568 940 561 947 q 578 927 574 933 "},"*":{"x_min":37.21875,"x_max":566.25,"ha":603,"o":"m 332 827 l 477 952 q 496 937 483 947 q 523 917 509 928 q 548 895 537 905 q 566 880 560 885 l 560 842 l 366 770 l 544 705 q 542 680 544 697 q 538 646 540 664 q 532 613 535 629 q 527 590 529 598 l 492 577 l 335 710 l 368 522 q 346 511 361 518 q 316 498 332 505 q 285 486 299 492 q 263 480 270 481 l 233 503 l 269 710 l 125 585 q 106 600 118 590 q 79 621 93 610 q 53 642 65 632 q 37 657 41 652 l 42 695 l 236 767 l 57 832 q 60 857 58 840 q 64 891 62 873 q 70 924 67 908 q 75 947 73 939 l 109 960 l 267 826 l 233 1015 q 255 1026 241 1019 q 286 1039 270 1032 q 317 1051 303 1045 q 339 1058 332 1056 l 368 1034 l 332 827 "},"†":{"x_min":36.453125,"x_max":632.1875,"ha":669,"o":"m 632 753 q 616 720 627 742 q 593 673 606 698 q 568 626 581 649 q 547 591 555 604 q 505 614 525 604 q 463 631 484 624 q 420 644 442 639 q 372 649 397 649 q 384 554 372 602 q 418 461 397 506 q 382 318 394 385 q 370 185 370 250 q 377 106 370 145 q 402 25 384 66 q 381 12 396 20 q 346 -3 365 4 q 311 -17 328 -10 q 286 -27 294 -24 l 261 -8 q 275 40 269 14 q 286 90 282 65 q 293 140 291 115 q 296 185 296 164 q 283 319 296 252 q 246 461 271 386 q 280 555 267 506 q 293 650 293 604 q 174 630 231 644 q 58 591 116 616 l 36 625 q 51 659 41 637 q 75 705 62 680 q 100 752 87 729 q 120 787 112 774 q 162 765 142 775 q 202 747 182 755 q 245 735 223 740 q 293 731 268 731 q 278 829 293 784 q 236 922 263 874 q 271 942 249 930 q 317 966 293 954 q 362 988 341 978 q 395 1003 384 998 l 428 981 q 388 856 404 919 q 373 732 373 793 q 493 747 434 732 q 610 787 551 762 l 632 753 "},"°":{"x_min":76,"x_max":411,"ha":487,"o":"m 310 674 q 305 706 310 691 q 293 733 301 721 q 275 752 286 745 q 250 759 264 759 q 222 753 236 759 q 199 736 209 747 q 182 710 188 725 q 177 676 177 695 q 180 645 177 660 q 192 618 184 629 q 211 599 200 606 q 236 592 222 592 q 263 597 250 592 q 287 613 276 602 q 303 639 297 623 q 310 674 310 654 m 411 711 q 393 625 411 665 q 347 557 375 586 q 284 512 319 528 q 215 496 249 496 q 159 507 185 496 q 115 538 133 519 q 86 583 96 557 q 76 638 76 609 q 93 725 76 685 q 138 793 110 764 q 201 838 166 822 q 271 855 236 855 q 325 843 300 855 q 370 812 351 831 q 400 766 389 792 q 411 711 411 740 "},"å":{"x_min":43,"x_max":675.671875,"ha":680,"o":"m 273 98 q 300 101 286 98 q 331 112 314 104 q 368 133 348 119 q 414 169 388 148 l 414 319 q 346 306 374 312 q 301 293 319 300 q 270 278 282 286 q 250 262 259 271 q 222 224 233 244 q 212 175 212 204 q 218 137 212 152 q 234 113 224 122 q 254 101 243 104 q 273 98 265 98 m 675 75 q 616 38 647 56 q 559 7 586 21 q 509 -12 532 -5 q 475 -20 487 -20 q 433 8 450 -20 q 416 87 416 36 q 353 36 384 56 q 295 3 323 15 q 241 -14 267 -9 q 194 -20 215 -20 q 139 -10 166 -20 q 91 18 112 0 q 56 67 69 38 q 43 136 43 97 q 59 214 43 182 q 100 272 75 247 q 136 303 116 288 q 192 333 157 319 q 280 360 227 347 q 414 386 333 373 l 414 466 q 410 505 414 487 q 396 535 406 523 q 369 555 386 548 q 327 563 352 563 q 295 556 311 563 q 267 539 279 550 q 248 512 255 528 q 243 476 241 496 q 233 466 244 472 q 204 453 221 460 q 166 440 187 447 q 126 429 145 434 q 91 423 106 425 q 70 422 76 420 l 56 458 q 107 534 72 499 q 187 595 141 569 q 287 636 233 621 q 396 651 341 651 q 476 638 442 651 q 531 604 509 626 q 563 552 552 582 q 574 488 574 523 l 574 161 q 581 121 574 133 q 600 109 588 109 q 610 109 605 109 q 622 112 615 110 q 638 118 629 114 q 661 127 647 121 l 675 75 m 390 842 q 376 892 390 875 q 348 910 363 910 q 324 904 334 910 q 307 889 314 898 q 296 868 300 880 q 293 844 293 856 q 306 795 293 812 q 335 779 320 779 q 375 797 361 779 q 390 842 390 815 m 480 870 q 466 802 480 834 q 431 747 453 770 q 380 710 408 724 q 321 697 351 697 q 273 705 295 697 q 235 729 251 713 q 211 767 220 745 q 203 816 203 789 q 216 884 203 852 q 251 940 229 916 q 302 978 273 964 q 362 992 331 992 q 410 982 388 992 q 448 957 432 973 q 471 919 463 941 q 480 870 480 897 "},"0":{"x_min":41,"x_max":648,"ha":689,"o":"m 475 383 q 464 545 475 476 q 435 659 454 614 q 391 727 417 705 q 336 750 366 750 q 283 733 306 750 q 245 678 260 716 q 222 582 230 641 q 215 437 215 522 q 250 159 215 251 q 352 68 286 68 q 406 84 383 68 q 444 139 429 101 q 467 237 459 177 q 475 383 475 297 m 648 408 q 625 243 648 321 q 561 106 602 165 q 462 14 519 48 q 336 -20 405 -20 q 213 14 267 -20 q 120 106 158 48 q 61 243 81 165 q 41 408 41 321 q 62 574 41 496 q 124 710 84 652 q 222 803 165 769 q 352 838 280 838 q 477 804 422 838 q 570 711 533 770 q 628 575 608 653 q 648 408 648 496 "},"ō":{"x_min":43,"x_max":671,"ha":714,"o":"m 503 298 q 492 400 503 352 q 461 485 481 449 q 413 544 441 522 q 351 566 385 566 q 282 547 310 566 q 239 496 255 528 q 217 418 223 463 q 211 320 211 373 q 223 220 211 267 q 256 139 235 173 q 305 84 277 104 q 363 64 332 64 q 429 80 403 64 q 472 125 456 95 q 496 198 489 155 q 503 298 503 242 m 671 329 q 659 240 671 283 q 625 158 647 196 q 573 86 603 119 q 507 30 544 53 q 430 -6 471 6 q 344 -20 388 -20 q 220 4 276 -20 q 125 71 164 28 q 64 173 86 114 q 43 301 43 232 q 67 431 43 368 q 135 543 91 494 q 238 621 178 592 q 370 651 298 651 q 493 626 438 651 q 588 559 549 602 q 649 457 628 516 q 671 329 671 398 m 661 886 q 654 866 659 879 q 643 840 649 854 q 631 815 637 826 q 623 797 626 803 l 116 797 l 94 818 q 101 838 96 826 q 112 864 106 850 q 123 889 118 877 q 131 908 128 901 l 639 908 l 661 886 "},"”":{"x_min":48.328125,"x_max":621,"ha":674,"o":"m 302 844 q 289 769 302 807 q 254 695 276 730 q 203 630 232 660 q 142 578 174 599 l 98 612 q 138 687 122 645 q 154 773 154 729 q 129 835 154 811 q 58 859 104 859 l 48 910 q 65 923 52 915 q 97 939 78 931 q 136 955 115 947 q 176 969 157 963 q 211 979 196 975 q 235 981 227 982 q 285 922 269 955 q 302 844 302 889 m 621 844 q 608 769 621 807 q 573 695 595 730 q 522 630 551 660 q 461 578 493 599 l 418 612 q 458 687 442 645 q 474 773 474 729 q 449 835 474 811 q 379 859 424 859 l 368 910 q 385 923 372 915 q 416 939 398 931 q 455 955 434 947 q 496 969 476 963 q 531 979 515 975 q 555 981 547 982 q 605 922 589 955 q 621 844 621 889 "},"ŵ":{"x_min":9,"x_max":967,"ha":976,"o":"m 967 581 q 936 572 948 576 q 917 563 925 567 q 906 553 910 559 q 900 539 903 547 l 753 40 q 737 14 749 25 q 710 -2 725 4 q 680 -13 695 -9 q 658 -20 666 -17 l 488 376 l 353 40 q 336 14 348 24 q 310 -3 324 3 q 282 -14 296 -10 q 260 -20 268 -17 l 81 539 q 59 562 77 551 q 9 581 42 574 l 9 631 l 310 631 l 310 581 q 265 573 281 578 q 242 563 249 569 q 235 551 235 557 q 236 539 235 545 l 336 219 l 495 631 l 546 631 l 713 219 l 809 539 q 811 553 811 546 q 805 564 811 559 q 786 573 799 569 q 751 581 773 577 l 751 631 l 967 631 l 967 581 m 731 750 q 713 724 723 738 q 692 705 703 710 l 505 856 l 320 705 q 297 724 309 710 q 276 750 285 738 l 461 1013 l 552 1013 l 731 750 "},"ö":{"x_min":43,"x_max":671,"ha":714,"o":"m 503 298 q 492 400 503 352 q 461 485 481 449 q 413 544 441 522 q 351 566 385 566 q 282 547 310 566 q 239 496 255 528 q 217 418 223 463 q 211 320 211 373 q 223 220 211 267 q 256 139 235 173 q 305 84 277 104 q 363 64 332 64 q 429 80 403 64 q 472 125 456 95 q 496 198 489 155 q 503 298 503 242 m 671 329 q 659 240 671 283 q 625 158 647 196 q 573 86 603 119 q 507 30 544 53 q 430 -6 471 6 q 344 -20 388 -20 q 220 4 276 -20 q 125 71 164 28 q 64 173 86 114 q 43 301 43 232 q 67 431 43 368 q 135 543 91 494 q 238 621 178 592 q 370 651 298 651 q 493 626 438 651 q 588 559 549 602 q 649 457 628 516 q 671 329 671 398 m 603 859 q 594 813 603 834 q 572 775 586 791 q 538 749 557 758 q 498 740 519 740 q 439 761 459 740 q 420 822 420 782 q 428 869 420 847 q 451 907 437 891 q 484 932 465 923 q 523 942 503 942 q 582 921 561 942 q 603 859 603 901 m 322 859 q 313 813 322 834 q 291 775 305 791 q 258 749 277 758 q 218 740 239 740 q 159 761 179 740 q 139 822 139 782 q 147 869 139 847 q 170 907 156 891 q 203 932 184 923 q 242 942 222 942 q 301 921 280 942 q 322 859 322 901 "},"Õ":{"x_min":37,"x_max":796.484375,"ha":847,"o":"m 629 427 q 612 561 629 496 q 566 677 596 627 q 494 757 536 727 q 401 787 452 787 q 316 762 353 787 q 255 693 280 738 q 217 583 230 648 q 205 435 205 517 q 222 292 205 359 q 270 177 240 226 q 340 100 300 128 q 426 72 381 72 q 507 93 470 72 q 571 159 544 115 q 613 270 598 204 q 629 427 629 337 m 796 439 q 781 319 796 377 q 740 210 767 262 q 678 117 714 159 q 597 44 641 74 q 502 -3 552 13 q 397 -20 451 -20 q 246 15 314 -20 q 133 112 179 51 q 61 251 86 172 q 37 415 37 329 q 66 590 37 507 q 148 737 96 674 q 275 837 201 800 q 436 875 348 875 q 591 838 524 875 q 704 740 658 801 q 773 600 749 679 q 796 439 796 521 m 686 1124 q 656 1063 674 1096 q 617 1002 639 1030 q 568 954 595 973 q 511 935 541 935 q 456 946 482 935 q 406 970 430 957 q 357 994 381 983 q 308 1006 333 1006 q 280 1000 292 1006 q 257 986 268 995 q 235 961 246 976 q 212 928 224 947 l 163 947 q 192 1008 175 975 q 230 1070 209 1041 q 279 1118 252 1099 q 336 1138 306 1138 q 394 1126 367 1138 q 447 1102 422 1115 q 494 1078 472 1089 q 538 1067 517 1067 q 590 1085 568 1067 q 634 1144 612 1104 l 686 1124 "},"ć":{"x_min":43,"x_max":593.796875,"ha":620,"o":"m 593 129 q 513 49 550 79 q 444 4 477 20 q 380 -15 411 -11 q 319 -20 350 -20 q 215 2 265 -20 q 127 65 165 24 q 65 166 88 106 q 43 301 43 226 q 69 438 43 374 q 143 548 96 501 q 257 623 191 596 q 402 651 323 651 q 451 647 424 651 q 505 636 479 643 q 554 619 532 629 q 588 597 577 609 q 586 578 589 592 q 580 547 584 564 q 569 510 575 529 q 557 472 563 490 q 545 440 551 455 q 535 420 539 426 l 491 427 q 437 529 469 493 q 352 566 405 566 q 296 552 323 566 q 248 509 269 539 q 215 434 228 480 q 203 322 203 388 q 216 225 203 268 q 253 154 230 183 q 309 109 277 125 q 377 94 341 94 q 413 96 395 94 q 450 106 430 98 q 497 130 471 115 q 557 172 522 146 l 593 129 m 300 705 q 285 709 294 705 q 268 717 277 713 q 253 726 260 722 q 242 734 246 731 l 382 1025 q 412 1021 390 1024 q 458 1014 433 1018 q 504 1005 482 1010 q 533 999 526 1001 l 553 962 l 300 705 "},"þ":{"x_min":32,"x_max":718,"ha":761,"o":"m 568 291 q 555 399 568 353 q 521 476 542 445 q 474 521 501 506 q 418 536 447 536 q 394 533 406 536 q 365 522 381 530 q 329 499 349 514 q 279 460 308 484 l 279 155 q 338 122 312 134 q 385 102 364 109 q 424 94 406 96 q 459 92 441 92 q 505 106 484 92 q 540 147 526 121 q 561 210 554 174 q 568 291 568 247 m 718 344 q 706 255 718 299 q 676 170 695 211 q 630 95 656 129 q 576 34 604 60 q 516 -5 547 9 q 456 -20 485 -20 q 419 -16 438 -20 q 379 -4 400 -12 q 333 18 357 4 q 279 52 308 32 l 279 -233 q 304 -255 279 -244 q 392 -275 329 -266 l 392 -325 l 32 -325 l 32 -275 q 97 -254 75 -264 q 119 -233 119 -245 l 119 861 q 116 907 119 890 q 103 932 113 924 q 76 943 93 940 q 32 949 59 946 l 32 997 q 99 1007 69 1002 q 153 1020 128 1013 q 202 1034 179 1026 q 250 1051 225 1042 l 279 1023 l 279 540 q 348 595 316 573 q 407 629 380 616 q 456 646 434 641 q 498 651 479 651 q 583 631 543 651 q 653 572 623 611 q 700 476 683 534 q 718 344 718 419 "},"]":{"x_min":16.96875,"x_max":376,"ha":460,"o":"m 45 -227 l 18 -204 q 22 -184 19 -195 q 28 -162 25 -172 q 35 -142 32 -151 q 40 -129 38 -133 l 223 -129 l 223 987 l 45 987 l 16 1011 q 21 1028 18 1018 q 28 1049 24 1038 q 35 1069 31 1060 q 40 1085 38 1078 l 376 1085 l 376 -227 l 45 -227 "},"ĭ":{"x_min":-26.453125,"x_max":445.78125,"ha":409,"o":"m 42 0 l 42 49 q 108 70 87 59 q 129 90 129 81 l 129 439 q 129 495 129 474 q 121 528 129 516 q 95 545 113 540 q 42 554 77 551 l 42 602 q 150 622 99 610 q 246 651 201 634 l 289 651 l 289 90 q 309 70 289 82 q 378 49 329 59 l 378 0 l 42 0 m 445 927 q 399 833 425 872 q 342 769 372 794 q 278 732 311 744 q 211 721 244 721 q 140 732 174 721 q 75 769 105 744 q 19 833 45 794 q -26 927 -6 872 q -16 940 -22 933 q -2 953 -9 947 q 11 965 4 960 q 23 973 18 970 q 62 919 40 941 q 110 881 85 896 q 160 858 135 865 q 208 851 186 851 q 257 858 231 851 q 308 880 283 865 q 356 918 333 895 q 395 973 378 941 q 408 965 401 970 q 422 953 415 960 q 435 940 429 947 q 445 927 441 933 "},"8":{"x_min":52,"x_max":636,"ha":689,"o":"m 238 644 q 249 599 238 618 q 280 564 260 579 q 325 535 299 548 q 380 510 351 522 q 438 636 438 571 q 428 695 438 671 q 404 733 419 718 q 370 753 389 747 q 329 759 350 759 q 290 749 307 759 q 261 724 273 740 q 243 688 249 708 q 238 644 238 667 m 465 209 q 452 277 465 248 q 418 328 439 306 q 368 365 396 349 q 309 395 340 381 q 271 353 288 374 q 244 311 255 332 q 228 265 233 289 q 223 213 223 241 q 233 150 223 178 q 262 102 244 122 q 303 73 280 83 q 351 63 327 63 q 400 74 379 63 q 436 106 421 86 q 457 153 450 126 q 465 209 465 179 m 636 238 q 612 139 636 186 q 547 56 588 92 q 449 0 505 21 q 329 -20 393 -20 q 209 -2 261 -20 q 122 45 157 15 q 69 113 87 74 q 52 193 52 151 q 65 261 52 228 q 102 324 78 295 q 160 381 126 354 q 234 428 193 407 q 177 459 203 442 q 130 497 150 475 q 97 550 109 520 q 86 620 86 580 q 106 707 86 667 q 164 776 127 747 q 248 821 200 805 q 352 838 297 838 q 462 824 416 838 q 540 787 509 810 q 586 730 571 763 q 602 657 602 696 q 591 606 602 630 q 560 559 580 582 q 515 516 541 537 q 458 475 489 495 q 525 438 493 459 q 582 390 557 418 q 621 325 606 362 q 636 238 636 288 "},"꞊":{"x_min":29.90625,"x_max":445.28125,"ha":475,"o":"m 445 246 q 439 229 443 239 q 432 208 436 219 q 426 187 429 197 l 420 171 l 51 171 l 29 193 l 34 210 q 41 231 37 220 q 48 252 45 242 q 55 269 52 262 l 424 269 l 445 246 m 445 432 q 439 415 443 425 q 432 394 436 405 q 426 373 429 383 q 420 358 422 364 l 51 358 l 29 379 l 34 396 q 41 417 37 406 q 48 438 45 428 q 55 455 52 448 l 424 455 l 445 432 "},"R":{"x_min":20.359375,"x_max":827.375,"ha":824,"o":"m 29 0 l 29 49 q 97 70 74 59 q 120 91 120 81 l 120 784 q 73 777 96 781 q 29 771 50 774 l 20 834 q 173 862 90 849 q 352 875 256 875 q 506 859 442 875 q 609 816 569 843 q 668 750 649 788 q 686 669 686 712 q 672 583 686 622 q 634 513 659 544 q 576 458 610 481 q 501 420 542 434 l 710 125 q 730 101 721 110 q 751 88 740 92 q 779 84 763 84 q 817 85 794 84 l 827 35 q 778 20 805 28 q 724 5 750 12 q 674 -4 697 0 q 638 -9 651 -9 q 601 1 619 -9 q 573 28 582 12 l 382 397 q 369 397 376 397 l 356 397 q 322 398 339 397 q 286 404 304 400 l 286 91 q 307 71 286 83 q 378 49 329 59 l 378 0 l 29 0 m 322 802 q 304 802 313 802 q 286 802 295 802 l 286 479 q 317 475 303 475 q 345 475 330 475 q 477 520 435 475 q 519 648 519 566 q 509 707 519 679 q 478 756 500 735 q 417 789 455 777 q 322 802 379 802 "},"Ż":{"x_min":34.46875,"x_max":690,"ha":742,"o":"m 690 239 q 690 184 690 217 q 690 117 690 151 q 690 51 690 83 q 690 0 690 19 l 58 0 l 34 35 l 481 766 l 221 766 q 198 754 211 766 q 171 721 184 742 q 147 671 158 700 q 128 607 135 642 l 70 620 l 94 865 q 127 858 112 861 q 157 855 142 855 q 186 855 171 855 l 665 855 l 687 820 l 243 88 l 546 88 q 571 98 560 88 q 593 129 582 108 q 614 181 603 150 q 637 254 624 212 l 690 239 m 476 1049 q 467 1003 476 1024 q 445 965 459 981 q 412 939 431 948 q 372 930 393 930 q 313 951 333 930 q 293 1012 293 972 q 301 1059 293 1037 q 324 1097 310 1081 q 357 1122 338 1113 q 397 1132 376 1132 q 455 1111 434 1132 q 476 1049 476 1091 "},"o":{"x_min":43,"x_max":671,"ha":714,"o":"m 503 298 q 492 400 503 352 q 461 485 481 449 q 413 544 441 522 q 351 566 385 566 q 282 547 310 566 q 239 496 255 528 q 217 418 223 463 q 211 320 211 373 q 223 220 211 267 q 256 139 235 173 q 305 84 277 104 q 363 64 332 64 q 429 80 403 64 q 472 125 456 95 q 496 198 489 155 q 503 298 503 242 m 671 329 q 659 240 671 283 q 625 158 647 196 q 573 86 603 119 q 507 30 544 53 q 430 -6 471 6 q 344 -20 388 -20 q 220 4 276 -20 q 125 71 164 28 q 64 173 86 114 q 43 301 43 232 q 67 431 43 368 q 135 543 91 494 q 238 621 178 592 q 370 651 298 651 q 493 626 438 651 q 588 559 549 602 q 649 457 628 516 q 671 329 671 398 "},"5":{"x_min":51.953125,"x_max":610,"ha":688,"o":"m 610 278 q 592 165 610 219 q 538 70 574 111 q 445 4 501 28 q 312 -20 389 -20 q 247 -13 281 -20 q 180 7 213 -6 q 113 40 146 20 q 51 88 80 61 l 85 149 q 150 108 120 124 q 207 83 181 93 q 256 71 233 74 q 297 68 278 68 q 358 81 330 68 q 406 119 386 95 q 437 177 426 144 q 449 249 449 210 q 437 331 449 295 q 404 390 425 366 q 353 427 383 414 q 287 440 324 440 q 196 423 234 440 q 122 380 157 407 l 91 402 q 100 461 95 427 q 111 532 105 495 q 123 611 117 570 q 133 689 128 651 q 141 760 138 727 q 145 817 145 793 l 494 817 q 528 818 513 817 q 553 823 543 820 q 574 829 565 825 l 599 804 q 580 777 592 794 q 555 744 568 760 q 529 713 541 727 q 509 694 517 700 l 222 694 q 219 649 222 674 q 212 598 216 623 q 204 550 208 573 q 197 512 200 527 q 263 532 227 525 q 342 540 300 540 q 459 517 409 540 q 543 459 509 495 q 593 375 576 422 q 610 278 610 328 "},"õ":{"x_min":43,"x_max":671,"ha":714,"o":"m 503 298 q 492 400 503 352 q 461 485 481 449 q 413 544 441 522 q 351 566 385 566 q 282 547 310 566 q 239 496 255 528 q 217 418 223 463 q 211 320 211 373 q 223 220 211 267 q 256 139 235 173 q 305 84 277 104 q 363 64 332 64 q 429 80 403 64 q 472 125 456 95 q 496 198 489 155 q 503 298 503 242 m 671 329 q 659 240 671 283 q 625 158 647 196 q 573 86 603 119 q 507 30 544 53 q 430 -6 471 6 q 344 -20 388 -20 q 220 4 276 -20 q 125 71 164 28 q 64 173 86 114 q 43 301 43 232 q 67 431 43 368 q 135 543 91 494 q 238 621 178 592 q 370 651 298 651 q 493 626 438 651 q 588 559 549 602 q 649 457 628 516 q 671 329 671 398 m 633 934 q 603 873 621 906 q 564 812 586 840 q 515 764 542 783 q 458 745 488 745 q 403 756 429 745 q 353 780 377 767 q 304 804 328 793 q 254 816 280 816 q 227 810 239 816 q 204 796 215 805 q 182 771 193 786 q 159 738 171 757 l 110 757 q 138 818 122 785 q 177 880 155 851 q 226 928 199 909 q 283 948 252 948 q 341 936 314 948 q 394 912 369 925 q 441 888 419 899 q 485 877 464 877 q 537 895 515 877 q 581 954 559 914 l 633 934 "},",":{"x_min":58.3125,"x_max":319,"ha":367,"o":"m 319 47 q 303 -30 319 11 q 262 -114 288 -73 q 200 -193 235 -156 q 125 -257 165 -231 l 80 -223 q 138 -132 117 -179 q 160 -26 160 -84 q 153 3 160 -11 q 135 29 147 18 q 107 46 124 40 q 68 53 90 53 l 58 104 q 74 117 62 110 q 105 132 87 125 q 145 148 124 140 q 187 162 166 156 q 225 172 207 169 q 255 176 243 176 q 303 130 287 160 q 319 47 319 101 "},"d":{"x_min":43,"x_max":758.015625,"ha":763,"o":"m 758 76 q 696 38 727 55 q 638 7 665 20 q 590 -13 611 -6 q 560 -21 570 -21 q 499 97 512 -21 q 443 43 469 65 q 393 6 417 21 q 342 -14 368 -7 q 286 -20 316 -20 q 198 1 241 -20 q 120 64 154 23 q 64 165 85 106 q 43 300 43 225 q 66 432 43 368 q 133 544 90 495 q 235 621 175 592 q 366 651 294 651 q 428 643 397 651 q 493 610 459 636 l 493 843 q 493 903 493 881 q 485 937 493 925 q 458 953 476 949 q 403 958 439 958 l 403 1006 q 535 1026 477 1013 q 629 1050 594 1038 l 655 1025 l 655 202 q 655 162 655 178 q 656 135 655 145 q 661 120 658 125 q 669 112 665 114 q 678 109 673 110 q 690 109 682 108 q 709 114 698 110 q 739 126 721 118 l 758 76 m 495 181 l 495 478 q 435 539 471 517 q 355 561 400 561 q 294 548 322 561 q 246 507 266 535 q 214 438 226 480 q 203 337 203 396 q 216 240 203 282 q 250 168 229 198 q 299 123 272 139 q 353 108 326 108 q 423 126 390 108 q 495 181 455 145 "},"Ꞌ":{"x_min":85.0625,"x_max":287.109375,"ha":385,"o":"m 231 472 q 215 466 225 469 q 192 462 204 464 q 167 459 179 460 q 147 458 155 458 l 85 1013 q 103 1021 89 1016 q 133 1032 116 1026 q 169 1044 150 1038 q 205 1056 188 1051 q 234 1066 221 1062 q 251 1071 247 1070 l 287 1050 l 231 472 "},"\"":{"x_min":91.71875,"x_max":546.96875,"ha":638,"o":"m 230 565 q 214 559 225 562 q 191 555 204 557 q 166 552 178 553 q 146 551 154 551 l 91 946 q 108 954 96 949 q 136 965 120 959 q 168 977 151 971 q 201 989 186 983 q 228 998 217 994 q 245 1003 240 1001 l 279 984 l 230 565 m 498 565 q 482 559 493 562 q 459 555 471 557 q 434 552 446 553 q 414 551 422 551 l 359 946 q 389 959 366 950 q 436 977 411 968 q 483 994 461 987 q 513 1003 505 1001 l 546 984 l 498 565 "},"˙":{"x_min":42,"x_max":225,"ha":266,"o":"m 225 859 q 216 813 225 834 q 194 775 208 791 q 160 749 179 758 q 120 740 141 740 q 61 761 81 740 q 42 822 42 782 q 50 869 42 847 q 73 907 59 891 q 106 932 87 923 q 145 942 125 942 q 204 921 183 942 q 225 859 225 901 "},"ê":{"x_min":43,"x_max":615,"ha":658,"o":"m 338 570 q 285 557 307 570 q 246 522 262 545 q 222 467 231 499 q 209 394 213 434 l 430 394 q 451 399 446 394 q 456 418 456 404 q 450 464 456 438 q 431 514 445 490 q 395 553 418 537 q 338 570 372 570 m 615 373 q 597 358 609 366 q 573 343 586 350 q 546 328 559 335 q 521 318 532 322 l 208 318 q 219 228 208 269 q 252 157 231 187 q 304 110 273 127 q 373 94 334 94 q 414 96 394 94 q 456 107 433 98 q 508 132 479 116 q 576 176 537 148 q 586 167 580 174 q 596 154 591 161 q 605 141 601 147 q 611 132 609 135 q 528 55 565 85 q 458 8 492 25 q 391 -13 425 -7 q 318 -20 358 -20 q 212 3 262 -20 q 124 68 161 26 q 64 169 86 110 q 43 299 43 228 q 77 464 43 392 q 179 587 111 536 q 218 612 197 600 q 263 632 240 623 q 312 645 287 640 q 363 651 337 651 q 475 628 428 651 q 554 566 523 605 q 600 478 585 528 q 615 373 615 428 m 581 750 q 563 724 573 737 q 542 705 553 710 l 355 856 l 170 705 q 147 724 158 710 q 125 750 135 737 l 311 1013 l 402 1013 l 581 750 "},"„":{"x_min":48.328125,"x_max":621,"ha":678,"o":"m 302 24 q 289 -51 302 -13 q 254 -125 276 -89 q 203 -190 232 -160 q 142 -241 174 -220 l 98 -207 q 138 -133 122 -175 q 154 -46 154 -90 q 129 14 154 -9 q 58 39 104 39 l 48 90 q 65 103 52 95 q 97 119 78 110 q 136 135 115 127 q 176 149 157 143 q 211 159 196 155 q 235 161 227 162 q 285 102 269 135 q 302 24 302 68 m 621 24 q 608 -51 621 -13 q 573 -125 595 -89 q 522 -190 551 -160 q 461 -241 493 -220 l 418 -207 q 458 -133 442 -175 q 474 -46 474 -90 q 449 14 474 -9 q 379 39 424 39 l 368 90 q 385 103 372 95 q 416 119 398 110 q 455 135 434 127 q 496 149 476 143 q 531 159 515 155 q 555 161 547 162 q 605 102 589 135 q 621 24 621 68 "},"Â":{"x_min":0,"x_max":841,"ha":855,"o":"m 496 373 l 386 688 l 286 373 l 496 373 m 260 292 l 196 95 q 212 65 189 74 q 290 49 235 55 l 290 0 l 0 0 l 0 49 q 69 66 45 57 q 100 95 93 75 l 331 818 q 366 843 347 832 q 404 864 384 855 q 443 880 423 873 q 479 893 462 887 l 758 95 q 767 78 761 86 q 781 65 772 71 q 805 56 791 60 q 841 49 819 52 l 841 0 l 511 0 l 511 51 q 581 61 562 51 q 592 95 599 72 l 524 292 l 260 292 m 645 962 q 627 938 637 950 q 606 922 617 927 l 419 1032 l 234 922 q 213 938 222 927 q 194 962 203 950 l 379 1182 l 461 1182 l 645 962 "},"ė":{"x_min":43,"x_max":615,"ha":658,"o":"m 338 570 q 285 557 307 570 q 246 522 262 545 q 222 467 231 499 q 209 394 213 434 l 430 394 q 451 399 446 394 q 456 418 456 404 q 450 464 456 438 q 431 514 445 490 q 395 553 418 537 q 338 570 372 570 m 615 373 q 597 358 609 366 q 573 343 586 350 q 546 328 559 335 q 521 318 532 322 l 208 318 q 219 228 208 269 q 252 157 231 187 q 304 110 273 127 q 373 94 334 94 q 414 96 394 94 q 456 107 433 98 q 508 132 479 116 q 576 176 537 148 q 586 167 580 174 q 596 154 591 161 q 605 141 601 147 q 611 132 609 135 q 528 55 565 85 q 458 8 492 25 q 391 -13 425 -7 q 318 -20 358 -20 q 212 3 262 -20 q 124 68 161 26 q 64 169 86 110 q 43 299 43 228 q 77 464 43 392 q 179 587 111 536 q 218 612 197 600 q 263 632 240 623 q 312 645 287 640 q 363 651 337 651 q 475 628 428 651 q 554 566 523 605 q 600 478 585 528 q 615 373 615 428 m 447 859 q 438 813 447 834 q 416 775 430 791 q 383 749 402 758 q 343 740 364 740 q 284 761 304 740 q 264 822 264 782 q 272 869 264 847 q 295 907 281 891 q 328 932 309 923 q 368 942 347 942 q 426 921 405 942 q 447 859 447 901 "},"Í":{"x_min":42,"x_max":450.15625,"ha":446,"o":"m 42 0 l 42 49 q 110 70 87 58 q 133 90 133 81 l 133 762 q 111 782 133 770 q 42 804 89 795 l 42 854 l 391 854 l 391 804 q 322 783 345 795 q 299 762 299 771 l 299 90 q 321 70 299 82 q 391 49 343 58 l 391 0 l 42 0 m 128 921 q 104 940 117 927 q 83 967 92 954 l 325 1197 q 359 1178 340 1189 q 395 1156 378 1167 q 425 1136 412 1146 q 444 1121 438 1127 l 450 1086 l 128 921 "},"´":{"x_min":134.25,"x_max":446.609375,"ha":434,"o":"m 192 705 q 177 709 186 705 q 160 717 169 713 q 145 726 152 722 q 134 734 138 731 l 275 1025 q 304 1021 283 1024 q 350 1013 326 1017 q 397 1005 375 1009 q 426 999 418 1001 l 446 962 l 192 705 "},"Ú":{"x_min":29,"x_max":873,"ha":910,"o":"m 873 805 q 804 784 827 795 q 781 763 781 772 l 781 355 q 756 196 781 266 q 688 78 732 127 q 584 5 644 30 q 452 -20 524 -20 q 323 0 384 -20 q 218 58 263 18 q 146 158 172 97 q 120 301 120 218 l 120 763 q 98 783 120 771 q 29 805 76 795 l 29 855 l 378 855 l 378 805 q 309 784 332 795 q 286 763 286 772 l 286 345 q 297 230 286 280 q 333 146 308 180 q 397 95 357 112 q 494 78 436 78 q 573 99 541 78 q 626 157 606 121 q 656 240 647 193 q 665 337 665 287 l 665 763 q 643 783 665 771 q 574 805 621 795 l 574 855 l 873 855 l 873 805 m 372 922 q 349 941 361 928 q 327 968 336 955 l 570 1198 q 603 1179 585 1190 q 639 1157 622 1168 q 669 1137 656 1147 q 688 1122 682 1128 l 694 1087 l 372 922 "},"Ŷ":{"x_min":1.65625,"x_max":812,"ha":835,"o":"m 230 0 l 230 49 q 280 62 259 55 q 312 75 300 69 q 329 87 324 82 q 334 98 334 93 l 334 358 q 280 470 310 413 q 219 582 250 528 q 159 682 189 636 q 107 760 130 728 q 94 774 101 767 q 76 784 88 780 q 48 790 65 788 q 1 793 30 793 l 1 841 q 45 848 20 844 q 94 854 70 851 q 140 858 119 856 q 176 861 162 861 q 213 852 194 861 q 243 829 232 844 q 294 752 267 796 q 349 660 321 709 q 402 560 376 611 q 452 460 428 509 l 608 760 q 602 788 618 778 q 534 805 585 798 l 534 854 l 812 854 l 812 805 q 745 786 766 796 q 713 760 723 777 l 500 354 l 500 98 q 504 88 500 94 q 521 75 509 82 q 553 62 533 69 q 606 49 574 55 l 606 0 l 230 0 m 642 962 q 624 938 634 949 q 603 921 615 927 l 416 1032 l 231 921 q 210 938 220 927 q 191 962 200 949 l 376 1182 l 457 1182 l 642 962 "},"ŝ":{"x_min":51,"x_max":519,"ha":570,"o":"m 519 192 q 504 109 519 144 q 467 51 490 75 q 416 13 444 28 q 357 -7 387 0 q 301 -17 328 -15 q 255 -20 274 -20 q 209 -16 234 -20 q 158 -7 184 -13 q 106 7 132 -1 q 59 29 81 17 q 52 53 54 31 q 51 105 51 75 q 54 169 51 136 q 63 227 57 202 l 117 220 q 139 155 124 184 q 176 105 154 126 q 223 74 197 85 q 278 63 250 63 q 349 80 326 63 q 373 139 373 98 q 359 187 373 166 q 323 227 345 209 q 271 262 300 246 q 212 294 243 278 q 157 325 184 308 q 107 364 129 343 q 71 411 85 385 q 58 469 58 437 q 78 545 58 512 q 131 602 98 579 q 207 638 164 625 q 295 651 249 651 q 352 647 323 651 q 408 636 381 643 q 457 620 434 630 q 495 598 479 611 q 496 576 499 595 q 488 532 494 556 q 473 485 481 508 q 456 451 464 462 l 410 457 q 362 548 394 516 q 287 580 331 580 q 225 561 247 580 q 204 514 204 542 q 214 475 204 492 q 244 443 225 458 q 292 413 264 428 q 356 379 321 398 q 414 347 384 364 q 466 308 443 330 q 504 258 489 286 q 519 192 519 230 m 509 750 q 492 724 501 737 q 471 705 482 710 l 284 856 l 99 705 q 75 724 87 710 q 54 750 64 737 l 239 1013 l 331 1013 l 509 750 "},"Ý":{"x_min":1.65625,"x_max":812,"ha":835,"o":"m 230 0 l 230 49 q 280 62 259 55 q 312 75 300 69 q 329 87 324 82 q 334 98 334 93 l 334 358 q 280 470 310 413 q 219 582 250 528 q 159 682 189 636 q 107 760 130 728 q 94 774 101 767 q 76 784 88 780 q 48 790 65 788 q 1 793 30 793 l 1 841 q 45 848 20 844 q 94 854 70 851 q 140 858 119 856 q 176 861 162 861 q 213 852 194 861 q 243 829 232 844 q 294 752 267 796 q 349 660 321 709 q 402 560 376 611 q 452 460 428 509 l 608 760 q 602 788 618 778 q 534 805 585 798 l 534 854 l 812 854 l 812 805 q 745 786 766 796 q 713 760 723 777 l 500 354 l 500 98 q 504 88 500 94 q 521 75 509 82 q 553 62 533 69 q 606 49 574 55 l 606 0 l 230 0 m 329 922 q 305 941 318 927 q 284 967 293 954 l 526 1198 q 560 1178 542 1189 q 596 1156 579 1167 q 627 1136 613 1146 q 645 1122 640 1127 l 651 1086 l 329 922 "},"Ĉ":{"x_min":37,"x_max":712.09375,"ha":760,"o":"m 712 143 q 628 68 669 99 q 546 17 587 36 q 466 -11 506 -2 q 389 -20 427 -20 q 259 8 322 -20 q 146 90 195 36 q 66 221 96 143 q 37 397 37 299 q 69 593 37 505 q 159 744 102 681 q 293 841 216 807 q 459 875 370 875 q 530 869 495 875 q 597 854 565 864 q 655 833 629 845 q 699 806 682 821 q 699 794 702 804 q 690 770 696 784 q 675 739 684 755 q 658 707 667 722 q 642 680 650 692 q 629 662 635 667 l 586 671 q 509 758 552 731 q 413 785 465 785 q 366 777 391 785 q 319 753 342 770 q 275 708 296 736 q 238 641 254 681 q 213 547 222 601 q 205 422 205 493 q 227 273 205 335 q 285 170 249 211 q 364 111 320 130 q 452 92 409 92 q 495 96 470 92 q 548 111 519 100 q 609 141 577 122 q 677 189 642 159 q 686 180 680 186 q 696 165 691 173 q 705 151 701 158 q 712 143 710 145 m 648 963 q 630 939 640 950 q 609 922 621 927 l 422 1033 l 237 922 q 216 939 226 927 q 197 963 207 950 l 383 1182 l 464 1182 l 648 963 "},"Ö":{"x_min":37,"x_max":796.484375,"ha":847,"o":"m 629 427 q 612 561 629 496 q 566 677 596 627 q 494 757 536 727 q 401 787 452 787 q 316 762 353 787 q 255 693 280 738 q 217 583 230 648 q 205 435 205 517 q 222 292 205 359 q 270 177 240 226 q 340 100 300 128 q 426 72 381 72 q 507 93 470 72 q 571 159 544 115 q 613 270 598 204 q 629 427 629 337 m 796 439 q 781 319 796 377 q 740 210 767 262 q 678 117 714 159 q 597 44 641 74 q 502 -3 552 13 q 397 -20 451 -20 q 246 15 314 -20 q 133 112 179 51 q 61 251 86 172 q 37 415 37 329 q 66 590 37 507 q 148 737 96 674 q 275 837 201 800 q 436 875 348 875 q 591 838 524 875 q 704 740 658 801 q 773 600 749 679 q 796 439 796 521 m 657 1049 q 648 1003 657 1024 q 626 965 640 981 q 592 939 611 948 q 552 930 573 930 q 493 951 513 930 q 474 1012 474 972 q 482 1059 474 1037 q 505 1097 491 1081 q 538 1122 519 1113 q 577 1132 557 1132 q 636 1111 615 1132 q 657 1049 657 1091 m 375 1049 q 366 1003 375 1024 q 344 965 358 981 q 311 939 330 948 q 271 930 292 930 q 212 951 232 930 q 192 1012 192 972 q 200 1059 192 1037 q 223 1097 209 1081 q 256 1122 237 1113 q 295 1132 275 1132 q 354 1111 333 1132 q 375 1049 375 1091 "},"z":{"x_min":40.140625,"x_max":593.96875,"ha":637,"o":"m 582 224 q 582 189 582 209 q 582 147 582 169 q 582 102 582 125 q 582 59 582 79 q 582 23 582 39 q 577 0 582 8 l 57 0 l 40 30 l 391 549 l 218 549 q 164 515 189 549 q 121 406 138 481 l 82 420 l 82 641 q 117 634 105 637 q 142 631 129 631 q 170 631 155 631 l 579 631 l 593 601 l 241 81 l 469 81 q 490 91 481 81 q 506 122 499 102 q 521 170 514 142 q 538 235 529 199 l 582 224 "},"Ř":{"x_min":20.359375,"x_max":827.375,"ha":824,"o":"m 29 0 l 29 49 q 97 70 74 59 q 120 91 120 81 l 120 784 q 73 777 96 781 q 29 771 50 774 l 20 834 q 173 862 90 849 q 352 875 256 875 q 506 859 442 875 q 609 816 569 843 q 668 750 649 788 q 686 669 686 712 q 672 583 686 622 q 634 513 659 544 q 576 458 610 481 q 501 420 542 434 l 710 125 q 730 101 721 110 q 751 88 740 92 q 779 84 763 84 q 817 85 794 84 l 827 35 q 778 20 805 28 q 724 5 750 12 q 674 -4 697 0 q 638 -9 651 -9 q 601 1 619 -9 q 573 28 582 12 l 382 397 q 369 397 376 397 l 356 397 q 322 398 339 397 q 286 404 304 400 l 286 91 q 307 71 286 83 q 378 49 329 59 l 378 0 l 29 0 m 322 802 q 304 802 313 802 q 286 802 295 802 l 286 479 q 317 475 303 475 q 345 475 330 475 q 477 520 435 475 q 519 648 519 566 q 509 707 519 679 q 478 756 500 735 q 417 789 455 777 q 322 802 379 802 m 417 939 l 326 939 l 145 1162 q 164 1186 155 1175 q 185 1204 174 1198 l 374 1076 l 558 1204 q 579 1186 569 1198 q 596 1162 588 1175 l 417 939 "},"ã":{"x_min":43,"x_max":675.671875,"ha":680,"o":"m 273 98 q 300 101 286 98 q 331 112 314 104 q 368 133 348 119 q 414 169 388 148 l 414 319 q 346 306 374 312 q 301 293 319 300 q 270 278 282 286 q 250 262 259 271 q 222 224 233 244 q 212 175 212 204 q 218 137 212 152 q 234 113 224 122 q 254 101 243 104 q 273 98 265 98 m 675 75 q 616 38 647 56 q 559 7 586 20 q 509 -13 532 -5 q 475 -20 487 -20 q 433 7 450 -20 q 416 87 416 36 q 354 36 384 56 q 296 3 324 15 q 241 -14 267 -9 q 194 -20 215 -20 q 139 -10 166 -20 q 91 18 112 0 q 56 67 69 38 q 43 136 43 97 q 59 214 43 182 q 100 272 75 247 q 137 303 116 288 q 192 333 158 319 q 280 360 227 347 q 414 386 333 373 l 414 466 q 410 505 414 487 q 396 535 406 523 q 369 555 386 548 q 327 563 352 563 q 295 556 311 563 q 267 539 279 550 q 248 512 255 528 q 243 476 241 496 q 233 466 244 472 q 204 453 221 460 q 166 440 187 447 q 126 429 145 434 q 91 423 106 425 q 70 422 76 420 l 56 458 q 107 534 72 499 q 187 595 141 569 q 287 636 233 621 q 396 651 341 651 q 476 638 442 651 q 531 604 509 626 q 563 552 552 582 q 574 488 574 523 l 574 161 q 581 121 574 133 q 600 109 588 109 q 610 109 605 109 q 622 112 615 110 q 638 118 629 114 q 661 127 647 121 l 675 75 m 604 934 q 575 873 592 906 q 535 811 557 840 q 487 763 514 782 q 429 744 460 744 q 374 755 400 744 q 324 780 348 766 q 275 804 299 793 q 225 816 251 816 q 198 810 210 816 q 175 795 186 805 q 153 771 164 785 q 130 737 142 756 l 80 756 q 109 817 92 784 q 148 880 126 851 q 197 928 170 909 q 254 948 223 948 q 312 936 285 948 q 365 912 340 925 q 412 887 390 898 q 456 876 435 876 q 508 895 486 876 q 553 954 530 914 l 604 934 "},"Ň":{"x_min":29,"x_max":876,"ha":903,"o":"m 29 0 l 29 49 q 98 68 77 55 q 120 90 120 81 l 120 755 q 29 804 76 796 l 29 854 l 214 854 q 230 852 224 854 q 243 845 237 850 q 257 829 250 839 q 278 801 265 818 l 685 226 l 685 762 q 680 772 685 766 q 666 783 676 778 q 638 795 655 789 q 594 804 620 800 l 594 854 l 876 854 l 876 804 q 806 784 828 797 q 785 762 785 771 l 785 -20 q 682 5 721 -14 q 625 50 643 25 l 220 623 l 220 90 q 224 80 220 86 q 240 69 229 75 q 268 58 251 63 q 311 49 285 52 l 311 0 l 29 0 m 498 939 l 406 939 l 226 1162 q 245 1186 235 1175 q 266 1204 254 1198 l 454 1076 l 638 1204 q 659 1186 649 1198 q 677 1162 669 1175 l 498 939 "},"æ":{"x_min":43,"x_max":954,"ha":997,"o":"m 954 373 q 936 358 947 366 q 913 342 926 350 q 888 327 901 334 q 865 317 875 321 l 570 317 q 570 308 570 314 l 570 299 q 579 231 570 267 q 609 165 589 196 q 658 115 629 135 q 725 95 687 95 q 766 98 746 95 q 809 111 787 102 q 857 136 831 120 q 914 176 882 152 q 923 167 918 174 q 934 154 929 161 q 943 141 939 147 q 948 132 947 135 q 875 58 908 88 q 809 11 841 28 q 742 -12 776 -5 q 668 -20 709 -20 q 609 -10 639 -20 q 550 17 578 0 q 495 62 521 36 q 452 123 470 88 q 389 57 422 84 q 323 13 356 30 q 258 -11 291 -3 q 194 -20 225 -20 q 144 -11 170 -20 q 94 14 117 -3 q 57 63 72 33 q 43 136 43 93 q 57 213 43 176 q 104 280 72 249 q 185 336 135 312 q 302 378 234 361 q 353 386 320 383 q 419 390 385 390 l 419 443 q 399 534 419 505 q 335 563 378 563 q 299 556 318 563 q 265 537 280 549 q 242 507 250 525 q 240 469 234 490 q 230 458 241 464 q 203 445 220 452 q 165 433 186 439 q 125 422 144 427 q 91 416 106 418 q 70 415 76 414 l 56 450 q 93 514 70 485 q 146 565 117 543 q 209 603 176 588 q 275 630 242 619 q 338 645 307 640 q 390 651 368 651 q 477 634 440 651 q 536 580 514 617 q 581 613 558 600 q 628 635 605 627 q 674 647 652 643 q 717 651 697 651 q 820 627 775 651 q 894 565 864 604 q 939 476 924 526 q 954 373 954 426 m 428 179 q 422 212 424 195 q 420 247 420 229 l 420 312 q 376 312 396 312 q 349 309 356 312 q 279 285 307 299 q 236 253 252 270 q 213 215 220 235 q 207 176 207 196 q 213 140 207 155 q 229 116 219 125 q 251 103 239 107 q 273 99 262 99 q 306 103 288 99 q 344 116 324 107 q 385 141 364 126 q 428 179 406 156 m 697 573 q 664 567 682 573 q 627 542 645 561 q 596 488 610 523 q 575 394 581 452 l 778 394 q 798 399 792 394 q 804 418 804 404 q 796 482 804 454 q 774 531 788 511 q 741 562 760 551 q 697 573 721 573 "},"ĩ":{"x_min":-51.71875,"x_max":471.703125,"ha":409,"o":"m 42 0 l 42 49 q 108 70 87 59 q 129 90 129 81 l 129 439 q 129 495 129 474 q 121 528 129 516 q 95 545 113 540 q 42 554 77 551 l 42 602 q 150 622 99 610 q 246 651 201 634 l 289 651 l 289 90 q 309 70 289 82 q 378 49 329 59 l 378 0 l 42 0 m 471 934 q 442 873 459 906 q 403 811 425 840 q 354 763 381 782 q 296 744 327 744 q 241 755 267 744 q 191 780 215 766 q 142 804 166 793 q 93 816 118 816 q 65 810 77 816 q 42 795 53 805 q 21 771 32 785 q -1 737 10 756 l -51 756 q -22 817 -39 784 q 16 880 -5 851 q 64 928 37 909 q 121 948 91 948 q 179 936 152 948 q 232 912 207 925 q 279 887 257 898 q 323 876 302 876 q 375 895 353 876 q 420 954 397 914 l 471 934 "},"É":{"x_min":29,"x_max":683.859375,"ha":715,"o":"m 683 205 q 677 144 681 176 q 670 83 674 112 q 662 32 666 54 q 656 0 659 10 l 29 0 l 29 49 q 97 69 74 58 q 120 90 120 81 l 120 762 q 98 783 120 770 q 29 804 76 795 l 29 854 l 614 854 l 640 832 q 637 788 640 814 q 630 734 634 761 q 622 681 626 706 q 613 644 617 657 l 562 644 q 548 740 562 707 q 510 773 535 773 l 286 773 l 286 498 l 550 498 l 572 474 q 559 452 567 464 q 543 427 551 439 q 527 404 535 415 q 511 388 518 394 q 489 405 501 398 q 463 417 478 412 q 428 423 448 421 q 379 426 407 426 l 286 426 l 286 124 q 290 106 286 114 q 309 92 295 98 q 351 84 324 87 q 421 81 377 81 l 487 81 q 539 88 517 81 q 577 112 561 95 q 607 156 594 129 q 635 223 621 183 l 683 205 m 268 921 q 245 940 257 927 q 223 967 232 954 l 466 1197 q 500 1178 481 1189 q 535 1156 518 1167 q 565 1136 552 1146 q 584 1121 579 1127 l 590 1086 l 268 921 "},"~":{"x_min":32.5625,"x_max":631.375,"ha":664,"o":"m 631 524 q 596 455 617 490 q 548 390 574 419 q 492 341 522 360 q 430 323 461 323 q 370 339 402 323 q 307 377 339 356 q 243 414 275 397 q 183 431 212 431 q 123 404 150 431 q 67 321 95 378 l 32 339 q 68 408 46 373 q 115 473 89 444 q 172 522 142 503 q 233 541 202 541 q 296 524 264 541 q 360 487 328 507 q 422 449 392 466 q 479 433 452 433 q 539 459 511 433 q 596 541 568 485 l 631 524 "},"Ċ":{"x_min":37,"x_max":712.390625,"ha":760,"o":"m 712 143 q 628 68 669 99 q 546 17 587 36 q 467 -11 506 -2 q 389 -20 427 -20 q 259 8 322 -20 q 146 90 195 36 q 66 221 96 143 q 37 397 37 299 q 69 593 37 505 q 159 744 102 681 q 293 841 216 807 q 459 875 370 875 q 530 869 495 875 q 598 854 566 864 q 656 833 629 845 q 699 806 682 821 q 699 794 702 804 q 690 770 696 784 q 676 739 684 755 q 659 707 667 722 q 642 680 650 692 q 629 662 635 667 l 586 671 q 509 758 552 731 q 413 785 465 785 q 366 777 391 785 q 319 753 342 770 q 275 708 296 736 q 238 641 254 681 q 213 547 222 601 q 205 422 205 493 q 227 273 205 335 q 285 170 249 211 q 364 111 320 130 q 453 92 409 92 q 495 96 471 92 q 548 111 519 100 q 610 141 577 122 q 677 189 642 159 q 686 180 681 186 q 696 165 691 173 q 706 151 701 158 q 712 143 710 145 m 515 1049 q 506 1003 515 1024 q 484 965 498 981 q 451 939 470 948 q 411 930 432 930 q 352 951 372 930 q 332 1012 332 972 q 340 1059 332 1037 q 363 1097 349 1081 q 396 1122 377 1113 q 436 1132 415 1132 q 494 1111 473 1132 q 515 1049 515 1091 "},"³":{"x_min":34.046875,"x_max":428,"ha":473,"o":"m 428 575 q 412 510 428 540 q 368 457 396 480 q 301 421 340 434 q 215 408 262 408 q 173 412 196 408 q 126 424 150 416 q 78 446 102 433 q 34 476 54 459 l 52 526 q 130 486 95 499 q 200 474 165 474 q 268 498 242 474 q 295 567 295 522 q 286 612 295 594 q 265 640 278 630 q 236 654 252 650 q 204 658 220 658 l 194 658 q 186 658 190 658 q 177 657 182 658 q 166 656 173 656 l 158 699 q 219 721 197 708 q 252 748 242 734 q 265 776 263 761 q 268 802 268 790 q 256 849 268 830 q 215 869 244 869 q 193 864 203 869 q 176 851 182 859 q 167 830 169 842 q 169 805 164 818 q 146 795 159 799 q 119 786 133 790 q 90 779 105 782 q 63 777 75 777 l 47 802 q 61 840 47 819 q 101 879 75 861 q 163 910 127 897 q 241 923 198 923 q 314 913 284 923 q 363 887 344 903 q 391 851 382 871 q 400 810 400 830 q 393 778 400 794 q 375 748 387 762 q 346 721 363 733 q 306 704 328 710 q 357 690 335 701 q 395 661 380 679 q 419 622 411 644 q 428 575 428 599 "},"¡":{"x_min":98,"x_max":315,"ha":421,"o":"m 276 -304 q 245 -324 263 -313 q 208 -346 227 -335 q 171 -367 189 -357 q 143 -380 154 -376 l 136 -359 l 136 344 q 195 359 175 353 q 231 370 214 365 l 276 356 l 276 -304 m 315 559 q 305 511 315 533 q 278 474 295 489 q 239 451 261 459 q 193 443 217 443 q 157 448 174 443 q 127 465 140 453 q 105 493 113 476 q 98 535 98 510 q 107 584 98 562 q 133 620 117 605 q 171 643 149 635 q 219 651 194 651 q 256 645 238 651 q 286 629 273 640 q 307 601 299 618 q 315 559 315 583 "},"[":{"x_min":83,"x_max":442.6875,"ha":459,"o":"m 442 -154 q 438 -170 441 -160 q 431 -191 434 -180 q 424 -211 428 -202 q 418 -227 420 -220 l 83 -227 l 83 1085 l 414 1085 l 441 1062 q 436 1043 440 1054 q 430 1020 433 1031 q 423 1000 426 1009 q 418 987 420 991 l 236 987 l 236 -129 l 414 -129 l 442 -154 "},"%":{"x_min":36,"x_max":956,"ha":991,"o":"m 820 196 q 796 343 820 296 q 737 391 773 391 q 685 353 704 391 q 667 226 667 315 q 688 77 667 125 q 749 30 709 30 q 801 68 783 30 q 820 196 820 107 m 956 210 q 939 120 956 162 q 894 47 923 78 q 825 -2 865 15 q 737 -21 785 -21 q 651 -2 689 -21 q 586 47 613 15 q 545 120 559 78 q 531 210 531 162 q 546 300 531 258 q 590 373 561 342 q 659 423 618 405 q 749 442 699 442 q 836 423 798 442 q 901 374 875 405 q 942 300 928 342 q 956 210 956 258 m 248 4 q 228 -2 241 0 q 200 -9 215 -6 q 172 -15 186 -12 q 149 -21 158 -18 l 133 0 l 740 813 q 760 820 747 816 q 787 827 773 824 q 815 833 802 831 q 837 838 829 836 l 854 818 l 248 4 m 325 595 q 318 681 325 644 q 301 741 312 717 q 275 777 290 765 q 242 789 260 789 q 190 751 209 789 q 172 624 172 713 q 192 476 172 523 q 253 429 213 429 q 306 467 288 429 q 325 595 325 506 m 461 608 q 444 519 461 561 q 399 446 428 477 q 330 396 370 414 q 242 378 290 378 q 156 396 194 378 q 91 446 118 414 q 50 519 64 477 q 36 608 36 561 q 51 698 36 656 q 94 771 66 740 q 163 821 123 803 q 253 840 203 840 q 341 821 302 840 q 406 772 379 803 q 447 698 433 740 q 461 608 461 656 "},"P":{"x_min":20.359375,"x_max":723,"ha":772,"o":"m 29 0 l 29 49 q 97 70 74 59 q 120 91 120 81 l 120 786 q 71 779 94 782 q 29 772 48 775 l 20 834 q 100 852 56 844 q 191 866 144 860 q 287 872 239 872 q 379 872 335 872 q 519 856 456 872 q 628 810 583 840 q 698 735 673 780 q 723 633 723 691 q 710 547 723 586 q 676 477 697 508 q 626 423 654 446 q 566 384 597 399 q 502 360 534 368 q 441 353 470 353 q 381 358 410 353 q 329 373 351 363 l 308 444 q 356 427 336 431 q 401 424 377 424 q 457 434 429 424 q 507 467 485 445 q 542 524 528 489 q 555 607 555 558 q 539 691 555 655 q 495 753 524 728 q 428 790 467 777 q 341 803 389 803 q 314 803 327 803 q 286 803 300 803 l 286 91 q 290 82 286 87 q 307 72 294 77 q 341 61 319 66 q 398 49 363 55 l 398 0 l 29 0 "},"_":{"x_min":35.21875,"x_max":622.734375,"ha":658,"o":"m 622 -109 q 616 -127 620 -117 q 608 -149 612 -138 q 599 -170 603 -160 q 592 -186 594 -180 l 56 -186 l 35 -164 q 40 -147 37 -157 q 49 -125 44 -136 q 58 -104 53 -115 q 65 -88 62 -94 l 601 -88 l 622 -109 "},"Ŕ":{"x_min":20.359375,"x_max":827.375,"ha":824,"o":"m 29 0 l 29 49 q 97 70 74 59 q 120 91 120 81 l 120 784 q 73 777 96 781 q 29 771 50 774 l 20 834 q 173 862 90 849 q 352 875 256 875 q 506 859 442 875 q 609 816 569 843 q 668 750 649 788 q 686 669 686 712 q 672 583 686 622 q 634 513 659 544 q 576 458 610 481 q 501 420 542 434 l 710 125 q 730 101 721 110 q 751 88 740 92 q 779 84 763 84 q 817 85 794 84 l 827 35 q 778 20 805 28 q 724 5 750 12 q 674 -4 697 0 q 638 -9 651 -9 q 601 1 619 -9 q 573 28 582 12 l 382 397 q 369 397 376 397 l 356 397 q 322 398 339 397 q 286 404 304 400 l 286 91 q 307 71 286 83 q 378 49 329 59 l 378 0 l 29 0 m 322 802 q 304 802 313 802 q 286 802 295 802 l 286 479 q 317 475 303 475 q 345 475 330 475 q 477 520 435 475 q 519 648 519 566 q 509 707 519 679 q 478 756 500 735 q 417 789 455 777 q 322 802 379 802 m 284 922 q 260 941 272 927 q 238 967 248 955 l 481 1198 q 515 1179 497 1190 q 551 1157 534 1167 q 581 1137 568 1146 q 600 1122 594 1127 l 606 1087 l 284 922 "},"ñ":{"x_min":32,"x_max":777,"ha":792,"o":"m 441 0 l 441 49 q 508 71 488 62 q 528 90 528 81 l 528 399 q 524 461 528 436 q 512 500 520 485 q 491 521 504 515 q 458 528 478 528 q 424 523 442 528 q 384 508 406 519 q 337 479 363 498 q 279 433 310 461 l 279 90 q 301 69 279 80 q 368 49 324 59 l 368 0 l 32 0 l 32 49 q 96 70 75 61 q 118 90 118 79 l 118 467 q 118 509 118 493 q 109 534 118 525 q 83 546 101 542 q 32 555 65 550 l 32 602 q 91 610 63 605 q 144 620 119 615 q 193 634 169 626 q 241 651 217 641 l 273 622 l 273 525 q 422 621 354 592 q 541 651 489 651 q 596 641 569 651 q 643 612 622 632 q 675 558 663 591 q 688 477 688 525 l 688 90 q 692 81 688 86 q 706 72 696 77 q 733 62 716 67 q 777 49 750 56 l 777 0 l 441 0 m 665 934 q 636 873 653 906 q 596 811 618 840 q 548 763 575 782 q 490 744 521 744 q 436 755 462 744 q 385 780 410 766 q 337 804 361 793 q 287 816 312 816 q 260 810 272 816 q 237 795 248 805 q 215 771 226 785 q 192 737 204 756 l 142 756 q 171 817 154 784 q 210 880 188 851 q 258 928 231 909 q 315 948 285 948 q 374 936 346 948 q 426 912 401 925 q 474 887 451 898 q 517 876 496 876 q 569 895 547 876 q 614 954 591 914 l 665 934 "},"‚":{"x_min":48.328125,"x_max":302,"ha":353,"o":"m 302 24 q 289 -51 302 -13 q 254 -125 276 -89 q 203 -190 232 -160 q 142 -241 174 -220 l 98 -207 q 138 -133 122 -175 q 154 -46 154 -90 q 129 14 154 -9 q 58 39 104 39 l 48 90 q 65 103 52 95 q 97 119 78 110 q 136 135 115 127 q 176 149 157 143 q 211 159 196 155 q 235 161 227 162 q 285 102 269 135 q 302 24 302 68 "},"ˋ":{"x_min":0,"x_max":311.03125,"ha":311,"o":"m 311 736 q 299 727 307 732 q 284 718 292 722 q 267 710 275 714 q 253 705 259 707 l 0 960 l 19 998 q 46 1004 25 1000 q 91 1013 67 1009 q 136 1021 114 1017 q 166 1025 158 1024 l 311 736 "},"Æ":{"x_min":0,"x_max":1069.515625,"ha":1100,"o":"m 505 757 q 500 768 505 765 q 488 770 495 771 q 474 763 482 769 q 462 746 467 757 l 363 498 l 505 498 l 505 757 m 1069 205 q 1062 144 1066 176 q 1055 83 1058 112 q 1048 32 1051 54 q 1042 0 1044 10 l 415 0 l 415 49 q 482 69 460 58 q 505 90 505 81 l 505 423 l 334 423 l 204 95 q 211 65 195 75 q 276 49 227 55 l 276 0 l 0 0 l 0 49 q 64 65 41 55 q 96 95 87 75 l 354 747 q 356 767 359 759 q 341 781 353 774 q 307 793 329 787 q 253 804 285 798 l 253 854 l 1000 854 l 1025 832 q 1022 788 1025 814 q 1016 734 1020 761 q 1007 681 1012 706 q 998 644 1003 657 l 946 644 q 933 740 946 707 q 894 773 920 773 l 671 773 l 671 498 l 934 498 l 957 474 q 943 452 951 464 q 927 426 936 439 q 910 402 918 413 q 896 385 902 391 q 873 402 886 395 q 847 414 859 409 q 825 420 834 418 q 814 423 816 423 l 671 423 l 671 124 q 675 106 671 114 q 695 92 680 98 q 737 84 710 87 q 808 81 764 81 l 871 81 q 923 88 902 81 q 962 112 945 95 q 993 156 979 129 q 1020 223 1006 183 l 1069 205 "},"ğ":{"x_min":10,"x_max":702.625,"ha":704,"o":"m 444 407 q 435 471 444 441 q 408 524 426 501 q 365 559 391 546 q 306 573 340 573 q 272 565 289 573 q 240 541 254 557 q 217 502 226 526 q 209 447 209 478 q 216 383 209 413 q 241 330 224 353 q 284 295 258 308 q 346 282 310 282 q 383 289 366 282 q 414 313 401 297 q 436 352 428 328 q 444 407 444 375 m 369 -27 q 309 -18 337 -23 q 257 -7 281 -12 q 209 -46 226 -29 q 183 -77 191 -63 q 172 -102 174 -91 q 170 -123 170 -113 q 186 -166 170 -146 q 231 -203 202 -187 q 298 -227 259 -218 q 382 -237 337 -237 q 450 -227 421 -237 q 497 -200 478 -217 q 525 -161 516 -183 q 535 -116 535 -139 q 529 -90 535 -103 q 505 -65 523 -77 q 454 -44 487 -54 q 369 -27 422 -34 m 597 435 q 574 340 597 383 q 513 266 551 297 q 426 218 475 235 q 320 201 376 201 l 314 201 q 281 162 288 177 q 275 143 275 148 q 278 132 275 137 q 297 120 282 126 q 343 108 312 114 q 425 95 373 102 q 554 70 503 85 q 635 36 605 56 q 678 -10 666 15 q 690 -70 690 -37 q 675 -134 690 -102 q 636 -195 661 -166 q 576 -250 610 -225 q 503 -294 543 -275 q 421 -323 464 -312 q 335 -334 378 -334 q 263 -329 301 -334 q 189 -315 226 -325 q 121 -291 153 -306 q 63 -256 88 -276 q 24 -209 39 -235 q 10 -150 10 -182 q 16 -115 10 -133 q 42 -77 23 -97 q 93 -34 61 -57 q 177 17 125 -10 q 101 84 101 48 q 107 104 101 91 q 127 133 113 116 q 165 170 142 150 q 221 213 188 190 q 154 242 184 223 q 101 285 123 260 q 68 341 80 310 q 56 408 56 372 q 79 502 56 458 q 143 579 103 546 q 236 631 183 612 q 347 651 289 651 q 433 638 393 651 q 505 603 473 625 q 609 625 562 610 q 684 651 656 640 l 702 625 q 696 608 700 618 q 687 587 692 598 q 676 566 682 577 q 664 548 670 556 q 618 540 642 543 q 567 538 595 538 q 589 488 581 513 q 597 435 597 462 m 585 927 q 538 833 565 872 q 481 769 511 794 q 417 732 450 744 q 350 721 384 721 q 279 732 313 721 q 215 769 245 744 q 158 833 184 794 q 113 927 133 872 q 123 940 117 933 q 136 953 129 947 q 150 965 143 960 q 163 973 157 970 q 202 919 179 941 q 249 881 224 896 q 300 858 274 865 q 347 851 325 851 q 396 858 370 851 q 447 880 422 865 q 495 918 472 895 q 534 973 517 941 q 547 965 540 970 q 561 953 554 960 q 574 940 568 947 q 585 927 580 933 "},"Ū":{"x_min":29,"x_max":873,"ha":910,"o":"m 873 805 q 804 784 827 795 q 781 763 781 772 l 781 355 q 756 196 781 266 q 688 78 732 127 q 584 5 644 30 q 452 -20 524 -20 q 323 0 384 -20 q 218 58 263 18 q 146 158 172 97 q 120 301 120 218 l 120 763 q 98 783 120 771 q 29 805 76 795 l 29 855 l 378 855 l 378 805 q 309 784 332 795 q 286 763 286 772 l 286 345 q 297 230 286 280 q 333 146 308 180 q 397 95 357 112 q 494 78 436 78 q 573 99 541 78 q 626 157 606 121 q 656 240 647 193 q 665 337 665 287 l 665 763 q 643 783 665 771 q 574 805 621 795 l 574 855 l 873 855 l 873 805 m 749 1076 q 742 1056 747 1069 q 731 1030 737 1044 q 720 1005 725 1016 q 712 987 715 993 l 204 987 l 183 1008 q 190 1028 185 1016 q 201 1054 195 1040 q 212 1079 206 1067 q 220 1098 217 1091 l 728 1098 l 749 1076 "},"ª":{"x_min":28,"x_max":365.9375,"ha":375,"o":"m 365 542 q 305 506 335 521 q 255 492 276 492 q 237 503 245 492 q 226 549 229 515 q 162 503 192 515 q 108 492 131 492 q 80 496 95 492 q 54 509 66 500 q 35 533 43 518 q 28 569 28 547 q 34 610 28 590 q 57 647 41 630 q 96 678 72 665 q 154 699 121 692 l 222 714 l 222 722 q 222 759 222 743 q 217 786 222 775 q 204 802 213 797 q 179 808 195 808 q 160 805 169 808 q 145 796 151 802 q 136 781 138 790 q 136 759 133 772 q 124 751 137 756 q 95 742 111 747 q 63 734 78 737 q 43 732 47 731 l 35 750 q 63 792 44 773 q 107 825 82 812 q 160 847 132 839 q 215 855 188 855 q 257 849 239 855 q 287 830 275 844 q 305 793 299 816 q 311 734 311 770 l 311 601 q 313 573 311 582 q 320 560 316 565 q 331 560 323 558 q 357 569 339 562 l 365 542 m 30 397 l 30 457 l 348 457 l 348 397 l 30 397 m 224 590 l 224 679 l 190 671 q 137 644 156 663 q 119 595 119 625 q 122 575 119 583 q 130 563 125 567 q 140 556 134 558 q 150 554 146 554 q 181 561 164 554 q 224 590 198 568 "},"Œ":{"x_min":37,"x_max":1115.859375,"ha":1147,"o":"m 427 72 q 470 74 451 72 q 503 80 488 76 q 532 91 519 84 q 559 108 545 98 l 559 724 q 486 772 527 756 q 401 788 445 788 q 317 763 354 788 q 255 694 280 739 q 217 583 230 649 q 205 435 205 518 q 222 293 205 359 q 269 177 239 226 q 340 100 299 128 q 427 72 380 72 m 1115 206 q 1109 145 1113 177 q 1102 83 1106 112 q 1094 32 1098 55 q 1088 0 1091 10 l 585 0 q 527 -3 550 0 q 486 -10 505 -6 q 447 -16 467 -13 q 398 -20 427 -20 q 248 15 314 -20 q 134 112 181 51 q 62 251 87 172 q 37 415 37 329 q 66 590 37 507 q 150 737 96 674 q 277 837 203 800 q 436 875 350 875 q 482 872 463 875 q 518 865 501 869 q 552 858 535 861 q 591 855 569 855 l 1046 855 l 1072 833 q 1069 789 1072 815 q 1062 735 1066 762 q 1054 682 1058 707 q 1045 645 1049 658 l 994 645 q 980 741 994 708 q 942 774 967 774 l 725 774 l 725 499 l 982 499 l 1004 475 q 991 452 999 465 q 975 426 984 439 q 959 403 967 413 q 943 386 950 392 q 921 403 933 396 q 895 415 910 410 q 860 421 880 419 q 812 424 839 424 l 725 424 l 725 125 q 728 107 725 115 q 745 93 732 99 q 784 85 758 88 q 853 82 809 82 l 919 82 q 971 89 949 82 q 1009 113 993 96 q 1039 157 1026 130 q 1067 224 1053 184 l 1115 206 "},"T":{"x_min":2.59375,"x_max":764,"ha":789,"o":"m 199 0 l 199 49 q 249 62 229 55 q 281 75 269 69 q 298 87 293 81 q 303 98 303 93 l 303 773 l 134 773 q 115 765 124 773 q 96 741 106 758 q 76 697 87 724 q 50 631 64 670 l 2 649 q 5 696 2 669 q 12 753 8 724 q 20 809 16 782 q 28 854 25 836 l 739 854 l 764 832 q 761 790 764 814 q 755 738 759 766 q 747 685 752 711 q 739 637 743 658 l 689 637 q 678 693 682 668 q 668 736 674 719 q 655 763 663 754 q 633 773 646 773 l 469 773 l 469 98 q 473 88 469 94 q 490 75 478 82 q 522 62 502 69 q 573 49 542 55 l 573 0 l 199 0 "},"š":{"x_min":51,"x_max":519,"ha":570,"o":"m 519 192 q 504 109 519 144 q 467 51 490 75 q 416 13 444 28 q 357 -7 387 0 q 301 -17 328 -15 q 255 -20 274 -20 q 209 -16 234 -20 q 158 -7 184 -13 q 106 7 132 -1 q 59 29 81 17 q 52 53 54 31 q 51 105 51 75 q 54 169 51 136 q 63 227 57 202 l 117 220 q 139 155 124 184 q 176 105 154 126 q 223 74 197 85 q 278 63 250 63 q 349 80 326 63 q 373 139 373 98 q 359 187 373 166 q 323 227 345 209 q 271 262 300 246 q 212 294 243 278 q 157 325 184 308 q 107 364 129 343 q 71 411 85 385 q 58 469 58 437 q 78 545 58 512 q 131 602 98 579 q 207 638 164 625 q 295 651 249 651 q 352 647 323 651 q 408 636 381 643 q 457 620 434 630 q 495 598 479 611 q 496 576 499 595 q 488 532 494 556 q 473 485 481 508 q 456 451 464 462 l 410 457 q 362 548 394 516 q 287 580 331 580 q 225 561 247 580 q 204 514 204 542 q 214 475 204 492 q 244 443 225 458 q 292 413 264 428 q 356 379 321 398 q 414 347 384 364 q 466 308 443 330 q 504 258 489 286 q 519 192 519 230 m 327 722 l 235 722 l 56 980 q 74 1007 64 993 q 95 1026 83 1021 l 282 878 l 467 1026 q 490 1007 478 1021 q 511 980 502 993 l 327 722 "},"Þ":{"x_min":28,"x_max":722.484375,"ha":772,"o":"m 28 0 l 28 49 q 96 70 73 59 q 120 90 120 81 l 120 762 q 98 783 120 770 q 28 804 76 795 l 28 854 l 398 854 l 398 804 q 342 793 364 798 q 307 783 320 788 q 290 772 295 777 q 286 763 286 767 l 286 695 q 332 695 309 695 q 379 695 355 695 q 519 679 456 695 q 628 633 583 663 q 697 558 673 603 q 722 455 722 514 q 709 370 722 409 q 675 299 697 331 q 625 245 654 268 q 566 206 597 221 q 502 182 534 190 q 440 175 470 175 q 381 180 410 175 q 329 195 351 185 l 308 265 q 356 249 336 252 q 401 246 377 246 q 457 256 429 246 q 506 289 485 266 q 541 345 528 311 q 555 428 555 380 q 539 512 555 476 q 495 572 523 548 q 428 609 467 597 q 341 622 388 622 q 286 622 314 622 l 286 90 q 290 82 286 86 q 307 71 294 77 q 341 61 319 66 q 398 49 363 55 l 398 0 l 28 0 "},"j":{"x_min":-191,"x_max":314,"ha":393,"o":"m 286 72 q 272 -59 286 -5 q 237 -150 258 -113 q 188 -213 215 -188 q 135 -260 161 -239 q 95 -288 117 -275 q 50 -311 73 -301 q 5 -327 27 -321 q -35 -334 -16 -334 q -89 -327 -61 -334 q -139 -310 -116 -320 q -176 -290 -161 -300 q -191 -271 -191 -279 q -176 -245 -191 -262 q -143 -211 -162 -228 q -105 -180 -124 -194 q -76 -161 -86 -166 q -50 -185 -66 -174 q -19 -202 -35 -195 q 11 -213 -3 -209 q 39 -217 27 -217 q 72 -207 57 -217 q 100 -170 88 -197 q 119 -95 112 -143 q 126 29 126 -47 l 126 439 q 126 495 126 474 q 117 527 126 516 q 91 545 109 539 q 38 554 73 550 l 38 602 q 100 612 74 606 q 149 622 126 617 q 193 635 171 628 q 241 651 214 642 l 286 651 l 286 72 m 314 855 q 305 813 314 832 q 282 780 297 794 q 247 759 267 766 q 202 752 226 752 q 167 756 184 752 q 138 770 150 760 q 118 793 125 779 q 111 827 111 807 q 119 869 111 850 q 143 901 128 888 q 179 922 158 915 q 222 930 199 930 q 257 925 240 930 q 286 912 274 921 q 306 888 298 902 q 314 855 314 874 "},"1":{"x_min":82.390625,"x_max":608,"ha":688,"o":"m 103 0 l 103 56 q 189 70 154 62 q 244 86 223 77 q 273 102 264 94 q 282 117 282 109 l 282 616 q 280 658 282 643 q 270 683 278 673 q 255 689 266 686 q 225 692 245 692 q 175 687 205 692 q 101 673 145 683 l 82 728 q 128 740 101 732 q 187 759 156 748 q 251 781 218 769 q 315 804 285 793 q 371 826 345 816 q 412 843 396 836 l 442 815 l 442 117 q 449 102 442 110 q 475 86 456 94 q 525 70 493 78 q 608 56 558 62 l 608 0 l 103 0 "},"›":{"x_min":82.609375,"x_max":385,"ha":430,"o":"m 385 290 l 121 1 l 83 31 l 216 314 l 82 598 l 121 629 l 385 339 l 385 290 "},"<":{"x_min":35.21875,"x_max":582.859375,"ha":618,"o":"m 582 225 q 550 194 568 212 q 512 163 533 176 l 56 330 l 35 356 l 37 364 l 40 377 l 47 400 q 50 410 48 405 q 53 421 52 416 q 54 425 54 423 q 56 429 55 427 l 60 439 l 561 623 l 582 602 q 577 582 580 594 q 571 557 574 570 q 564 532 567 544 q 558 514 560 520 l 207 385 l 566 254 l 582 225 "},"t":{"x_min":3.3125,"x_max":489.640625,"ha":504,"o":"m 489 105 q 339 9 401 40 q 243 -20 278 -20 q 189 -9 214 -20 q 144 25 163 2 q 114 83 125 48 q 103 165 103 118 l 103 546 l 22 546 l 3 570 l 55 630 l 103 630 l 103 772 l 237 873 l 263 851 l 263 630 l 465 630 l 489 606 q 474 582 483 594 q 456 557 465 569 q 438 536 447 546 q 422 522 429 527 q 402 530 414 526 q 374 538 389 534 q 342 543 359 541 q 307 546 325 546 l 263 546 l 263 228 q 266 170 263 194 q 278 131 270 146 q 296 110 286 116 q 319 104 306 104 q 344 106 331 104 q 373 114 357 108 q 411 129 390 119 q 460 154 432 139 l 489 105 "},"¬":{"x_min":50.171875,"x_max":632,"ha":688,"o":"m 632 158 q 615 146 625 152 q 594 133 605 139 q 573 121 584 126 q 555 113 563 116 l 534 135 l 534 333 l 72 333 l 50 354 q 55 371 52 361 q 64 392 59 381 q 73 412 68 402 q 80 429 77 422 l 608 429 l 632 409 l 632 158 "},"ù":{"x_min":22.90625,"x_max":760.6875,"ha":767,"o":"m 760 76 q 706 42 736 59 q 649 11 677 25 q 600 -11 621 -2 q 570 -20 578 -20 q 547 -15 558 -20 q 527 1 536 -11 q 510 35 517 13 q 499 92 502 57 q 424 33 457 55 q 364 0 391 11 q 314 -16 337 -12 q 270 -20 292 -20 q 209 -11 239 -20 q 155 20 179 -2 q 116 84 131 44 q 102 189 102 125 l 102 467 q 102 518 102 500 q 94 545 102 536 q 69 557 86 554 q 22 564 53 561 l 22 613 q 83 616 56 613 q 136 624 111 620 q 186 635 161 629 q 239 650 211 642 l 263 619 l 263 232 q 267 163 263 190 q 282 122 272 137 q 307 102 292 107 q 340 97 321 97 q 370 100 354 97 q 406 112 386 103 q 448 137 425 122 q 499 177 471 153 l 499 468 q 496 517 499 498 q 485 545 494 535 q 459 559 477 555 q 411 564 441 564 l 411 611 q 531 628 477 617 q 633 650 585 638 l 659 619 l 659 192 q 659 157 659 171 q 660 134 659 143 q 665 120 662 125 q 673 111 668 114 q 695 108 681 105 q 744 126 710 111 l 760 76 m 491 736 q 479 727 487 732 q 464 718 472 722 q 447 710 455 714 q 433 705 439 707 l 179 960 l 199 998 q 226 1004 205 1000 q 270 1013 247 1009 q 316 1021 294 1017 q 346 1025 338 1024 l 491 736 "},"ĉ":{"x_min":43,"x_max":593.796875,"ha":620,"o":"m 593 129 q 513 49 550 79 q 444 4 477 20 q 380 -15 411 -11 q 319 -20 350 -20 q 215 2 265 -20 q 127 65 165 24 q 65 166 88 106 q 43 301 43 226 q 69 438 43 374 q 143 548 96 501 q 257 623 191 596 q 402 651 323 651 q 451 647 424 651 q 505 636 479 643 q 554 619 532 629 q 588 597 577 609 q 586 578 589 592 q 580 547 584 564 q 569 510 575 529 q 557 472 563 490 q 545 440 551 455 q 535 420 539 426 l 491 427 q 437 529 469 493 q 352 566 405 566 q 296 552 323 566 q 248 509 269 539 q 215 434 228 480 q 203 322 203 388 q 216 225 203 268 q 253 154 230 183 q 309 109 277 125 q 377 94 341 94 q 413 96 395 94 q 450 106 430 98 q 497 130 471 115 q 557 172 522 146 l 593 129 m 565 750 q 547 724 557 737 q 526 705 537 710 l 339 856 l 154 705 q 131 724 143 710 q 109 750 119 737 l 295 1013 l 386 1013 l 565 750 "},"ï":{"x_min":-23,"x_max":441,"ha":409,"o":"m 41 0 l 41 49 q 108 70 87 59 q 129 90 129 81 l 129 439 q 129 495 129 474 q 121 528 129 516 q 95 545 113 540 q 41 554 77 551 l 41 602 q 150 622 99 610 q 246 651 201 634 l 289 651 l 289 90 q 308 70 289 82 q 377 49 328 59 l 377 0 l 41 0 m 441 859 q 432 813 441 834 q 410 775 424 791 q 376 749 395 758 q 336 740 357 740 q 277 761 297 740 q 258 822 258 782 q 266 869 258 847 q 289 907 275 891 q 322 932 303 923 q 361 942 341 942 q 420 921 399 942 q 441 859 441 901 m 160 859 q 151 813 160 834 q 129 775 143 791 q 96 749 115 758 q 56 740 77 740 q -2 761 17 740 q -23 822 -23 782 q -14 869 -23 847 q 8 907 -5 891 q 41 932 22 923 q 80 942 60 942 q 139 921 118 942 q 160 859 160 901 "},"ī":{"x_min":6.109375,"x_max":426.515625,"ha":409,"o":"m 42 0 l 42 49 q 108 70 87 59 q 129 90 129 81 l 129 439 q 129 495 129 474 q 121 528 129 516 q 95 545 113 540 q 42 554 77 551 l 42 602 q 150 622 99 610 q 246 651 201 634 l 289 651 l 289 90 q 309 70 289 82 q 378 49 329 59 l 378 0 l 42 0 m 426 886 q 419 866 424 879 q 408 840 414 854 q 397 815 402 826 q 389 797 391 803 l 27 797 l 6 818 q 12 838 8 826 q 23 864 17 850 q 34 889 29 877 q 43 908 40 901 l 405 908 l 426 886 "},"Ò":{"x_min":37,"x_max":796.484375,"ha":847,"o":"m 629 427 q 612 561 629 496 q 566 677 596 627 q 494 757 536 727 q 401 787 452 787 q 316 762 353 787 q 255 693 280 738 q 217 583 230 648 q 205 435 205 517 q 222 292 205 359 q 270 177 240 226 q 340 100 300 128 q 426 72 381 72 q 507 93 470 72 q 571 159 544 115 q 613 270 598 204 q 629 427 629 337 m 796 439 q 781 319 796 377 q 740 210 767 262 q 678 117 714 159 q 597 44 641 74 q 502 -3 552 13 q 397 -20 451 -20 q 246 15 314 -20 q 133 112 179 51 q 61 251 86 172 q 37 415 37 329 q 66 590 37 507 q 148 737 96 674 q 275 837 201 800 q 436 875 348 875 q 591 838 524 875 q 704 740 658 801 q 773 600 749 679 q 796 439 796 521 m 551 963 q 532 939 542 950 q 512 922 523 927 l 193 1081 l 200 1123 q 219 1140 205 1129 q 252 1162 234 1150 q 286 1184 270 1174 q 309 1198 302 1194 l 551 963 "},"Ď":{"x_min":20.359375,"x_max":812,"ha":867,"o":"m 812 456 q 795 305 812 372 q 748 188 778 239 q 680 101 719 137 q 596 43 641 66 q 504 10 552 20 q 411 0 457 0 l 29 0 l 29 49 q 97 70 74 59 q 120 91 120 81 l 120 784 l 29 771 l 20 833 q 97 850 52 842 q 192 864 142 858 q 291 871 241 871 q 384 871 341 871 q 566 842 486 871 q 700 761 645 814 q 783 631 754 708 q 812 456 812 554 m 336 802 q 311 802 324 802 q 286 802 299 802 l 286 113 q 287 104 286 108 q 294 90 289 96 q 311 81 299 85 q 340 75 322 77 q 387 73 359 73 q 440 81 412 73 q 496 109 468 90 q 549 157 524 128 q 592 225 574 186 q 622 317 611 265 q 634 431 634 368 q 614 590 634 521 q 557 706 595 659 q 464 777 520 753 q 336 802 409 802 m 438 939 l 347 939 l 166 1162 q 185 1186 175 1175 q 206 1204 195 1198 l 394 1076 l 578 1204 q 599 1186 590 1198 q 617 1162 609 1175 l 438 939 "},"&":{"x_min":43,"x_max":939.171875,"ha":943,"o":"m 330 766 q 339 693 330 731 q 365 615 348 655 q 417 657 397 634 q 451 702 438 679 q 468 749 463 725 q 474 794 474 772 q 452 868 474 841 q 400 896 430 896 q 369 885 382 896 q 347 857 355 875 q 334 816 338 840 q 330 766 330 792 m 380 78 q 453 89 418 78 q 519 120 488 101 q 455 186 488 151 q 392 261 423 222 q 332 342 361 300 q 277 428 302 384 q 229 342 242 384 q 216 253 216 300 q 230 172 216 206 q 268 117 245 138 q 321 87 292 96 q 380 78 351 78 m 939 507 q 921 484 931 497 q 901 460 911 472 q 881 438 891 448 q 863 422 871 428 q 810 443 838 433 q 759 454 781 454 q 777 414 773 435 q 781 368 781 394 q 760 273 781 323 q 704 173 740 222 q 731 149 718 160 q 757 126 744 137 q 827 90 791 97 q 898 90 864 82 l 909 41 q 849 17 880 28 q 789 -2 817 5 q 741 -15 762 -10 q 713 -20 720 -20 q 663 1 697 -20 q 585 59 629 22 q 470 1 532 22 q 340 -20 409 -20 q 215 -3 270 -20 q 122 45 160 13 q 63 126 83 78 q 43 239 43 175 q 87 382 43 310 q 227 526 131 454 q 192 628 205 577 q 180 727 180 678 q 200 829 180 782 q 256 910 221 875 q 340 963 292 944 q 440 983 387 983 q 527 969 491 983 q 586 932 563 955 q 621 878 610 909 q 632 816 632 848 q 614 744 632 781 q 567 673 596 707 q 501 607 538 638 q 425 550 464 575 l 404 537 q 454 459 427 498 q 511 383 481 420 q 571 310 540 346 q 633 243 602 275 q 654 292 647 267 q 661 341 661 317 q 652 392 661 369 q 629 431 643 415 q 596 455 615 447 q 559 464 578 464 l 540 487 q 550 498 543 491 q 566 513 558 506 q 583 527 574 521 q 599 537 592 534 l 918 537 l 939 507 "},"˝":{"x_min":33.234375,"x_max":481.84375,"ha":510,"o":"m 91 705 q 63 716 79 707 q 33 733 46 725 l 135 1019 q 159 1016 143 1018 q 193 1012 176 1015 q 226 1008 211 1010 q 249 1002 242 1005 l 269 964 l 91 705 m 303 705 q 275 716 292 707 q 245 733 259 725 l 348 1019 q 372 1016 356 1018 q 406 1012 388 1015 q 439 1008 424 1010 q 461 1002 455 1005 l 481 964 l 303 705 "},"I":{"x_min":42,"x_max":391,"ha":446,"o":"m 42 0 l 42 49 q 110 70 87 58 q 133 90 133 81 l 133 762 q 111 782 133 770 q 42 804 89 795 l 42 854 l 391 854 l 391 804 q 322 783 345 795 q 299 762 299 771 l 299 90 q 321 70 299 82 q 391 49 343 58 l 391 0 l 42 0 "},"G":{"x_min":37,"x_max":791,"ha":819,"o":"m 728 805 q 728 793 731 803 q 719 769 726 783 q 704 740 713 756 q 686 708 695 723 q 668 682 677 693 q 654 665 660 670 l 612 674 q 568 729 590 707 q 521 765 545 752 q 472 784 497 778 q 417 790 446 790 q 378 783 400 790 q 332 760 356 776 q 286 716 309 744 q 245 650 263 689 q 216 556 227 610 q 205 432 205 502 q 225 276 205 341 q 280 169 246 211 q 358 107 314 127 q 449 87 402 87 q 514 93 485 87 q 567 112 543 100 l 567 318 q 564 333 567 326 q 551 347 561 340 q 518 360 540 354 q 460 374 497 367 l 460 424 l 791 424 l 791 374 q 740 349 753 365 q 727 318 727 334 l 727 114 q 634 47 677 73 q 554 6 592 21 q 484 -14 517 -8 q 421 -20 451 -20 q 325 -8 372 -20 q 235 25 278 2 q 156 82 193 47 q 93 163 120 116 q 51 267 66 209 q 37 394 37 325 q 72 596 37 507 q 169 747 107 685 q 316 842 232 809 q 500 875 401 875 q 552 870 522 875 q 614 856 582 865 q 676 834 646 847 q 728 805 707 822 "},"`":{"x_min":-11.296875,"x_max":300.40625,"ha":434,"o":"m 300 736 q 289 727 296 732 q 273 718 281 723 q 257 710 265 714 q 243 705 249 707 l -11 960 l 8 998 q 35 1004 15 1000 q 80 1012 56 1008 q 125 1020 104 1017 q 155 1025 147 1024 l 300 736 "},"·":{"x_min":34,"x_max":245,"ha":278,"o":"m 245 480 q 235 433 245 453 q 210 398 226 412 q 173 376 194 383 q 127 369 151 369 q 91 374 108 369 q 61 389 74 379 q 41 416 49 400 q 34 457 34 433 q 43 503 34 482 q 69 538 53 524 q 106 561 85 553 q 152 569 128 569 q 186 563 170 569 q 216 547 203 558 q 237 520 229 537 q 245 480 245 503 "},"ŏ":{"x_min":43,"x_max":671,"ha":714,"o":"m 503 298 q 492 400 503 352 q 461 485 481 449 q 413 544 441 522 q 351 566 385 566 q 282 547 310 566 q 239 496 255 528 q 217 418 223 463 q 211 320 211 373 q 223 220 211 267 q 256 139 235 173 q 305 84 277 104 q 363 64 332 64 q 429 80 403 64 q 472 125 456 95 q 496 198 489 155 q 503 298 503 242 m 671 329 q 659 240 671 283 q 625 158 647 196 q 573 86 603 119 q 507 30 544 53 q 430 -6 471 6 q 344 -20 388 -20 q 220 4 276 -20 q 125 71 164 28 q 64 173 86 114 q 43 301 43 232 q 67 431 43 368 q 135 543 91 494 q 238 621 178 592 q 370 651 298 651 q 493 626 438 651 q 588 559 549 602 q 649 457 628 516 q 671 329 671 398 m 607 927 q 560 833 587 872 q 503 769 534 794 q 439 732 472 744 q 372 721 406 721 q 301 732 336 721 q 237 769 267 744 q 181 833 207 794 q 135 927 155 872 q 145 940 139 933 q 158 953 151 947 q 172 965 165 960 q 185 973 179 970 q 224 919 201 941 q 271 881 246 896 q 322 858 296 865 q 369 851 347 851 q 419 858 393 851 q 469 880 445 865 q 517 918 494 895 q 556 973 540 941 q 569 965 562 970 q 583 953 576 960 q 596 940 590 947 q 607 927 603 933 "},"¿":{"x_min":43,"x_max":576,"ha":619,"o":"m 284 344 q 314 359 296 353 q 352 371 332 366 l 377 352 l 377 278 q 366 203 377 240 q 340 131 356 166 q 302 61 323 95 q 262 -5 280 27 q 230 -71 243 -39 q 218 -135 218 -104 q 244 -260 218 -220 q 317 -300 271 -300 q 349 -291 334 -300 q 376 -266 364 -282 q 395 -229 388 -251 q 403 -180 403 -207 q 400 -158 403 -171 q 394 -136 397 -146 q 425 -124 404 -130 q 469 -111 446 -117 q 514 -101 492 -105 q 552 -95 537 -96 l 574 -121 q 576 -137 576 -126 l 576 -153 q 551 -243 576 -201 q 484 -314 526 -284 q 386 -362 442 -345 q 270 -380 331 -380 q 173 -364 215 -380 q 101 -320 130 -348 q 57 -253 72 -292 q 43 -166 43 -213 q 59 -73 43 -115 q 102 4 76 -32 q 158 72 128 40 q 216 137 189 105 q 264 204 244 170 q 284 278 284 238 l 284 344 m 433 559 q 423 511 433 533 q 396 474 413 489 q 357 451 379 459 q 310 443 335 443 q 274 448 292 443 q 244 465 257 453 q 222 493 230 476 q 215 535 215 510 q 224 584 215 562 q 250 620 234 605 q 289 643 267 635 q 336 651 311 651 q 373 645 355 651 q 404 629 391 640 q 425 601 417 618 q 433 559 433 583 "},"ý":{"x_min":-41,"x_max":683,"ha":692,"o":"m 683 581 q 650 572 663 576 q 629 563 637 568 q 617 551 621 558 q 610 535 613 545 l 388 -50 q 326 -178 359 -125 q 255 -266 292 -232 q 177 -317 218 -301 q 94 -334 137 -334 q 44 -329 69 -334 q 1 -317 20 -324 q -29 -302 -17 -310 q -41 -287 -41 -293 q -29 -264 -41 -281 q -2 -227 -18 -247 q 29 -190 12 -207 q 56 -165 46 -172 q 123 -192 90 -187 q 181 -188 157 -197 q 234 -149 206 -179 q 286 -62 262 -120 l 305 -15 l 82 535 q 58 563 75 553 q 9 581 42 574 l 9 631 l 310 631 l 310 581 q 270 574 284 578 q 250 565 256 570 q 244 553 244 560 q 250 535 245 546 l 387 194 l 517 535 q 522 552 521 545 q 518 564 523 559 q 501 573 513 569 q 466 581 488 577 l 466 631 l 683 631 l 683 581 m 322 705 q 307 709 316 706 q 290 718 299 713 q 275 726 282 722 q 264 734 268 731 l 404 1025 q 434 1021 412 1024 q 480 1014 455 1018 q 527 1006 505 1010 q 556 999 548 1001 l 576 963 l 322 705 "},"º":{"x_min":23,"x_max":358,"ha":381,"o":"m 268 663 q 262 718 268 692 q 246 765 257 745 q 220 798 236 786 q 185 811 205 811 q 151 801 165 811 q 129 775 138 792 q 116 734 120 758 q 113 681 113 709 q 119 626 113 652 q 137 580 126 600 q 163 548 148 560 q 195 537 178 537 q 251 571 235 537 q 268 663 268 606 m 30 397 l 30 457 l 352 457 l 352 397 l 30 397 m 358 679 q 343 611 358 645 q 305 550 329 577 q 249 508 281 524 q 182 492 217 492 q 116 505 145 492 q 66 541 86 518 q 34 596 45 565 q 23 665 23 628 q 35 735 23 700 q 71 796 48 769 q 126 839 94 822 q 198 856 158 856 q 263 842 233 856 q 313 804 292 828 q 346 748 334 780 q 358 679 358 716 "},"ź":{"x_min":40.140625,"x_max":593.96875,"ha":637,"o":"m 582 224 q 582 189 582 209 q 582 147 582 169 q 582 102 582 125 q 582 59 582 79 q 582 23 582 39 q 577 0 582 8 l 57 0 l 40 30 l 391 549 l 218 549 q 164 515 189 549 q 121 406 138 481 l 82 420 l 82 641 q 117 634 105 637 q 142 631 129 631 q 170 631 155 631 l 579 631 l 593 601 l 241 81 l 469 81 q 490 91 481 81 q 506 122 499 102 q 521 170 514 142 q 538 235 529 199 l 582 224 m 297 704 q 282 709 291 705 q 265 717 274 713 q 250 726 257 721 q 239 734 243 730 l 379 1024 q 409 1021 387 1024 q 455 1014 430 1018 q 501 1005 479 1010 q 530 999 523 1001 l 550 962 l 297 704 "},"ű":{"x_min":22.90625,"x_max":760.6875,"ha":767,"o":"m 760 76 q 706 42 736 59 q 649 11 677 25 q 600 -11 621 -2 q 570 -20 578 -20 q 547 -15 558 -20 q 527 1 536 -11 q 510 35 517 13 q 499 92 502 57 q 424 33 457 55 q 364 0 391 11 q 314 -16 337 -12 q 270 -20 292 -20 q 209 -11 239 -20 q 155 20 179 -2 q 116 84 131 44 q 102 189 102 125 l 102 467 q 102 518 102 500 q 94 545 102 536 q 69 557 86 554 q 22 564 53 561 l 22 613 q 83 616 56 613 q 136 624 111 620 q 186 635 161 629 q 239 650 211 642 l 263 619 l 263 232 q 267 163 263 190 q 282 122 272 137 q 307 102 292 107 q 340 97 321 97 q 370 100 354 97 q 406 112 386 103 q 448 137 425 122 q 499 177 471 153 l 499 468 q 496 517 499 498 q 485 545 494 535 q 459 559 477 555 q 411 564 441 564 l 411 611 q 531 628 477 617 q 633 650 585 638 l 659 619 l 659 192 q 659 157 659 171 q 660 134 659 143 q 665 120 662 125 q 673 111 668 114 q 695 108 681 105 q 744 126 710 111 l 760 76 m 276 705 q 248 716 264 707 q 218 733 231 725 l 320 1019 q 345 1016 328 1018 q 379 1012 361 1015 q 412 1008 396 1010 q 434 1002 427 1005 l 454 964 l 276 705 m 489 705 q 461 716 478 707 q 431 733 444 725 l 533 1019 q 557 1016 541 1018 q 591 1012 574 1015 q 624 1008 609 1010 q 647 1002 640 1005 l 666 964 l 489 705 "},"ń":{"x_min":32,"x_max":777,"ha":792,"o":"m 441 0 l 441 49 q 508 71 488 62 q 528 90 528 81 l 528 399 q 524 461 528 436 q 512 500 520 485 q 491 521 504 515 q 458 528 478 528 q 424 523 442 528 q 384 508 406 519 q 337 479 363 498 q 279 433 310 461 l 279 90 q 301 69 279 80 q 368 49 324 59 l 368 0 l 32 0 l 32 49 q 96 70 75 61 q 118 90 118 79 l 118 467 q 118 509 118 493 q 109 534 118 525 q 83 546 101 542 q 32 555 65 550 l 32 602 q 91 610 63 605 q 144 620 119 615 q 193 634 169 626 q 241 651 217 641 l 273 622 l 273 525 q 422 621 354 592 q 541 651 489 651 q 596 641 569 651 q 643 612 622 632 q 675 558 663 591 q 688 477 688 525 l 688 90 q 692 81 688 86 q 706 72 696 77 q 733 62 716 67 q 777 49 750 56 l 777 0 l 441 0 m 363 705 q 349 709 357 705 q 332 717 341 713 q 316 726 323 722 q 305 734 309 731 l 446 1025 q 475 1021 454 1024 q 521 1014 497 1018 q 568 1005 546 1010 q 597 999 590 1001 l 617 962 l 363 705 "},";":{"x_min":58.421875,"x_max":319,"ha":367,"o":"m 319 46 q 303 -31 319 10 q 262 -115 288 -74 q 200 -194 235 -157 q 125 -258 165 -232 l 80 -224 q 138 -133 117 -180 q 160 -27 160 -85 q 153 2 160 -12 q 135 28 147 17 q 107 45 124 39 q 69 52 90 52 l 58 103 q 75 116 62 109 q 105 131 87 124 q 145 147 124 139 q 187 161 166 155 q 225 171 207 168 q 255 175 243 175 q 303 129 287 159 q 319 46 319 100 m 305 559 q 295 510 305 532 q 269 473 285 488 q 230 450 253 458 q 183 443 208 443 q 146 448 164 443 q 115 464 128 453 q 94 492 102 475 q 87 534 87 510 q 96 583 87 561 q 123 619 106 604 q 163 642 140 634 q 209 651 185 651 q 245 645 227 651 q 275 628 262 640 q 297 600 289 617 q 305 559 305 583 "},"Ġ":{"x_min":37,"x_max":791,"ha":819,"o":"m 728 805 q 728 793 731 803 q 719 769 726 783 q 704 740 713 756 q 686 708 695 723 q 668 682 677 693 q 654 665 660 670 l 612 674 q 568 729 590 707 q 521 765 545 752 q 472 784 497 778 q 417 790 446 790 q 378 783 400 790 q 332 760 356 776 q 286 716 309 744 q 245 650 263 689 q 216 556 227 610 q 205 432 205 502 q 225 276 205 341 q 280 169 246 211 q 358 107 314 127 q 449 87 402 87 q 514 93 485 87 q 567 112 543 100 l 567 318 q 564 333 567 326 q 551 347 561 340 q 518 360 540 354 q 460 374 497 367 l 460 424 l 791 424 l 791 374 q 740 349 753 365 q 727 318 727 334 l 727 114 q 634 47 677 73 q 554 6 592 21 q 484 -14 517 -8 q 421 -20 451 -20 q 325 -8 372 -20 q 235 25 278 2 q 156 82 193 47 q 93 163 120 116 q 51 267 66 209 q 37 394 37 325 q 72 596 37 507 q 169 747 107 685 q 316 842 232 809 q 500 875 401 875 q 552 870 522 875 q 614 856 582 865 q 676 834 646 847 q 728 805 707 822 m 528 1049 q 519 1003 528 1024 q 497 965 511 981 q 464 939 483 948 q 424 930 445 930 q 365 951 385 930 q 345 1012 345 972 q 353 1059 345 1037 q 376 1097 362 1081 q 409 1122 390 1113 q 449 1132 428 1132 q 507 1111 486 1132 q 528 1049 528 1091 "},"6":{"x_min":63,"x_max":645,"ha":688,"o":"m 361 438 q 299 418 333 438 q 234 364 265 399 q 245 227 234 284 q 276 135 256 170 q 323 83 296 99 q 381 67 350 67 q 429 81 410 67 q 460 120 449 96 q 476 174 471 144 q 481 236 481 205 q 470 339 481 300 q 442 400 459 378 q 404 430 425 422 q 361 438 383 438 m 645 279 q 637 213 645 248 q 613 145 629 178 q 574 82 597 112 q 520 29 551 52 q 450 -6 488 7 q 365 -20 411 -20 q 247 4 302 -20 q 151 74 192 29 q 86 181 110 119 q 63 321 63 244 q 94 504 63 416 q 189 662 126 592 q 346 781 252 733 q 563 847 439 830 l 581 787 q 442 737 500 769 q 342 662 383 705 q 276 568 301 619 q 242 462 252 518 q 327 515 284 497 q 404 533 369 533 q 505 514 460 533 q 581 462 550 495 q 628 382 612 428 q 645 279 645 335 "},"n":{"x_min":32,"x_max":777,"ha":792,"o":"m 441 0 l 441 49 q 508 71 488 62 q 528 90 528 81 l 528 399 q 524 461 528 436 q 512 500 520 485 q 491 521 504 515 q 458 528 478 528 q 424 523 442 528 q 384 508 406 519 q 337 479 363 498 q 279 433 310 461 l 279 90 q 301 69 279 80 q 368 49 324 59 l 368 0 l 32 0 l 32 49 q 96 70 75 61 q 118 90 118 79 l 118 467 q 118 509 118 493 q 109 534 118 525 q 83 546 101 542 q 32 555 65 550 l 32 602 q 91 610 63 605 q 144 620 119 615 q 193 634 169 626 q 241 651 217 641 l 273 622 l 273 525 q 422 621 354 592 q 541 651 489 651 q 596 641 569 651 q 643 612 622 632 q 675 558 663 591 q 688 477 688 525 l 688 90 q 692 81 688 86 q 706 72 696 77 q 733 62 716 67 q 777 49 750 56 l 777 0 l 441 0 "},"¤":{"x_min":66.65625,"x_max":622,"ha":688,"o":"m 243 513 q 210 463 221 491 q 200 407 200 435 q 210 352 200 378 q 241 304 220 325 q 291 270 264 281 q 345 260 317 260 q 399 270 373 260 q 447 303 426 281 q 479 352 468 325 q 490 408 490 379 q 479 464 490 436 q 446 513 468 491 q 399 545 425 534 q 345 556 373 556 q 291 545 317 556 q 243 513 264 534 m 565 124 l 474 216 q 413 186 446 196 q 345 176 380 176 q 277 186 310 176 q 213 218 243 196 l 120 124 l 93 124 q 79 150 86 135 q 66 180 71 165 l 158 274 q 128 337 138 304 q 118 405 118 371 q 128 475 118 441 q 158 540 138 509 l 68 634 l 68 664 q 94 678 80 671 q 122 691 108 685 l 214 597 q 345 641 275 641 q 412 630 379 641 q 474 597 444 619 l 565 691 l 594 691 l 620 633 l 529 541 q 561 475 550 510 q 572 405 572 441 q 561 337 572 371 q 530 273 551 304 l 622 180 l 622 150 l 565 124 "},"Ĝ":{"x_min":37,"x_max":791,"ha":819,"o":"m 728 805 q 728 793 731 803 q 719 769 726 783 q 704 740 713 756 q 686 708 695 723 q 668 682 677 693 q 654 665 660 670 l 612 674 q 568 729 590 707 q 521 765 545 752 q 472 784 497 778 q 417 790 446 790 q 378 783 400 790 q 332 760 356 776 q 286 716 309 744 q 245 650 263 689 q 216 556 227 610 q 205 432 205 502 q 225 276 205 341 q 280 169 246 211 q 358 107 314 127 q 449 87 402 87 q 514 93 485 87 q 567 112 543 100 l 567 318 q 564 333 567 326 q 551 347 561 340 q 518 360 540 354 q 460 374 497 367 l 460 424 l 791 424 l 791 374 q 740 349 753 365 q 727 318 727 334 l 727 114 q 634 47 677 73 q 554 6 592 21 q 484 -14 517 -8 q 421 -20 451 -20 q 325 -8 372 -20 q 235 25 278 2 q 156 82 193 47 q 93 163 120 116 q 51 267 66 209 q 37 394 37 325 q 72 596 37 507 q 169 747 107 685 q 316 842 232 809 q 500 875 401 875 q 552 870 522 875 q 614 856 582 865 q 676 834 646 847 q 728 805 707 822 m 661 963 q 644 939 653 950 q 623 922 634 927 l 436 1033 l 250 922 q 229 939 239 927 q 210 963 220 950 l 396 1182 l 477 1182 l 661 963 "},"p":{"x_min":32,"x_max":718,"ha":761,"o":"m 568 289 q 554 401 568 354 q 519 477 541 447 q 470 521 497 507 q 413 536 442 536 q 390 533 401 536 q 363 522 378 530 q 328 499 348 514 q 279 460 308 484 l 279 155 q 339 121 314 134 q 384 103 365 109 q 420 95 404 97 q 452 94 436 94 q 499 106 478 94 q 536 144 520 119 q 559 205 551 169 q 568 289 568 242 m 718 339 q 706 250 718 294 q 675 167 694 207 q 629 92 655 127 q 575 33 603 58 q 516 -5 546 8 q 459 -20 486 -20 q 420 -15 440 -20 q 379 -2 400 -11 q 333 21 357 6 q 279 56 308 35 l 279 -233 q 304 -255 279 -244 q 392 -275 329 -266 l 392 -325 l 32 -325 l 32 -275 q 97 -254 75 -264 q 119 -233 119 -245 l 119 467 q 117 509 119 492 q 106 535 115 525 q 81 549 98 545 q 32 554 63 554 l 32 602 q 97 611 69 607 q 149 622 125 616 q 194 635 172 628 q 241 651 215 641 l 272 622 l 272 539 q 343 593 311 572 q 402 628 375 615 q 452 646 429 641 q 493 651 474 651 q 580 632 539 651 q 651 575 620 614 q 700 478 682 536 q 718 339 718 419 "},"‡":{"x_min":36.46875,"x_max":632.203125,"ha":669,"o":"m 632 753 q 616 720 627 742 q 593 673 606 698 q 568 626 581 649 q 547 591 555 603 q 505 612 525 603 q 463 629 484 622 q 420 641 443 637 q 373 649 398 646 q 387 570 376 608 q 420 488 398 532 q 389 406 400 445 q 374 331 377 368 q 610 385 495 331 l 632 351 q 616 317 627 339 q 593 271 606 295 q 568 224 581 246 q 547 188 555 201 q 506 208 526 199 q 464 225 485 218 q 421 238 443 233 q 373 246 398 243 q 377 192 373 216 q 388 145 381 168 q 406 101 396 123 q 430 54 416 79 q 395 33 417 46 q 349 9 373 21 q 304 -12 325 -1 q 271 -27 283 -22 l 237 -5 q 279 119 263 58 q 295 246 295 180 q 175 226 233 241 q 58 188 117 212 l 36 223 q 51 256 41 234 q 75 302 62 278 q 100 349 87 326 q 120 385 112 372 q 163 363 142 373 q 204 346 183 353 q 247 334 225 339 q 295 326 269 329 q 279 405 290 365 q 247 488 267 445 q 280 571 269 532 q 295 650 292 609 q 175 629 233 644 q 58 591 116 614 l 36 625 q 51 658 41 637 q 75 704 62 680 q 100 752 87 729 q 120 787 112 774 q 204 746 164 761 q 295 732 244 732 q 290 784 295 760 q 277 831 285 809 q 259 876 270 853 q 237 922 249 898 q 272 942 250 930 q 318 966 294 954 q 364 988 342 978 q 396 1003 385 998 l 430 981 q 391 857 407 919 q 375 732 375 796 q 493 747 436 732 q 610 787 551 762 l 632 753 "},"ň":{"x_min":32,"x_max":777,"ha":792,"o":"m 441 0 l 441 49 q 508 71 488 62 q 528 90 528 81 l 528 399 q 524 461 528 436 q 512 500 520 485 q 491 521 504 515 q 458 528 478 528 q 424 523 442 528 q 384 508 406 519 q 337 479 363 498 q 279 433 310 461 l 279 90 q 301 69 279 80 q 368 49 324 59 l 368 0 l 32 0 l 32 49 q 96 70 75 61 q 118 90 118 79 l 118 467 q 118 509 118 493 q 109 534 118 525 q 83 546 101 542 q 32 555 65 550 l 32 602 q 91 610 63 605 q 144 620 119 615 q 193 634 169 626 q 241 651 217 641 l 273 622 l 273 525 q 422 621 354 592 q 541 651 489 651 q 596 641 569 651 q 643 612 622 632 q 675 558 663 591 q 688 477 688 525 l 688 90 q 692 81 688 86 q 706 72 696 77 q 733 62 716 67 q 777 49 750 56 l 777 0 l 441 0 m 446 722 l 355 722 l 175 980 q 193 1007 183 993 q 214 1026 202 1021 l 401 878 l 586 1026 q 609 1007 597 1021 q 630 980 621 993 l 446 722 "},"S":{"x_min":70,"x_max":644,"ha":699,"o":"m 644 256 q 635 193 644 225 q 608 130 626 161 q 562 72 590 100 q 498 24 535 45 q 415 -7 461 4 q 312 -20 369 -20 q 258 -15 289 -20 q 194 -2 227 -10 q 131 18 162 6 q 77 46 100 30 q 72 59 74 47 q 70 89 70 71 q 70 129 70 107 q 70 174 70 152 q 73 219 70 197 q 82 259 77 242 l 130 259 q 167 184 145 217 q 216 127 189 151 q 274 90 243 103 q 339 77 306 77 q 397 85 369 77 q 446 111 425 94 q 481 152 468 127 q 494 210 494 177 q 476 281 494 251 q 428 335 458 311 q 361 377 399 358 q 284 415 323 396 q 207 454 244 433 q 140 502 169 475 q 92 565 110 530 q 75 651 75 601 q 92 722 75 683 q 147 795 110 761 q 241 851 183 828 q 380 875 299 875 q 450 870 415 875 q 514 857 485 865 q 567 837 544 849 q 602 812 590 826 q 604 800 606 809 q 598 778 602 790 q 586 750 594 765 q 572 721 579 735 q 557 697 565 708 q 545 681 550 686 l 501 685 q 467 739 486 717 q 427 773 448 760 q 385 791 406 786 q 345 797 364 797 q 289 788 312 797 q 250 764 265 779 q 227 730 234 749 q 221 693 221 712 q 239 636 221 661 q 287 590 257 612 q 354 550 316 569 q 432 511 392 531 q 510 466 472 490 q 577 413 548 443 q 625 344 607 383 q 644 256 644 306 "},"/":{"x_min":23.265625,"x_max":624.734375,"ha":648,"o":"m 160 -187 q 139 -198 154 -192 q 108 -209 124 -204 q 76 -219 91 -214 q 52 -227 60 -224 l 23 -205 l 489 1047 q 512 1058 497 1053 q 541 1069 526 1063 q 571 1078 556 1074 q 594 1085 585 1082 l 624 1065 l 160 -187 "},"ⱡ":{"x_min":32.09375,"x_max":441.5625,"ha":473,"o":"m 412 393 l 317 393 l 317 90 q 321 80 317 85 q 337 69 326 74 q 365 59 348 64 q 411 49 383 53 l 411 0 l 62 0 l 62 49 q 109 59 90 53 q 138 69 127 64 q 153 79 149 74 q 157 90 157 85 l 157 393 l 46 393 l 32 407 q 37 423 33 413 q 45 443 40 433 q 53 464 49 454 q 60 480 58 474 l 157 480 l 157 569 l 46 569 l 32 583 q 37 599 33 589 q 45 619 40 609 q 53 640 49 630 q 60 656 58 650 l 157 656 l 157 858 q 153 905 157 888 q 140 930 150 922 q 113 942 131 939 q 68 948 96 945 l 68 996 q 130 1006 101 1001 q 185 1017 159 1011 q 236 1031 211 1023 q 287 1050 261 1039 l 317 1022 l 317 656 l 426 656 l 441 639 l 412 569 l 317 569 l 317 480 l 426 480 l 441 463 l 412 393 "},"y":{"x_min":-41,"x_max":683,"ha":692,"o":"m 683 581 q 650 572 663 576 q 629 563 637 568 q 617 551 621 558 q 610 535 613 545 l 388 -50 q 326 -178 359 -125 q 255 -266 292 -232 q 177 -317 218 -301 q 94 -334 137 -334 q 44 -329 69 -334 q 1 -317 20 -324 q -29 -302 -17 -310 q -41 -287 -41 -293 q -29 -264 -41 -281 q -2 -227 -18 -247 q 29 -190 12 -207 q 56 -165 46 -172 q 123 -192 90 -187 q 181 -188 157 -197 q 234 -149 206 -179 q 286 -62 262 -120 l 305 -15 l 82 535 q 58 563 75 553 q 9 581 42 574 l 9 631 l 310 631 l 310 581 q 270 574 284 578 q 250 565 256 570 q 244 553 244 560 q 250 535 245 546 l 387 194 l 517 535 q 522 552 521 545 q 518 564 523 559 q 501 573 513 569 q 466 581 488 577 l 466 631 l 683 631 l 683 581 "},"ˊ":{"x_min":0,"x_max":311.703125,"ha":312,"o":"m 57 705 q 43 709 51 705 q 26 717 35 713 q 10 726 17 722 q 0 734 3 731 l 140 1025 q 169 1021 148 1024 q 216 1014 191 1018 q 262 1005 240 1010 q 291 999 284 1001 l 311 962 l 57 705 "},"g":{"x_min":10,"x_max":702.625,"ha":704,"o":"m 444 407 q 435 471 444 441 q 408 524 426 501 q 365 559 391 546 q 306 573 340 573 q 272 565 289 573 q 240 541 254 557 q 217 502 226 526 q 209 447 209 478 q 216 383 209 413 q 241 330 224 353 q 284 295 258 308 q 346 282 310 282 q 383 289 366 282 q 414 313 401 297 q 436 352 428 328 q 444 407 444 375 m 369 -27 q 309 -18 337 -23 q 257 -7 281 -12 q 209 -46 226 -29 q 183 -77 191 -63 q 172 -102 174 -91 q 170 -123 170 -113 q 186 -166 170 -146 q 231 -203 202 -187 q 298 -227 259 -218 q 382 -237 337 -237 q 450 -227 421 -237 q 497 -200 478 -217 q 525 -161 516 -183 q 535 -116 535 -139 q 529 -90 535 -103 q 505 -65 523 -77 q 454 -44 487 -54 q 369 -27 422 -34 m 597 435 q 574 340 597 383 q 513 266 551 297 q 426 218 475 235 q 320 201 376 201 l 314 201 q 281 162 288 177 q 275 143 275 148 q 278 132 275 137 q 297 120 282 126 q 343 108 312 114 q 425 95 373 102 q 554 70 503 85 q 635 36 605 56 q 678 -10 666 15 q 690 -70 690 -37 q 675 -134 690 -102 q 636 -195 661 -166 q 576 -250 610 -225 q 503 -294 543 -275 q 421 -323 464 -312 q 335 -334 378 -334 q 263 -329 301 -334 q 189 -315 226 -325 q 121 -291 153 -306 q 63 -256 88 -276 q 24 -209 39 -235 q 10 -150 10 -182 q 16 -115 10 -133 q 42 -77 23 -97 q 93 -34 61 -57 q 177 17 125 -10 q 101 84 101 48 q 107 104 101 91 q 127 133 113 116 q 165 170 142 150 q 221 213 188 190 q 154 242 184 223 q 101 285 123 260 q 68 341 80 310 q 56 408 56 372 q 79 502 56 458 q 143 579 103 546 q 236 631 183 612 q 347 651 289 651 q 433 638 393 651 q 505 603 473 625 q 609 625 562 610 q 684 651 656 640 l 702 625 q 696 608 700 618 q 687 587 692 598 q 676 566 682 577 q 664 548 670 556 q 618 540 642 543 q 567 538 595 538 q 589 488 581 513 q 597 435 597 462 "},"²":{"x_min":37.46875,"x_max":430,"ha":473,"o":"m 430 420 l 50 420 l 37 449 q 169 590 119 533 q 248 684 220 646 q 286 748 276 723 q 296 795 296 774 q 282 849 296 830 q 234 869 268 869 q 188 846 201 869 q 181 793 175 824 q 158 785 173 789 q 126 777 143 781 q 92 771 109 774 q 65 768 76 768 l 49 795 q 66 839 49 816 q 113 880 83 861 q 183 911 143 899 q 266 923 222 923 q 332 916 303 923 q 382 896 361 910 q 414 864 403 883 q 426 819 426 844 q 421 783 426 801 q 406 746 416 766 q 377 703 395 726 q 331 650 359 679 q 266 583 303 620 q 179 498 228 546 l 346 498 q 370 510 361 498 q 385 537 380 522 q 393 577 391 554 l 430 569 l 430 420 "},"–":{"x_min":35.21875,"x_max":623.40625,"ha":658,"o":"m 623 375 q 617 356 621 367 q 608 334 613 345 q 599 313 604 323 q 592 298 595 303 l 56 298 l 35 319 q 40 337 37 327 q 49 358 44 348 q 58 379 53 369 q 65 396 62 389 l 602 396 l 623 375 "},"ë":{"x_min":43,"x_max":615,"ha":658,"o":"m 338 570 q 285 557 307 570 q 246 522 262 545 q 222 467 231 499 q 209 394 213 434 l 430 394 q 451 399 446 394 q 456 418 456 404 q 450 464 456 438 q 431 514 445 490 q 395 553 418 537 q 338 570 372 570 m 615 373 q 597 358 609 366 q 573 343 586 350 q 546 328 559 335 q 522 318 532 322 l 208 318 q 219 228 208 269 q 252 157 231 187 q 304 110 274 127 q 374 94 334 94 q 414 96 394 94 q 457 107 434 98 q 508 132 480 116 q 576 176 537 148 q 586 167 580 174 q 596 154 591 161 q 605 141 601 147 q 611 132 609 135 q 528 55 565 85 q 458 8 492 25 q 391 -13 425 -7 q 318 -20 358 -20 q 212 3 262 -20 q 124 68 161 26 q 64 169 86 110 q 43 299 43 228 q 77 464 43 392 q 179 587 111 536 q 218 612 197 600 q 263 632 240 623 q 312 645 287 640 q 363 651 337 651 q 475 628 428 651 q 554 566 523 605 q 600 478 585 528 q 615 373 615 428 m 588 859 q 579 813 588 834 q 557 775 571 791 q 523 749 542 758 q 483 740 504 740 q 424 761 444 740 q 405 822 405 782 q 413 869 405 847 q 436 907 422 891 q 469 932 450 923 q 508 942 488 942 q 567 921 546 942 q 588 859 588 901 m 307 859 q 298 813 307 834 q 276 775 290 791 q 243 749 262 758 q 203 740 224 740 q 144 761 164 740 q 124 822 124 782 q 132 869 124 847 q 155 907 141 891 q 188 932 169 923 q 227 942 207 942 q 286 921 265 942 q 307 859 307 901 "},"J":{"x_min":-176,"x_max":414,"ha":455,"o":"m 414 805 q 345 784 368 796 q 322 763 322 772 l 322 124 q 307 -3 322 50 q 269 -95 292 -57 q 219 -161 246 -134 q 165 -210 191 -188 q 125 -238 147 -225 q 78 -261 102 -251 q 30 -277 55 -271 q -16 -283 5 -283 q -75 -275 -46 -283 q -125 -258 -103 -268 q -162 -237 -148 -248 q -176 -218 -176 -226 q -162 -194 -176 -211 q -129 -160 -148 -177 q -92 -127 -110 -142 q -64 -110 -73 -113 q 4 -155 -27 -142 q 61 -169 35 -169 q 95 -160 78 -169 q 125 -126 112 -152 q 147 -52 139 -100 q 156 75 156 -4 l 156 763 q 151 772 156 767 q 133 782 147 777 q 95 793 120 787 q 32 805 71 799 l 32 855 l 414 855 l 414 805 "},"Ã":{"x_min":0,"x_max":841,"ha":855,"o":"m 496 373 l 386 688 l 286 373 l 496 373 m 260 292 l 196 95 q 212 65 189 74 q 290 49 235 55 l 290 0 l 0 0 l 0 49 q 69 66 45 57 q 100 95 93 75 l 331 818 q 366 843 347 831 q 404 863 384 854 q 443 880 423 873 q 479 892 462 887 l 758 95 q 767 78 761 86 q 781 65 772 71 q 805 56 791 60 q 841 49 819 52 l 841 0 l 511 0 l 511 51 q 581 61 562 51 q 592 95 599 72 l 524 292 l 260 292 m 682 1123 q 653 1062 670 1095 q 613 1001 635 1029 q 565 953 591 972 q 507 934 538 934 q 453 945 478 934 q 402 969 427 956 q 353 993 377 982 q 304 1005 329 1005 q 276 999 288 1005 q 253 985 264 994 q 231 960 242 975 q 209 927 220 946 l 159 946 q 188 1007 171 974 q 227 1069 205 1040 q 275 1117 249 1098 q 332 1137 302 1137 q 390 1125 363 1137 q 443 1101 418 1114 q 490 1077 468 1088 q 534 1066 513 1066 q 586 1084 564 1066 q 631 1143 608 1103 l 682 1123 "},"ŷ":{"x_min":-41,"x_max":683,"ha":692,"o":"m 683 581 q 650 572 663 576 q 629 563 637 568 q 617 551 621 558 q 610 535 613 545 l 388 -50 q 326 -178 359 -125 q 255 -266 292 -232 q 177 -317 218 -301 q 94 -334 137 -334 q 44 -329 69 -334 q 1 -317 20 -324 q -29 -302 -17 -310 q -41 -287 -41 -293 q -29 -264 -41 -281 q -2 -227 -18 -247 q 29 -190 12 -207 q 56 -165 46 -172 q 123 -192 90 -187 q 181 -188 157 -197 q 234 -149 206 -179 q 286 -62 262 -120 l 305 -15 l 82 535 q 58 563 75 553 q 9 581 42 574 l 9 631 l 310 631 l 310 581 q 270 574 284 578 q 250 565 256 570 q 244 553 244 560 q 250 535 245 546 l 387 194 l 517 535 q 522 552 521 545 q 518 564 523 559 q 501 573 513 569 q 466 581 488 577 l 466 631 l 683 631 l 683 581 m 587 750 q 569 724 579 738 q 548 705 560 710 l 362 856 l 176 705 q 153 724 165 710 q 131 750 141 738 l 317 1013 l 408 1013 l 587 750 "},"ŕ":{"x_min":32,"x_max":586,"ha":605,"o":"m 582 621 q 586 603 586 618 q 583 568 586 589 q 574 521 580 547 q 563 471 569 495 q 550 426 557 447 q 538 393 544 405 l 489 393 q 482 444 489 420 q 467 486 476 469 q 445 515 458 504 q 416 526 432 526 q 387 520 403 526 q 354 501 371 515 q 318 459 337 486 q 279 387 299 432 l 279 90 q 306 69 279 80 q 397 49 334 59 l 397 0 l 32 0 l 32 49 q 119 90 119 69 l 119 450 q 117 488 119 472 q 114 512 116 503 q 109 527 112 522 q 103 536 106 533 q 94 544 99 541 q 81 549 89 547 q 62 552 74 551 q 32 554 50 554 l 32 602 q 95 612 68 607 q 145 622 122 617 q 190 634 168 627 q 241 651 213 641 l 269 622 l 277 524 q 318 573 295 550 q 366 614 340 596 q 420 641 392 631 q 476 651 448 651 q 529 643 502 651 q 582 621 557 635 m 294 705 q 280 709 288 705 q 263 717 271 713 q 247 726 254 722 q 236 734 240 731 l 377 1025 q 406 1021 385 1024 q 452 1014 428 1018 q 499 1005 477 1010 q 528 999 521 1001 l 548 962 l 294 705 "},"ˀ":{"x_min":11,"x_max":412,"ha":415,"o":"m 151 550 l 151 628 q 161 684 151 659 q 189 729 172 709 q 225 769 206 750 q 260 807 244 787 q 288 848 277 826 q 299 896 299 869 q 292 940 299 921 q 272 970 285 958 q 243 988 260 982 q 207 995 227 995 q 179 988 193 995 q 154 972 165 982 q 137 948 144 962 q 131 919 131 934 q 132 907 131 913 q 136 895 134 901 q 114 888 129 892 q 83 880 99 883 q 50 873 66 876 q 24 870 34 870 l 11 882 q 11 888 11 885 l 11 895 q 28 956 11 928 q 77 1005 46 984 q 149 1038 108 1026 q 237 1051 190 1051 q 312 1040 280 1051 q 367 1011 345 1030 q 400 968 389 992 q 412 915 412 943 q 401 861 412 884 q 373 820 390 839 q 337 785 356 802 q 302 749 318 768 q 274 708 285 730 q 264 656 264 685 l 264 550 l 151 550 "},"©":{"x_min":56,"x_max":937,"ha":993,"o":"m 709 280 q 643 217 674 241 q 586 180 613 193 q 533 163 558 167 q 481 158 507 158 q 391 177 435 158 q 314 232 348 196 q 260 318 280 267 q 240 433 240 369 q 263 552 240 497 q 327 650 286 608 q 424 715 368 691 q 547 740 480 740 q 592 735 569 740 q 635 724 615 731 q 673 708 656 717 q 700 689 690 699 q 696 663 701 683 q 684 619 692 642 q 667 574 676 595 q 652 546 658 553 l 616 551 q 601 595 610 574 q 579 633 592 617 q 549 660 567 650 q 508 670 532 670 q 456 657 481 670 q 412 619 431 645 q 382 552 393 593 q 372 454 372 511 q 386 370 372 407 q 423 306 400 332 q 475 266 446 280 q 533 252 504 252 q 562 254 548 252 q 593 263 577 256 q 630 282 609 270 q 679 316 651 295 q 684 310 680 316 q 694 298 689 304 q 704 285 699 291 q 709 280 708 280 m 858 452 q 831 603 858 532 q 755 727 804 674 q 641 810 707 779 q 495 841 574 841 q 351 810 417 841 q 237 727 285 779 q 161 603 188 674 q 135 452 135 532 q 161 300 135 371 q 237 176 188 228 q 351 92 285 123 q 495 62 417 62 q 641 92 574 62 q 755 176 707 123 q 831 300 804 228 q 858 452 858 371 m 937 452 q 922 326 937 386 q 879 213 907 266 q 812 118 851 161 q 723 44 772 74 q 617 -3 674 13 q 495 -20 559 -20 q 374 -3 432 -20 q 268 44 317 13 q 180 118 220 74 q 113 213 141 161 q 70 326 85 266 q 56 452 56 386 q 88 635 56 549 q 180 784 121 720 q 319 885 239 848 q 495 922 400 922 q 617 905 559 922 q 723 857 674 888 q 812 784 772 827 q 879 689 851 741 q 922 577 907 637 q 937 452 937 517 "},"˘":{"x_min":6.640625,"x_max":478.515625,"ha":485,"o":"m 478 927 q 431 833 458 872 q 374 769 405 794 q 311 732 344 744 q 243 721 277 721 q 173 732 207 721 q 108 769 138 744 q 52 833 78 794 q 6 927 26 872 q 16 940 10 933 q 30 953 23 947 q 44 965 37 960 q 57 973 51 970 q 96 919 73 941 q 143 881 118 896 q 193 858 168 865 q 241 851 219 851 q 290 858 264 851 q 341 880 316 865 q 389 918 366 895 q 428 973 412 941 q 441 965 434 970 q 455 953 448 960 q 468 940 462 947 q 478 927 474 933 "},"Ă":{"x_min":0,"x_max":841,"ha":855,"o":"m 496 373 l 386 688 l 286 373 l 496 373 m 260 292 l 196 95 q 212 65 189 74 q 290 49 235 55 l 290 0 l 0 0 l 0 49 q 69 66 45 57 q 100 95 93 75 l 331 818 q 366 843 347 832 q 404 864 384 855 q 443 880 423 873 q 479 893 462 887 l 758 95 q 767 78 761 86 q 781 65 772 71 q 805 56 791 60 q 841 49 819 52 l 841 0 l 511 0 l 511 51 q 581 61 562 51 q 592 95 599 72 l 524 292 l 260 292 m 656 1144 q 609 1050 636 1089 q 552 986 583 1011 q 488 949 522 961 q 421 938 455 938 q 350 949 385 938 q 286 986 316 961 q 230 1050 256 1011 q 184 1144 204 1089 q 194 1157 188 1150 q 208 1170 201 1164 q 221 1182 215 1177 q 234 1190 228 1187 q 273 1136 250 1158 q 321 1098 296 1113 q 371 1075 345 1082 q 419 1068 397 1068 q 468 1075 442 1068 q 519 1097 494 1082 q 566 1135 544 1112 q 605 1190 589 1158 q 618 1182 611 1187 q 632 1170 625 1177 q 646 1157 639 1164 q 656 1144 652 1150 "},"D":{"x_min":20.359375,"x_max":812,"ha":867,"o":"m 812 456 q 795 305 812 372 q 748 188 778 239 q 680 101 719 137 q 596 43 641 66 q 504 10 552 20 q 411 0 457 0 l 29 0 l 29 49 q 97 70 74 59 q 120 91 120 81 l 120 784 l 29 771 l 20 833 q 97 850 52 842 q 192 864 142 858 q 291 871 241 871 q 384 871 341 871 q 566 842 486 871 q 700 761 645 814 q 783 631 754 708 q 812 456 812 554 m 336 802 q 311 802 324 802 q 286 802 299 802 l 286 113 q 287 104 286 108 q 294 90 289 96 q 311 81 299 85 q 340 75 322 77 q 387 73 359 73 q 440 81 412 73 q 496 109 468 90 q 549 157 524 128 q 592 225 574 186 q 622 317 611 265 q 634 431 634 368 q 614 590 634 521 q 557 706 595 659 q 464 777 520 753 q 336 802 409 802 "},"ÿ":{"x_min":-41,"x_max":683,"ha":692,"o":"m 683 581 q 650 572 663 576 q 629 563 637 568 q 617 551 621 558 q 609 535 613 545 l 387 -50 q 325 -178 359 -125 q 255 -266 292 -232 q 177 -317 218 -301 q 94 -334 137 -334 q 44 -329 69 -334 q 1 -317 20 -324 q -29 -302 -17 -310 q -41 -287 -41 -293 q -29 -264 -41 -281 q -2 -227 -18 -247 q 29 -190 12 -207 q 56 -165 46 -172 q 123 -192 90 -187 q 181 -188 157 -197 q 234 -149 206 -179 q 286 -62 262 -120 l 305 -15 l 82 535 q 58 563 75 553 q 9 581 42 574 l 9 631 l 310 631 l 310 581 q 270 574 284 578 q 250 565 256 570 q 244 553 244 560 q 250 535 245 546 l 387 194 l 517 535 q 522 552 521 545 q 518 564 523 559 q 501 573 513 569 q 466 581 488 577 l 466 631 l 683 631 l 683 581 m 594 859 q 585 813 594 834 q 563 775 577 791 q 529 749 548 758 q 489 740 510 740 q 430 761 450 740 q 411 822 411 782 q 419 869 411 847 q 442 907 428 891 q 475 932 456 923 q 514 942 494 942 q 573 921 552 942 q 594 859 594 901 m 313 859 q 304 813 313 834 q 282 775 296 791 q 249 749 268 758 q 209 740 230 740 q 150 761 170 740 q 130 822 130 782 q 138 869 130 847 q 161 907 147 891 q 194 932 175 923 q 233 942 213 942 q 292 921 271 942 q 313 859 313 901 "},"ĺ":{"x_min":35,"x_max":443.15625,"ha":409,"o":"m 35 0 l 35 49 q 81 59 63 54 q 110 69 99 64 q 125 80 121 74 q 129 90 129 85 l 129 858 q 125 905 129 889 q 113 931 122 922 q 86 942 103 939 q 41 949 69 945 l 41 996 q 103 1006 74 1001 q 157 1017 131 1011 q 209 1032 183 1023 q 260 1051 234 1040 l 289 1023 l 289 90 q 293 80 289 85 q 309 69 298 75 q 338 59 320 64 q 384 49 356 54 l 384 0 l 35 0 m 121 1139 q 97 1158 109 1144 q 75 1184 85 1171 l 318 1415 q 352 1395 334 1407 q 388 1374 371 1384 q 418 1354 405 1363 q 437 1339 431 1344 l 443 1304 l 121 1139 "},"ł":{"x_min":24.40625,"x_max":419.265625,"ha":433,"o":"m 47 0 l 47 49 q 94 59 75 54 q 123 69 112 64 q 138 80 134 74 q 142 90 142 85 l 142 418 l 41 347 l 24 361 q 29 386 25 372 q 36 415 32 400 q 45 442 41 429 q 54 464 50 455 l 142 526 l 142 863 q 138 911 142 894 q 125 936 135 928 q 98 948 116 945 q 53 954 81 951 l 53 1002 q 115 1012 86 1007 q 170 1023 144 1017 q 221 1037 196 1029 q 272 1056 246 1045 l 302 1028 l 302 639 l 402 712 l 419 696 q 414 671 417 684 q 406 643 410 657 q 397 616 402 629 q 388 594 392 603 l 302 532 l 302 90 q 306 80 302 85 q 322 69 311 75 q 350 59 333 64 q 396 49 368 54 l 396 0 l 47 0 "},"Ł":{"x_min":17.03125,"x_max":677.734375,"ha":694,"o":"m 677 205 q 671 144 675 176 q 664 83 667 112 q 656 32 660 54 q 650 0 653 10 l 29 0 l 29 49 q 97 69 74 58 q 120 90 120 81 l 120 318 l 34 274 l 17 289 q 21 312 18 300 q 29 337 25 325 q 37 360 33 350 q 46 377 42 371 l 120 415 l 120 762 q 98 782 120 770 q 29 804 76 795 l 29 854 l 378 854 l 378 804 q 309 783 332 795 q 286 762 286 772 l 286 500 l 475 597 l 492 580 q 487 558 490 570 q 480 535 484 546 q 471 513 476 523 q 462 495 467 502 l 286 404 l 286 131 q 291 109 286 118 q 311 94 297 100 q 349 84 325 87 q 409 81 373 81 l 484 81 q 536 88 515 81 q 573 112 557 95 q 602 156 589 129 q 629 223 615 183 l 677 205 "},"$":{"x_min":52.109375,"x_max":633,"ha":689,"o":"m 189 645 q 197 606 189 623 q 221 576 206 589 q 256 551 236 562 q 302 530 277 540 l 302 741 q 253 729 274 738 q 218 708 232 721 q 196 679 204 695 q 189 645 189 663 m 493 215 q 484 263 493 242 q 461 300 476 284 q 426 330 446 317 q 382 354 405 343 l 382 94 q 423 106 403 97 q 459 130 443 115 q 484 166 475 145 q 493 215 493 187 m 382 -86 q 355 -105 370 -97 q 324 -117 341 -113 l 302 -97 l 302 -5 q 180 16 245 -5 q 57 75 115 38 q 53 90 54 77 q 52 120 52 102 q 52 160 52 138 q 52 203 52 182 q 55 244 52 225 q 62 276 58 263 l 111 276 q 146 210 127 240 q 188 157 165 180 q 240 118 212 134 q 302 96 268 102 l 302 386 q 213 420 257 402 q 134 462 169 437 q 76 523 98 487 q 55 613 55 560 q 66 676 55 642 q 107 739 78 709 q 183 792 136 770 q 302 821 230 814 l 302 909 q 317 919 311 915 q 330 927 324 924 q 342 933 336 930 q 359 938 349 936 l 382 919 l 382 821 q 451 814 416 821 q 515 798 485 808 q 569 776 545 788 q 604 752 592 764 q 603 727 608 747 q 588 682 598 707 q 568 636 579 658 q 548 606 557 614 l 502 611 q 450 689 479 658 q 382 733 421 720 l 382 500 q 471 464 426 484 q 552 416 516 445 q 610 348 588 388 q 633 251 633 308 q 619 169 633 210 q 574 93 605 128 q 496 32 544 58 q 382 -1 449 7 l 382 -86 "},"w":{"x_min":9,"x_max":967,"ha":976,"o":"m 967 581 q 936 572 948 576 q 917 563 925 567 q 906 553 910 559 q 900 539 903 547 l 753 40 q 737 14 749 25 q 710 -2 725 4 q 680 -13 695 -9 q 658 -20 666 -17 l 488 376 l 353 40 q 336 14 348 24 q 310 -3 324 3 q 282 -14 296 -10 q 260 -20 268 -17 l 81 539 q 59 562 77 551 q 9 581 42 574 l 9 631 l 310 631 l 310 581 q 265 573 281 578 q 242 563 249 569 q 235 551 235 557 q 236 539 235 545 l 336 219 l 495 631 l 546 631 l 713 219 l 809 539 q 811 553 811 546 q 805 564 811 559 q 786 573 799 569 q 751 581 773 577 l 751 631 l 967 631 l 967 581 "},"\\":{"x_min":26.578125,"x_max":611.4375,"ha":638,"o":"m 583 -227 q 560 -219 575 -224 q 531 -209 546 -214 q 502 -198 515 -204 q 482 -187 488 -192 l 26 1065 l 56 1085 q 79 1078 66 1082 q 107 1069 93 1074 q 133 1058 120 1063 q 156 1047 146 1053 l 611 -205 l 583 -227 "},"Ì":{"x_min":-14.5,"x_max":391,"ha":446,"o":"m 42 0 l 42 49 q 110 70 87 58 q 133 90 133 81 l 133 762 q 111 782 133 770 q 42 804 89 795 l 42 854 l 391 854 l 391 804 q 322 783 345 795 q 299 762 299 771 l 299 90 q 321 70 299 82 q 391 49 343 58 l 391 0 l 42 0 m 343 962 q 324 938 334 949 q 303 921 315 927 l -14 1080 l -7 1123 q 11 1139 -3 1128 q 44 1161 26 1150 q 77 1183 61 1173 q 101 1197 93 1193 l 343 962 "},"Ç":{"x_min":37,"x_max":712.453125,"ha":760,"o":"m 535 -155 q 517 -204 535 -180 q 467 -248 499 -228 q 390 -281 435 -267 q 294 -301 346 -296 l 270 -253 q 353 -224 328 -244 q 378 -182 378 -204 q 362 -150 378 -159 q 318 -137 347 -140 l 320 -134 q 327 -117 322 -132 q 343 -73 333 -103 q 361 -19 350 -52 q 258 7 309 -14 q 146 89 195 36 q 66 220 96 143 q 37 396 37 298 q 69 593 37 505 q 159 744 102 681 q 293 841 216 807 q 459 875 370 875 q 530 869 495 875 q 598 854 566 864 q 656 833 630 845 q 699 806 682 821 q 699 794 702 804 q 690 770 696 784 q 676 739 684 755 q 659 707 667 722 q 643 679 650 692 q 630 662 635 667 l 586 671 q 509 758 552 731 q 413 785 465 785 q 366 777 391 785 q 319 753 342 770 q 275 708 296 736 q 238 641 254 681 q 213 546 222 601 q 205 422 205 492 q 227 272 205 335 q 285 170 249 210 q 364 110 320 129 q 453 91 409 91 q 495 95 471 91 q 548 110 519 99 q 610 140 577 121 q 677 188 642 158 q 686 179 681 185 q 696 164 691 172 q 706 151 701 157 q 712 142 710 144 q 628 67 669 98 q 546 16 587 36 q 467 -12 506 -3 q 443 -16 455 -14 l 426 -60 q 506 -93 478 -70 q 535 -155 535 -117 "},"Ŝ":{"x_min":70,"x_max":644,"ha":699,"o":"m 644 256 q 635 193 644 225 q 608 130 626 161 q 562 72 590 100 q 498 24 535 45 q 415 -7 461 4 q 312 -20 369 -20 q 258 -15 289 -20 q 194 -2 227 -10 q 131 18 162 6 q 77 46 100 30 q 72 59 74 47 q 70 89 70 71 q 70 129 70 107 q 70 174 70 152 q 73 219 70 197 q 82 259 77 242 l 130 259 q 167 184 145 217 q 216 127 189 151 q 274 90 243 103 q 339 77 306 77 q 397 85 369 77 q 446 111 425 94 q 481 152 468 127 q 494 210 494 177 q 476 281 494 251 q 428 335 458 311 q 361 377 399 358 q 284 415 323 396 q 207 454 244 433 q 140 502 169 475 q 92 565 110 530 q 75 651 75 601 q 92 722 75 683 q 147 795 110 761 q 241 851 183 828 q 380 875 299 875 q 450 870 415 875 q 514 857 485 865 q 567 837 544 849 q 602 812 590 826 q 604 800 606 809 q 598 778 602 790 q 586 750 594 765 q 572 721 579 735 q 557 697 565 708 q 545 681 550 686 l 501 685 q 467 739 486 717 q 427 773 448 760 q 385 791 406 786 q 345 797 364 797 q 289 788 312 797 q 250 764 265 779 q 227 730 234 749 q 221 693 221 712 q 239 636 221 661 q 287 590 257 612 q 354 550 316 569 q 432 511 392 531 q 510 466 472 490 q 577 413 548 443 q 625 344 607 383 q 644 256 644 306 m 580 963 q 562 939 572 950 q 542 922 553 927 l 355 1033 l 169 922 q 149 939 158 927 q 130 963 139 950 l 315 1182 l 396 1182 l 580 963 "},"C":{"x_min":37,"x_max":712.09375,"ha":760,"o":"m 712 143 q 628 68 669 99 q 546 17 587 36 q 466 -11 506 -2 q 389 -20 427 -20 q 259 8 322 -20 q 146 90 195 36 q 66 221 96 143 q 37 397 37 299 q 69 593 37 505 q 159 744 102 681 q 293 841 216 807 q 459 875 370 875 q 530 869 495 875 q 597 854 565 864 q 655 833 629 845 q 699 806 682 821 q 699 794 702 804 q 690 770 696 784 q 675 739 684 755 q 658 707 667 722 q 642 680 650 692 q 629 662 635 667 l 586 671 q 509 758 552 731 q 413 785 465 785 q 366 777 391 785 q 319 753 342 770 q 275 708 296 736 q 238 641 254 681 q 213 547 222 601 q 205 422 205 493 q 227 273 205 335 q 285 170 249 211 q 364 111 320 130 q 452 92 409 92 q 495 96 470 92 q 548 111 519 100 q 609 141 577 122 q 677 189 642 159 q 686 180 680 186 q 696 165 691 173 q 705 151 701 158 q 712 143 710 145 "},"Ē":{"x_min":29,"x_max":683.859375,"ha":715,"o":"m 683 205 q 677 144 681 176 q 670 83 674 112 q 662 32 666 54 q 656 0 659 10 l 29 0 l 29 49 q 97 69 74 58 q 120 90 120 81 l 120 762 q 98 783 120 770 q 29 804 76 795 l 29 854 l 614 854 l 640 832 q 637 788 640 814 q 630 734 634 761 q 622 681 626 706 q 613 644 617 657 l 562 644 q 548 740 562 707 q 510 773 535 773 l 286 773 l 286 498 l 550 498 l 572 474 q 559 452 567 464 q 543 427 551 439 q 527 404 535 415 q 511 388 518 394 q 489 405 501 398 q 463 417 478 412 q 428 423 448 421 q 379 426 407 426 l 286 426 l 286 124 q 290 106 286 114 q 309 92 295 98 q 351 84 324 87 q 421 81 377 81 l 487 81 q 539 88 517 81 q 577 112 561 95 q 607 156 594 129 q 635 223 621 183 l 683 205 m 645 1075 q 639 1055 644 1068 q 628 1029 634 1043 q 616 1004 622 1015 q 608 986 611 992 l 101 986 l 80 1007 q 86 1027 82 1015 q 97 1053 91 1039 q 108 1078 103 1066 q 117 1097 114 1090 l 624 1097 l 645 1075 "},"!":{"x_min":98,"x_max":316,"ha":420,"o":"m 316 89 q 306 40 316 62 q 280 3 296 18 q 241 -19 263 -11 q 194 -27 218 -27 q 157 -21 174 -27 q 126 -5 139 -16 q 105 22 113 5 q 98 64 98 40 q 107 113 98 91 q 134 149 117 134 q 173 172 151 164 q 220 181 195 181 q 255 175 238 181 q 286 158 272 170 q 308 130 300 147 q 316 89 316 113 m 276 280 q 217 264 237 270 q 181 253 197 258 l 136 267 l 136 928 q 166 947 148 936 q 203 969 184 958 q 240 990 223 980 q 269 1004 258 999 l 276 982 l 276 280 "},"ç":{"x_min":43,"x_max":593.625,"ha":620,"o":"m 472 -155 q 454 -204 472 -180 q 404 -247 436 -228 q 328 -281 372 -267 q 232 -301 283 -296 l 207 -253 q 290 -224 265 -244 q 315 -182 315 -204 q 299 -149 315 -159 q 255 -137 284 -140 l 257 -134 q 264 -117 259 -131 q 280 -73 270 -103 q 298 -20 287 -53 q 215 0 255 -16 q 127 64 165 23 q 65 165 88 106 q 43 300 43 225 q 69 437 43 374 q 143 548 96 501 q 257 623 191 595 q 402 650 322 650 q 451 647 424 650 q 505 636 479 643 q 554 619 532 629 q 588 597 577 609 q 586 578 588 591 q 579 546 584 564 q 569 509 575 529 q 557 472 563 489 q 545 440 551 454 q 535 420 539 426 l 491 426 q 437 529 469 493 q 352 566 405 566 q 296 552 323 566 q 248 509 269 538 q 215 433 228 479 q 203 321 203 387 q 216 224 203 267 q 253 153 230 182 q 309 108 277 124 q 377 93 341 93 q 412 95 395 93 q 450 105 430 97 q 496 129 471 114 q 557 171 522 145 l 593 128 q 513 48 550 78 q 444 3 477 19 q 380 -16 411 -11 l 380 -16 l 363 -60 q 443 -93 415 -70 q 472 -155 472 -117 "},"È":{"x_min":29,"x_max":683.859375,"ha":715,"o":"m 683 205 q 677 144 681 176 q 670 83 674 112 q 662 32 666 54 q 656 0 659 10 l 29 0 l 29 49 q 97 69 74 58 q 120 90 120 81 l 120 762 q 98 783 120 770 q 29 804 76 795 l 29 854 l 614 854 l 640 832 q 637 788 640 814 q 630 734 634 761 q 622 681 626 706 q 613 644 617 657 l 562 644 q 548 740 562 707 q 510 773 535 773 l 286 773 l 286 498 l 550 498 l 572 474 q 559 452 567 464 q 543 427 551 439 q 527 404 535 415 q 511 388 518 394 q 489 405 501 398 q 463 417 478 412 q 428 423 448 421 q 379 426 407 426 l 286 426 l 286 124 q 290 106 286 114 q 309 92 295 98 q 351 84 324 87 q 421 81 377 81 l 487 81 q 539 88 517 81 q 577 112 561 95 q 607 156 594 129 q 635 223 621 183 l 683 205 m 484 962 q 465 938 474 949 q 444 921 455 927 l 125 1080 l 132 1123 q 152 1139 137 1128 q 184 1161 167 1150 q 218 1183 202 1173 q 241 1197 234 1193 l 484 962 "},"ﬁ":{"x_min":25.03125,"x_max":839,"ha":871,"o":"m 503 0 l 503 49 q 569 70 548 59 q 591 90 591 81 l 591 439 q 591 495 591 474 q 583 528 591 516 q 557 546 575 540 q 503 554 538 551 l 503 602 q 611 622 560 610 q 708 651 663 634 l 751 651 l 751 90 q 770 70 751 82 q 839 49 790 59 l 839 0 l 503 0 m 776 855 q 767 813 776 832 q 743 780 758 794 q 708 759 728 766 q 664 752 688 752 q 628 756 645 752 q 599 770 612 760 q 580 793 587 779 q 573 827 573 807 q 581 869 573 850 q 605 901 590 888 q 640 922 620 915 q 684 930 660 930 q 718 925 702 930 q 748 912 735 921 q 768 888 760 902 q 776 855 776 874 m 592 985 q 585 968 592 978 q 569 945 579 957 q 546 921 559 933 q 521 899 533 909 q 499 881 509 889 q 481 870 488 873 q 420 928 449 910 q 368 946 390 946 q 336 935 351 946 q 308 895 320 924 q 289 817 296 867 q 282 689 282 767 l 282 630 l 447 630 l 471 606 q 456 582 465 594 q 438 557 447 569 q 421 536 429 546 q 406 522 412 527 q 363 538 391 530 q 282 546 335 546 l 282 89 q 288 81 282 85 q 310 73 294 77 q 351 62 325 68 q 416 49 376 57 l 416 0 l 35 0 l 35 49 q 101 69 80 57 q 122 89 122 81 l 122 546 l 43 546 l 25 570 l 76 630 l 122 630 l 122 651 q 129 752 122 707 q 151 835 137 798 q 186 902 165 872 q 234 958 207 932 q 285 999 259 982 q 337 1028 311 1017 q 387 1045 363 1040 q 431 1051 411 1051 q 490 1042 461 1051 q 541 1024 519 1034 q 578 1002 564 1013 q 592 985 592 992 "},"X":{"x_min":16,"x_max":842,"ha":857,"o":"m 487 0 l 487 49 q 534 56 516 52 q 560 67 552 61 q 567 83 568 74 q 557 106 566 93 l 399 338 l 249 106 q 236 81 239 91 q 241 64 234 71 q 266 54 248 58 q 315 50 284 50 l 315 0 l 16 0 l 16 51 q 88 64 58 51 q 136 106 118 78 l 342 425 l 125 747 q 106 771 115 762 q 85 787 97 781 q 58 797 73 793 q 22 804 43 800 l 22 854 l 382 854 l 382 804 q 308 787 325 798 q 311 747 291 776 l 448 542 l 576 747 q 587 773 585 763 q 581 789 588 783 q 556 799 574 796 q 509 803 538 803 l 509 854 l 810 854 l 810 804 q 767 797 786 801 q 733 787 748 793 q 708 771 718 780 q 688 747 697 761 l 506 457 l 742 106 q 761 82 752 92 q 782 66 771 72 q 808 56 793 59 q 842 49 823 52 l 842 0 l 487 0 "},"ô":{"x_min":43,"x_max":671,"ha":714,"o":"m 503 298 q 492 400 503 352 q 461 485 481 449 q 413 544 441 522 q 351 566 385 566 q 282 547 310 566 q 239 496 255 528 q 217 418 223 463 q 211 320 211 373 q 223 220 211 267 q 256 139 235 173 q 305 84 277 104 q 363 64 332 64 q 429 80 403 64 q 472 125 456 95 q 496 198 489 155 q 503 298 503 242 m 671 329 q 659 240 671 283 q 625 158 647 196 q 573 86 603 119 q 507 30 544 53 q 430 -6 471 6 q 344 -20 388 -20 q 220 4 276 -20 q 125 71 164 28 q 64 173 86 114 q 43 301 43 232 q 67 431 43 368 q 135 543 91 494 q 238 621 178 592 q 370 651 298 651 q 493 626 438 651 q 588 559 549 602 q 649 457 628 516 q 671 329 671 398 m 596 750 q 578 724 588 737 q 558 705 569 710 l 371 856 l 185 705 q 162 724 174 710 q 141 750 150 737 l 326 1013 l 417 1013 l 596 750 "},"Ė":{"x_min":29,"x_max":683.859375,"ha":715,"o":"m 683 205 q 677 144 681 176 q 670 83 674 112 q 662 32 666 54 q 656 0 659 10 l 29 0 l 29 49 q 97 69 74 58 q 120 90 120 81 l 120 762 q 98 783 120 770 q 29 804 76 795 l 29 854 l 614 854 l 640 832 q 637 788 640 814 q 630 734 634 761 q 622 681 626 706 q 613 644 617 657 l 562 644 q 548 740 562 707 q 510 773 535 773 l 286 773 l 286 498 l 550 498 l 572 474 q 559 452 567 464 q 543 427 552 439 q 527 404 535 415 q 511 388 518 394 q 490 405 501 398 q 463 417 478 412 q 428 423 448 421 q 379 426 407 426 l 286 426 l 286 124 q 290 106 286 114 q 309 92 295 98 q 351 84 324 87 q 421 81 377 81 l 487 81 q 539 88 517 81 q 577 112 561 95 q 607 156 594 129 q 635 223 621 183 l 683 205 m 448 1049 q 439 1003 448 1024 q 417 965 431 981 q 384 939 403 948 q 344 930 365 930 q 285 951 305 930 q 265 1012 265 972 q 273 1059 265 1037 q 296 1097 282 1081 q 329 1122 310 1113 q 369 1132 348 1132 q 427 1111 406 1132 q 448 1049 448 1091 "},"Ā":{"x_min":0,"x_max":841,"ha":855,"o":"m 496 373 l 386 687 l 286 373 l 496 373 m 260 292 l 196 95 q 212 65 189 74 q 290 49 235 55 l 290 0 l 0 0 l 0 49 q 69 66 45 57 q 100 95 93 75 l 331 818 q 366 843 347 831 q 404 863 384 854 q 443 880 423 872 q 479 892 462 887 l 758 95 q 767 78 761 86 q 781 65 772 71 q 805 56 791 60 q 841 49 819 52 l 841 0 l 511 0 l 511 51 q 581 61 562 51 q 592 95 599 72 l 524 292 l 260 292 m 710 1075 q 703 1055 708 1068 q 692 1029 698 1043 q 680 1004 686 1015 q 673 986 675 992 l 165 986 l 144 1007 q 150 1027 146 1015 q 161 1053 155 1039 q 172 1078 167 1066 q 181 1097 177 1090 l 688 1097 l 710 1075 "},"ċ":{"x_min":43,"x_max":593.828125,"ha":620,"o":"m 593 129 q 513 49 550 79 q 444 4 477 20 q 380 -15 411 -11 q 319 -20 350 -20 q 215 2 265 -20 q 127 65 165 24 q 65 166 88 106 q 43 301 43 226 q 69 438 43 374 q 143 548 96 501 q 257 623 191 596 q 402 651 323 651 q 451 647 424 651 q 506 636 479 643 q 554 619 532 629 q 588 597 577 609 q 586 578 589 592 q 580 547 584 564 q 569 510 575 529 q 557 472 563 490 q 545 440 551 455 q 536 420 539 426 l 491 427 q 437 529 469 493 q 352 566 405 566 q 296 552 323 566 q 248 509 269 539 q 215 434 228 480 q 203 322 203 388 q 216 225 203 268 q 253 154 230 183 q 309 109 277 125 q 377 94 341 94 q 413 96 395 94 q 450 106 430 98 q 497 130 471 115 q 557 172 522 146 l 593 129 m 431 859 q 422 813 431 834 q 400 775 414 791 q 367 749 386 758 q 327 740 348 740 q 268 761 288 740 q 248 822 248 782 q 256 869 248 847 q 279 907 265 891 q 312 932 293 923 q 352 942 331 942 q 410 921 389 942 q 431 859 431 901 "},"đ":{"x_min":43,"x_max":764.671875,"ha":763,"o":"m 758 76 q 696 38 727 55 q 638 7 665 20 q 590 -13 611 -6 q 560 -21 570 -21 q 499 97 513 -21 q 443 43 469 65 q 393 6 418 21 q 342 -14 368 -7 q 286 -20 316 -20 q 198 1 241 -20 q 120 64 154 23 q 64 165 85 106 q 43 300 43 225 q 66 432 43 368 q 133 544 90 495 q 235 621 175 592 q 366 651 294 651 q 428 643 397 651 q 495 610 459 636 l 495 755 l 303 755 l 287 769 q 292 784 289 775 q 298 802 295 793 q 305 821 301 812 q 311 836 309 830 l 495 836 l 495 853 q 493 906 495 886 q 482 938 491 927 q 455 953 473 949 q 404 958 437 958 l 404 1006 q 536 1026 477 1013 q 629 1050 595 1038 l 655 1025 l 655 836 l 750 836 l 764 819 l 741 755 l 655 755 l 655 202 q 655 162 655 178 q 656 135 655 145 q 661 120 658 125 q 669 112 665 114 q 678 109 673 110 q 690 109 682 108 q 709 114 698 110 q 739 126 721 118 l 758 76 m 495 181 l 495 478 q 435 539 471 517 q 355 561 400 561 q 294 548 322 561 q 246 507 266 535 q 214 438 226 480 q 203 337 203 396 q 216 240 203 282 q 250 168 229 198 q 299 123 272 139 q 353 108 326 108 q 423 126 390 108 q 495 181 455 145 "},"}":{"x_min":16.609375,"x_max":420.3125,"ha":477,"o":"m 420 431 q 311 373 345 410 q 277 285 277 336 q 281 220 277 248 q 290 168 285 193 q 299 116 295 143 q 304 50 304 88 q 284 -33 304 4 q 229 -104 264 -72 q 146 -164 194 -137 q 43 -214 99 -191 l 16 -161 q 101 -83 68 -128 q 134 12 134 -39 q 129 74 134 47 q 120 128 125 102 q 111 181 115 154 q 107 245 107 209 q 116 300 107 273 q 143 352 126 328 q 184 395 160 376 q 236 427 208 415 q 138 487 169 440 q 107 610 107 534 q 111 677 107 646 q 120 737 115 709 q 129 793 125 766 q 134 851 134 821 q 129 902 134 880 q 113 945 125 925 q 79 984 101 965 q 23 1022 57 1002 l 48 1084 q 157 1037 109 1061 q 237 984 204 1013 q 287 918 270 955 q 304 832 304 881 q 299 767 304 796 q 290 710 295 738 q 281 652 285 682 q 277 585 277 623 q 300 507 277 530 q 365 484 323 484 l 379 484 q 387 484 383 484 q 394 485 390 484 q 409 488 399 486 l 420 431 "},"â":{"x_min":43,"x_max":675.671875,"ha":680,"o":"m 273 98 q 300 101 286 98 q 331 112 314 104 q 368 133 348 119 q 414 169 388 148 l 414 319 q 346 306 374 312 q 301 293 319 300 q 270 278 282 286 q 250 262 259 271 q 222 224 233 244 q 212 175 212 204 q 218 137 212 152 q 234 113 224 122 q 254 101 243 104 q 273 98 265 98 m 675 75 q 616 38 647 56 q 559 7 586 21 q 509 -12 532 -5 q 475 -20 487 -20 q 433 8 450 -20 q 416 87 416 36 q 354 36 384 56 q 296 3 324 15 q 241 -14 267 -9 q 194 -20 215 -20 q 139 -10 166 -20 q 91 18 112 0 q 56 67 69 38 q 43 136 43 97 q 59 214 43 182 q 100 272 75 247 q 137 303 116 288 q 192 333 158 319 q 280 360 227 347 q 414 386 333 373 l 414 466 q 410 505 414 487 q 396 535 406 523 q 369 555 386 548 q 327 563 352 563 q 295 556 311 563 q 267 539 279 550 q 248 512 255 528 q 243 476 241 496 q 233 466 244 472 q 204 453 221 460 q 166 440 187 447 q 126 429 145 434 q 91 423 106 425 q 70 422 76 420 l 56 458 q 107 534 72 499 q 187 595 141 569 q 287 636 233 621 q 396 651 341 651 q 476 638 442 651 q 531 604 509 626 q 563 552 552 582 q 574 488 574 523 l 574 161 q 581 121 574 133 q 600 109 588 109 q 610 109 605 109 q 622 112 615 110 q 638 118 629 114 q 661 127 647 121 l 675 75 m 568 750 q 550 724 559 737 q 529 705 540 710 l 342 856 l 156 705 q 133 724 145 710 q 112 750 121 737 l 297 1013 l 388 1013 l 568 750 "},"ø":{"x_min":43,"x_max":671,"ha":714,"o":"m 505 298 q 499 360 505 328 q 486 417 493 392 l 263 126 q 310 82 284 100 q 363 64 336 64 q 430 80 403 64 q 473 125 457 95 q 497 198 490 155 q 505 298 505 242 m 210 320 q 214 263 210 293 q 226 211 219 234 l 450 505 q 405 549 431 532 q 351 566 379 566 q 283 547 310 566 q 239 496 255 528 q 216 418 223 463 q 210 320 210 373 m 662 645 l 593 554 q 650 453 629 512 q 671 329 671 395 q 659 240 671 283 q 625 158 647 196 q 574 86 603 119 q 507 30 544 53 q 430 -6 471 6 q 344 -20 388 -20 q 259 -8 300 -20 q 184 22 217 3 l 175 9 q 156 -2 169 4 q 127 -15 142 -9 q 96 -27 111 -22 q 70 -35 80 -32 l 53 -14 l 122 75 q 64 176 86 118 q 43 301 43 234 q 67 431 43 368 q 135 543 91 494 q 238 621 178 592 q 370 651 298 651 q 455 639 414 651 q 528 608 495 627 l 538 620 q 560 633 546 626 q 587 646 573 640 q 616 658 601 653 q 642 666 631 663 l 662 645 "},"ŋ":{"x_min":32,"x_max":688,"ha":764,"o":"m 688 75 q 677 -45 688 4 q 647 -133 666 -95 q 600 -198 627 -170 q 541 -252 573 -226 q 500 -281 523 -266 q 450 -307 477 -296 q 394 -326 424 -319 q 333 -334 365 -334 q 266 -325 300 -334 q 207 -305 233 -317 q 164 -280 181 -293 q 148 -256 148 -266 q 163 -230 148 -248 q 201 -192 179 -212 q 244 -156 222 -173 q 277 -135 265 -140 q 310 -169 292 -153 q 348 -197 329 -185 q 384 -216 367 -209 q 416 -224 402 -224 q 448 -216 429 -224 q 485 -183 467 -209 q 515 -109 502 -158 q 528 24 528 -59 l 528 398 q 524 460 528 436 q 512 500 520 485 q 491 520 504 514 q 458 527 478 527 q 424 522 442 527 q 384 508 406 518 q 337 479 363 497 q 279 433 310 461 l 279 90 q 301 69 279 80 q 368 49 324 59 l 368 0 l 32 0 l 32 49 q 97 70 75 61 q 119 90 119 79 l 119 467 q 117 511 119 495 q 106 535 115 527 q 80 547 97 544 q 32 554 62 550 l 32 604 q 83 608 54 604 q 140 619 111 612 q 196 634 169 625 q 241 651 223 642 l 273 623 l 273 524 q 421 622 353 593 q 541 651 489 651 q 600 639 573 651 q 646 607 627 628 q 677 556 666 586 q 688 487 688 525 l 688 75 "},"‰":{"x_min":36,"x_max":1424,"ha":1458,"o":"m 1288 196 q 1282 283 1288 246 q 1265 343 1276 319 q 1239 379 1254 367 q 1207 391 1224 391 q 1154 353 1173 391 q 1136 226 1136 315 q 1156 77 1136 125 q 1217 30 1177 30 q 1270 68 1252 30 q 1288 196 1288 107 m 1424 210 q 1408 120 1424 162 q 1363 47 1392 78 q 1294 -2 1334 15 q 1207 -21 1254 -21 q 1120 -2 1159 -21 q 1055 47 1082 15 q 1014 120 1028 78 q 1000 210 1000 162 q 1015 300 1000 258 q 1059 373 1030 342 q 1127 423 1087 405 q 1217 442 1167 442 q 1305 423 1266 442 q 1369 374 1343 405 q 1410 300 1396 342 q 1424 210 1424 258 m 820 196 q 796 343 820 296 q 737 391 773 391 q 685 353 704 391 q 667 226 667 315 q 688 77 667 125 q 749 30 709 30 q 801 68 783 30 q 820 196 820 107 m 956 210 q 939 120 956 162 q 894 47 923 78 q 825 -2 865 15 q 737 -21 785 -21 q 651 -2 689 -21 q 586 47 613 15 q 545 120 559 78 q 531 210 531 162 q 546 300 531 258 q 590 373 561 342 q 659 423 618 405 q 749 442 699 442 q 836 423 798 442 q 901 374 875 405 q 942 300 928 342 q 956 210 956 258 m 248 4 q 228 -3 241 0 q 200 -10 215 -7 q 172 -16 186 -13 q 149 -21 158 -18 l 133 0 l 740 813 q 760 820 747 816 q 787 827 773 824 q 815 833 802 831 q 837 838 829 836 l 854 818 l 248 4 m 325 595 q 318 681 325 644 q 301 741 312 717 q 275 777 290 765 q 242 789 260 789 q 190 751 209 789 q 172 624 172 713 q 192 476 172 523 q 253 429 213 429 q 306 467 288 429 q 325 595 325 506 m 461 608 q 444 519 461 561 q 399 445 428 477 q 330 395 370 414 q 242 377 290 377 q 156 395 194 377 q 91 445 118 414 q 50 519 64 477 q 36 608 36 561 q 51 698 36 656 q 94 771 66 740 q 163 821 123 803 q 253 840 203 840 q 341 821 302 840 q 406 772 379 803 q 447 698 433 740 q 461 608 461 656 "},"Ä":{"x_min":0,"x_max":841,"ha":855,"o":"m 496 373 l 387 688 l 286 373 l 496 373 m 260 292 l 196 95 q 212 65 190 74 q 290 49 235 55 l 290 0 l 0 0 l 0 49 q 69 66 45 57 q 100 95 93 75 l 332 818 q 366 843 348 832 q 404 864 384 855 q 443 880 424 873 q 479 893 462 887 l 758 95 q 767 78 762 86 q 782 65 772 71 q 805 56 791 60 q 841 49 819 52 l 841 0 l 511 0 l 511 51 q 581 61 563 51 q 592 95 599 72 l 524 292 l 260 292 m 653 1049 q 644 1003 653 1024 q 622 965 636 981 q 588 939 607 948 q 548 930 569 930 q 489 951 509 930 q 470 1012 470 972 q 478 1059 470 1037 q 501 1097 487 1081 q 534 1122 515 1113 q 573 1132 553 1132 q 632 1111 611 1132 q 653 1049 653 1091 m 372 1049 q 363 1003 372 1024 q 341 965 355 981 q 308 939 327 948 q 268 930 289 930 q 209 951 229 930 q 189 1012 189 972 q 197 1059 189 1037 q 220 1097 206 1081 q 253 1122 234 1113 q 292 1132 272 1132 q 351 1111 330 1132 q 372 1049 372 1091 "},"ř":{"x_min":32,"x_max":586,"ha":605,"o":"m 582 621 q 586 603 586 618 q 583 568 586 589 q 574 521 580 547 q 563 471 569 495 q 550 426 557 447 q 538 393 544 405 l 489 393 q 482 444 489 420 q 467 486 476 469 q 445 515 458 504 q 416 526 432 526 q 387 520 403 526 q 354 501 371 515 q 318 459 337 486 q 279 387 299 432 l 279 90 q 306 69 279 80 q 397 49 334 59 l 397 0 l 32 0 l 32 49 q 119 90 119 69 l 119 450 q 117 488 119 472 q 114 512 116 503 q 109 527 112 522 q 103 536 106 533 q 94 544 99 541 q 81 549 89 547 q 62 552 74 551 q 32 554 50 554 l 32 602 q 95 612 68 607 q 145 622 122 617 q 190 634 168 627 q 241 651 213 641 l 269 622 l 277 524 q 318 573 295 550 q 366 614 340 596 q 420 641 392 631 q 476 651 448 651 q 529 643 502 651 q 582 621 557 635 m 377 722 l 285 722 l 105 980 q 123 1007 113 993 q 144 1026 133 1021 l 332 878 l 517 1026 q 540 1007 528 1021 q 562 980 552 993 l 377 722 "},"—":{"x_min":35.21875,"x_max":1058.046875,"ha":1093,"o":"m 1058 375 q 1052 356 1056 367 q 1043 334 1048 345 q 1034 313 1038 323 q 1027 298 1030 303 l 56 298 l 35 319 q 40 337 37 327 q 49 358 44 348 q 58 379 53 369 q 65 396 62 389 l 1036 396 l 1058 375 "},"N":{"x_min":29,"x_max":876,"ha":903,"o":"m 29 0 l 29 49 q 98 68 77 55 q 120 90 120 81 l 120 755 q 29 804 76 796 l 29 854 l 214 854 q 230 852 224 854 q 243 845 237 850 q 257 829 250 839 q 278 801 265 818 l 685 226 l 685 762 q 680 772 685 766 q 666 783 676 778 q 638 795 655 789 q 594 804 620 800 l 594 854 l 876 854 l 876 804 q 806 784 828 797 q 785 762 785 771 l 785 -20 q 682 5 721 -14 q 625 50 643 25 l 220 623 l 220 90 q 224 80 220 86 q 240 69 229 75 q 268 58 251 63 q 311 49 285 52 l 311 0 l 29 0 "},"⁄":{"x_min":101.6875,"x_max":793.546875,"ha":847,"o":"m 205 2 q 186 -5 197 -2 q 163 -10 175 -8 q 138 -15 150 -13 q 118 -20 126 -18 l 101 0 l 693 815 q 710 821 699 818 q 734 827 721 824 q 757 833 746 830 q 776 837 769 836 l 793 818 l 205 2 "},"2":{"x_min":54.859375,"x_max":610,"ha":688,"o":"m 610 0 l 74 0 l 54 50 q 191 215 132 143 q 292 343 250 287 q 363 441 335 399 q 408 516 391 483 q 432 575 425 548 q 439 626 439 601 q 433 679 439 654 q 414 722 427 704 q 382 750 402 740 q 335 761 363 761 q 288 748 308 761 q 256 716 268 736 q 240 672 244 697 q 240 622 236 647 q 211 609 229 616 q 172 596 193 602 q 131 585 151 590 q 96 579 111 580 l 72 625 q 97 698 72 660 q 164 766 121 735 q 262 817 206 797 q 380 837 318 837 q 473 826 431 837 q 545 793 515 815 q 590 740 574 771 q 606 665 606 708 q 598 604 606 635 q 571 540 589 574 q 524 465 553 506 q 452 374 494 425 q 355 260 411 323 q 228 118 300 197 l 494 118 q 514 123 505 118 q 530 138 523 129 q 542 160 537 148 q 550 185 547 172 q 561 253 558 215 l 610 240 l 610 0 "},"ü":{"x_min":22.90625,"x_max":760.6875,"ha":767,"o":"m 760 76 q 706 42 736 59 q 649 11 677 25 q 600 -11 621 -2 q 570 -20 578 -20 q 547 -15 558 -20 q 527 1 536 -11 q 510 35 517 13 q 499 92 502 57 q 424 33 457 55 q 364 0 391 11 q 314 -16 337 -12 q 270 -20 292 -20 q 209 -11 239 -20 q 155 20 179 -2 q 116 84 131 44 q 102 189 102 125 l 102 467 q 102 518 102 500 q 94 545 102 536 q 69 557 86 554 q 22 564 53 561 l 22 613 q 83 616 56 613 q 136 624 111 620 q 186 635 161 629 q 239 651 211 642 l 263 619 l 263 232 q 267 163 263 190 q 282 122 272 137 q 307 102 292 107 q 340 97 321 97 q 370 100 354 97 q 406 112 386 103 q 448 137 425 122 q 499 177 471 153 l 499 468 q 496 517 499 498 q 485 545 494 535 q 459 559 477 555 q 411 564 441 564 l 411 611 q 531 628 477 617 q 633 651 586 638 l 659 619 l 659 192 q 659 157 659 171 q 660 134 659 143 q 665 120 662 125 q 673 111 668 114 q 695 108 681 105 q 744 126 710 111 l 760 76 m 616 859 q 607 813 616 834 q 585 775 599 791 q 551 749 570 758 q 511 740 532 740 q 452 761 472 740 q 433 822 433 782 q 441 869 433 847 q 464 907 450 891 q 497 932 478 923 q 536 942 516 942 q 595 921 574 942 q 616 859 616 901 m 335 859 q 326 813 335 834 q 304 775 318 791 q 271 749 290 758 q 231 740 252 740 q 172 761 192 740 q 152 822 152 782 q 160 869 152 847 q 183 907 169 891 q 216 932 197 923 q 255 942 235 942 q 314 921 293 942 q 335 859 335 901 "},"˜":{"x_min":11.96875,"x_max":535.015625,"ha":546,"o":"m 535 934 q 505 873 523 906 q 466 812 488 840 q 417 764 444 783 q 360 745 390 745 q 305 756 331 745 q 255 780 279 767 q 206 804 230 793 q 156 816 182 816 q 129 810 141 816 q 106 796 117 805 q 84 771 95 786 q 61 738 73 757 l 11 757 q 40 818 23 785 q 79 880 57 851 q 128 928 101 909 q 185 948 154 948 q 243 936 216 948 q 296 912 271 925 q 343 888 321 899 q 387 877 366 877 q 439 895 417 877 q 483 954 461 914 l 535 934 "},"Ó":{"x_min":37,"x_max":796.484375,"ha":847,"o":"m 629 427 q 612 561 629 496 q 566 677 596 627 q 494 757 536 727 q 401 787 452 787 q 316 762 353 787 q 255 693 280 738 q 217 583 230 648 q 205 435 205 517 q 222 292 205 359 q 270 177 240 226 q 340 100 300 128 q 426 72 381 72 q 507 93 470 72 q 571 159 544 115 q 613 270 598 204 q 629 427 629 337 m 796 439 q 781 319 796 377 q 740 210 767 262 q 678 117 714 159 q 597 44 641 74 q 502 -3 552 13 q 397 -20 451 -20 q 246 15 314 -20 q 133 112 179 51 q 61 251 86 172 q 37 415 37 329 q 66 590 37 507 q 148 737 96 674 q 275 837 201 800 q 436 875 348 875 q 591 838 524 875 q 704 740 658 801 q 773 600 749 679 q 796 439 796 521 m 336 922 q 313 941 325 927 q 291 967 300 955 l 533 1198 q 567 1179 549 1190 q 603 1157 586 1167 q 633 1137 620 1146 q 652 1122 646 1127 l 658 1087 l 336 922 "},"ˇ":{"x_min":18.609375,"x_max":473.859375,"ha":487,"o":"m 289 722 l 198 722 l 18 980 q 36 1007 26 993 q 57 1026 45 1021 l 244 878 l 429 1026 q 452 1007 440 1021 q 473 980 464 993 l 289 722 "},"Ÿ":{"x_min":1.65625,"x_max":812,"ha":835,"o":"m 229 0 l 229 49 q 279 62 259 55 q 311 75 299 69 q 328 87 323 82 q 334 98 334 93 l 334 358 q 280 470 310 413 q 219 582 250 528 q 159 682 189 636 q 107 760 130 728 q 94 774 101 767 q 76 784 88 780 q 48 790 65 788 q 1 793 30 793 l 1 841 q 45 848 20 844 q 94 854 70 851 q 140 858 119 856 q 175 861 161 861 q 212 852 194 861 q 242 829 231 844 q 294 752 267 796 q 348 660 320 709 q 402 560 376 611 q 452 460 428 509 l 607 760 q 601 788 617 778 q 534 805 585 798 l 534 854 l 812 854 l 812 805 q 744 786 766 796 q 713 760 722 777 l 500 354 l 500 98 q 504 88 500 94 q 521 75 509 82 q 553 62 533 69 q 605 49 573 55 l 605 0 l 229 0 m 649 1049 q 640 1003 649 1024 q 618 965 632 981 q 584 939 603 948 q 544 930 565 930 q 485 951 505 930 q 466 1012 466 972 q 474 1059 466 1037 q 497 1097 483 1081 q 530 1122 511 1113 q 569 1132 549 1132 q 628 1111 607 1132 q 649 1049 649 1091 m 368 1049 q 359 1003 368 1024 q 337 965 351 981 q 304 939 323 948 q 264 930 285 930 q 205 951 225 930 q 185 1012 185 972 q 193 1059 185 1037 q 216 1097 202 1081 q 249 1122 230 1113 q 288 1132 268 1132 q 347 1111 326 1132 q 368 1049 368 1091 "},"€":{"x_min":10.875,"x_max":658.140625,"ha":688,"o":"m 454 297 l 254 297 q 283 191 264 233 q 326 124 301 149 q 378 87 350 98 q 433 77 406 77 q 470 80 451 77 q 510 94 488 83 q 559 123 532 104 q 619 174 585 142 q 637 152 628 164 q 654 128 646 139 q 579 53 614 82 q 511 7 543 24 q 447 -14 478 -8 q 385 -20 416 -20 q 284 0 333 -20 q 195 59 235 20 q 126 158 155 99 q 85 297 97 218 l 30 297 l 10 319 q 14 332 12 324 q 20 348 17 340 q 25 364 22 357 q 30 378 28 372 l 80 378 l 80 396 q 80 456 80 426 l 50 456 l 30 478 q 34 491 32 483 q 40 507 37 499 q 45 523 42 516 q 50 537 48 531 l 91 537 q 136 669 105 612 q 213 763 167 726 q 317 819 258 801 q 445 838 375 838 q 509 832 478 838 q 567 817 539 827 q 617 796 594 808 q 656 769 639 784 q 656 758 659 767 q 647 736 653 749 q 633 707 641 722 q 616 677 624 691 q 600 652 607 663 q 587 635 592 640 l 543 644 q 478 721 513 695 q 394 748 444 748 q 352 739 374 748 q 311 708 331 731 q 277 644 292 686 q 254 537 262 603 l 494 537 l 516 516 l 494 456 l 247 456 q 247 431 247 443 l 247 378 l 454 378 l 476 357 l 454 297 "},"Ŭ":{"x_min":29,"x_max":873,"ha":910,"o":"m 873 805 q 804 784 827 795 q 781 763 781 772 l 781 355 q 756 196 781 266 q 688 78 732 127 q 584 5 644 30 q 452 -20 524 -20 q 323 0 384 -20 q 218 58 263 18 q 146 158 172 97 q 120 301 120 218 l 120 763 q 98 783 120 771 q 29 805 76 795 l 29 855 l 378 855 l 378 805 q 309 784 332 795 q 286 763 286 772 l 286 345 q 297 230 286 280 q 333 146 308 180 q 397 95 357 112 q 494 78 436 78 q 573 99 541 78 q 626 157 606 121 q 656 240 647 193 q 665 337 665 287 l 665 763 q 643 783 665 771 q 574 805 621 795 l 574 855 l 873 855 l 873 805 m 696 1144 q 649 1050 676 1089 q 592 986 623 1011 q 528 949 561 961 q 461 938 495 938 q 390 949 424 938 q 326 986 356 961 q 270 1050 296 1011 q 224 1144 244 1089 q 234 1157 228 1150 q 247 1170 240 1164 q 261 1182 254 1177 q 274 1190 268 1187 q 313 1136 290 1158 q 360 1098 335 1113 q 411 1075 385 1082 q 458 1068 436 1068 q 508 1075 482 1068 q 558 1097 534 1082 q 606 1135 583 1112 q 645 1190 629 1158 q 658 1182 651 1187 q 672 1170 665 1177 q 685 1157 679 1164 q 696 1144 692 1150 "},"ĝ":{"x_min":10,"x_max":702.625,"ha":704,"o":"m 444 407 q 435 471 444 441 q 408 524 426 501 q 365 559 391 546 q 306 573 340 573 q 272 565 289 573 q 240 541 254 557 q 217 502 226 526 q 209 447 209 478 q 216 383 209 413 q 241 330 224 353 q 284 295 258 308 q 346 282 310 282 q 383 289 366 282 q 414 313 401 297 q 436 352 428 328 q 444 407 444 375 m 369 -27 q 309 -18 337 -23 q 257 -7 281 -12 q 209 -46 226 -29 q 183 -77 191 -63 q 172 -102 174 -91 q 170 -123 170 -113 q 186 -166 170 -146 q 231 -203 202 -187 q 298 -227 259 -218 q 382 -237 337 -237 q 450 -227 421 -237 q 497 -200 478 -217 q 525 -161 516 -183 q 535 -116 535 -139 q 529 -90 535 -103 q 505 -65 523 -77 q 454 -44 487 -54 q 369 -27 422 -34 m 597 435 q 574 340 597 383 q 513 266 551 297 q 426 218 475 235 q 320 201 376 201 l 314 201 q 281 162 288 177 q 275 143 275 148 q 278 132 275 137 q 297 120 282 126 q 343 108 312 114 q 425 95 373 102 q 554 70 503 85 q 635 36 605 56 q 678 -10 666 15 q 690 -70 690 -37 q 675 -134 690 -102 q 636 -195 661 -166 q 576 -250 610 -225 q 503 -294 543 -275 q 421 -323 464 -312 q 335 -334 378 -334 q 263 -329 301 -334 q 189 -315 226 -325 q 121 -291 153 -306 q 63 -256 88 -276 q 24 -209 39 -235 q 10 -150 10 -182 q 16 -115 10 -133 q 42 -77 23 -97 q 93 -34 61 -57 q 177 17 125 -10 q 101 84 101 48 q 107 104 101 91 q 127 133 113 116 q 165 170 142 150 q 221 213 188 190 q 154 242 184 223 q 101 285 123 260 q 68 341 80 310 q 56 408 56 372 q 79 502 56 458 q 143 579 103 546 q 236 631 183 612 q 347 651 289 651 q 433 638 393 651 q 505 603 473 625 q 609 625 562 610 q 684 651 656 640 l 702 625 q 696 608 700 618 q 687 587 692 598 q 676 566 682 577 q 664 548 670 556 q 618 540 642 543 q 567 538 595 538 q 589 488 581 513 q 597 435 597 462 m 574 750 q 556 724 566 737 q 535 705 547 710 l 348 856 l 163 705 q 140 724 152 710 q 119 750 128 737 l 304 1013 l 395 1013 l 574 750 "},"ß":{"x_min":32.28125,"x_max":822,"ha":857,"o":"m 822 191 q 805 109 822 147 q 756 41 789 70 q 674 -4 724 12 q 559 -21 625 -21 q 501 -15 532 -21 q 442 -2 470 -10 q 395 14 415 5 q 371 29 375 22 q 366 48 368 33 q 365 84 365 63 q 365 127 365 104 q 365 171 365 150 q 368 206 365 191 q 376 226 372 222 l 429 218 q 451 150 436 179 q 487 101 466 121 q 531 71 507 81 q 580 62 555 62 q 650 81 624 62 q 676 141 676 101 q 662 197 676 173 q 628 240 649 221 q 579 275 606 259 q 523 306 551 290 q 467 338 494 321 q 418 377 440 355 q 383 427 396 399 q 371 493 371 455 q 386 562 371 535 q 426 608 402 589 q 478 641 450 627 q 531 670 507 655 q 571 707 555 686 q 587 760 587 727 q 575 837 587 802 q 540 897 563 872 q 486 937 518 923 q 415 951 455 951 q 362 939 387 951 q 319 898 337 928 q 290 815 301 868 q 280 678 280 762 l 280 0 l 32 0 l 32 48 q 98 68 77 56 q 120 88 120 80 l 120 640 q 135 780 120 722 q 174 878 151 837 q 227 944 198 918 q 281 988 255 970 q 372 1032 320 1014 q 479 1051 424 1051 q 592 1028 542 1051 q 676 971 642 1006 q 729 893 711 936 q 748 806 748 850 q 731 715 748 750 q 689 657 714 680 q 633 621 663 635 q 578 594 603 606 q 536 564 553 581 q 519 521 519 548 q 541 468 519 490 q 597 428 563 446 q 670 390 631 409 q 743 344 709 370 q 799 281 777 318 q 822 191 822 244 "},"s":{"x_min":51,"x_max":519,"ha":570,"o":"m 519 192 q 504 109 519 144 q 467 51 490 75 q 416 13 444 28 q 357 -7 387 0 q 301 -17 328 -15 q 255 -20 274 -20 q 209 -16 234 -20 q 158 -7 184 -13 q 106 7 132 -1 q 59 29 81 17 q 52 53 54 31 q 51 105 51 75 q 54 169 51 136 q 63 227 57 202 l 117 220 q 139 155 124 184 q 176 105 154 126 q 223 74 197 85 q 278 63 250 63 q 349 80 326 63 q 373 139 373 98 q 359 187 373 166 q 323 227 345 209 q 271 262 300 246 q 212 294 243 278 q 157 325 184 308 q 107 364 129 343 q 71 411 85 385 q 58 469 58 437 q 78 545 58 512 q 131 602 98 579 q 207 638 164 625 q 295 651 249 651 q 352 647 323 651 q 408 636 381 643 q 457 620 434 630 q 495 598 479 611 q 496 576 499 595 q 488 532 494 556 q 473 485 481 508 q 456 451 464 462 l 410 457 q 362 548 394 516 q 287 580 331 580 q 225 561 247 580 q 204 514 204 542 q 214 475 204 492 q 244 443 225 458 q 292 413 264 428 q 356 379 321 398 q 414 347 384 364 q 466 308 443 330 q 504 258 489 286 q 519 192 519 230 "},"Ű":{"x_min":29,"x_max":873,"ha":910,"o":"m 873 805 q 804 784 827 795 q 781 763 781 772 l 781 355 q 756 196 781 266 q 688 78 732 127 q 584 5 644 30 q 452 -20 524 -20 q 323 0 384 -20 q 218 58 263 18 q 146 158 172 97 q 120 301 120 218 l 120 763 q 98 783 120 771 q 29 805 76 795 l 29 855 l 378 855 l 378 805 q 309 784 332 795 q 286 763 286 772 l 286 345 q 297 230 286 280 q 333 146 308 180 q 397 95 357 112 q 494 78 436 78 q 573 99 541 78 q 626 157 606 121 q 656 240 647 193 q 665 337 665 287 l 665 763 q 643 783 665 771 q 574 805 621 795 l 574 855 l 873 855 l 873 805 m 352 922 q 324 934 341 925 q 294 951 308 943 l 397 1237 q 421 1234 405 1236 q 455 1230 437 1232 q 488 1225 473 1227 q 510 1220 504 1223 l 530 1182 l 352 922 m 566 922 q 537 934 554 925 q 508 951 520 943 l 609 1237 q 634 1234 617 1236 q 667 1230 650 1232 q 701 1225 685 1227 q 724 1220 716 1223 l 743 1182 l 566 922 "},"?":{"x_min":43,"x_max":575,"ha":619,"o":"m 575 790 q 558 697 575 739 q 515 619 541 656 q 460 551 490 583 q 402 486 429 518 q 355 419 374 453 q 336 345 336 385 l 336 279 q 304 264 322 270 q 267 252 286 257 l 242 271 l 242 345 q 252 420 242 383 q 280 493 263 458 q 318 562 296 528 q 357 629 339 596 q 389 695 376 663 q 402 759 402 727 q 375 884 402 844 q 301 924 348 924 q 269 915 284 924 q 242 890 254 906 q 223 853 230 875 q 217 804 217 831 q 219 782 217 795 q 225 760 221 770 q 193 748 214 755 q 150 735 173 741 q 104 725 127 730 q 67 719 82 720 l 44 745 q 43 761 43 750 l 43 777 q 67 866 43 825 q 134 938 92 907 q 232 986 177 968 q 348 1004 287 1004 q 445 988 402 1004 q 516 944 488 972 q 560 877 545 916 q 575 790 575 837 m 404 89 q 394 40 404 62 q 368 3 384 18 q 329 -19 352 -11 q 282 -27 307 -27 q 245 -21 263 -27 q 214 -5 227 -16 q 193 22 201 5 q 186 64 186 40 q 195 113 186 91 q 222 149 205 134 q 262 172 239 164 q 308 181 284 181 q 344 175 326 181 q 374 158 361 170 q 396 130 388 147 q 404 89 404 113 "},"c":{"x_min":43,"x_max":593.796875,"ha":620,"o":"m 593 129 q 513 49 550 79 q 444 4 477 20 q 380 -15 411 -11 q 319 -20 350 -20 q 215 2 265 -20 q 127 65 165 24 q 65 166 88 106 q 43 301 43 226 q 69 438 43 374 q 143 548 96 501 q 257 623 191 596 q 402 651 323 651 q 451 647 424 651 q 505 636 479 643 q 554 619 532 629 q 588 597 577 609 q 586 578 589 592 q 580 547 584 564 q 569 510 575 529 q 557 472 563 490 q 545 440 551 455 q 535 420 539 426 l 491 427 q 437 529 469 493 q 352 566 405 566 q 296 552 323 566 q 248 509 269 539 q 215 434 228 480 q 203 322 203 388 q 216 225 203 268 q 253 154 230 183 q 309 109 277 125 q 377 94 341 94 q 413 96 395 94 q 450 106 430 98 q 497 130 471 115 q 557 172 522 146 l 593 129 "},"¶":{"x_min":23,"x_max":776,"ha":825,"o":"m 576 775 q 523 785 550 781 l 523 -77 q 532 -90 523 -85 q 548 -98 542 -96 q 566 -90 556 -96 q 576 -77 576 -85 l 576 775 m 413 430 l 413 797 q 388 797 399 797 q 369 797 377 797 q 306 786 337 797 q 251 754 276 775 q 212 703 227 733 q 198 636 198 673 q 208 562 198 599 q 241 496 219 525 q 299 448 264 467 q 383 430 334 430 l 413 430 m 320 -169 l 320 -119 q 389 -98 365 -110 q 412 -77 412 -87 l 412 356 q 387 353 401 353 q 355 353 373 353 q 223 369 284 353 q 118 418 162 386 q 48 498 73 450 q 23 608 23 545 q 46 711 23 664 q 113 792 70 758 q 219 846 157 827 q 358 865 280 865 q 396 865 372 865 q 449 865 419 865 q 510 865 478 865 q 574 865 542 865 q 733 865 648 865 l 776 865 l 776 805 q 707 784 730 795 q 684 763 684 772 l 684 -77 q 705 -98 684 -86 q 776 -119 727 -110 l 776 -169 l 320 -169 "},"Ī":{"x_min":12.75,"x_max":432.875,"ha":446,"o":"m 42 0 l 42 49 q 110 70 87 58 q 133 90 133 81 l 133 762 q 111 782 133 770 q 42 804 89 795 l 42 854 l 391 854 l 391 804 q 322 783 345 795 q 299 762 299 771 l 299 90 q 321 70 299 82 q 391 49 343 58 l 391 0 l 42 0 m 432 1103 q 425 1083 430 1096 q 414 1057 420 1071 q 403 1032 408 1043 q 395 1014 398 1020 l 34 1014 l 12 1035 q 19 1055 14 1043 q 30 1081 24 1067 q 41 1106 36 1094 q 49 1125 46 1118 l 411 1125 l 432 1103 "},"•":{"x_min":47,"x_max":331,"ha":378,"o":"m 331 448 q 319 373 331 407 q 286 315 307 339 q 237 277 265 291 q 173 264 208 264 q 117 275 141 264 q 78 306 94 286 q 54 354 62 327 q 47 415 47 382 q 59 489 47 455 q 92 548 71 523 q 142 586 114 572 q 205 600 171 600 q 259 588 235 600 q 298 557 282 577 q 322 509 314 537 q 331 448 331 482 "},"(":{"x_min":70,"x_max":435.0625,"ha":451,"o":"m 399 -213 q 254 -104 316 -168 q 151 41 193 -40 q 90 218 110 122 q 70 422 70 314 q 92 634 70 533 q 158 819 115 734 q 262 971 201 903 q 399 1085 323 1038 l 435 1034 q 360 936 395 993 q 299 805 325 879 q 258 641 273 732 q 243 441 243 549 q 255 253 243 342 q 291 87 267 164 q 351 -52 316 10 q 435 -162 387 -115 l 399 -213 "},"­":{"x_min":35.21875,"x_max":448.609375,"ha":484,"o":"m 448 375 q 442 356 446 367 q 433 334 438 345 q 425 313 429 323 q 418 298 420 303 l 56 298 l 35 319 q 40 337 37 327 q 49 358 44 348 q 58 379 53 369 q 65 396 62 389 l 426 396 l 448 375 "},":":{"x_min":87,"x_max":305,"ha":367,"o":"m 305 559 q 295 510 305 532 q 269 473 285 488 q 230 450 253 458 q 183 443 208 443 q 146 448 164 443 q 115 464 128 453 q 94 492 102 475 q 87 534 87 510 q 96 583 87 561 q 123 619 106 604 q 163 642 140 634 q 209 651 185 651 q 245 645 227 651 q 275 628 262 640 q 297 600 289 617 q 305 559 305 583 m 305 89 q 295 40 305 62 q 269 3 285 18 q 230 -19 253 -11 q 183 -27 208 -27 q 146 -21 164 -27 q 115 -5 128 -16 q 94 22 102 5 q 87 64 87 40 q 96 113 87 91 q 123 149 106 134 q 163 172 140 164 q 209 181 185 181 q 245 175 227 181 q 275 158 262 170 q 297 130 289 147 q 305 89 305 113 "},"Û":{"x_min":29,"x_max":873,"ha":910,"o":"m 873 805 q 804 784 827 795 q 781 763 781 772 l 781 355 q 756 196 781 266 q 688 78 732 127 q 584 5 644 30 q 452 -20 524 -20 q 323 0 384 -20 q 218 58 263 18 q 146 158 172 97 q 120 301 120 218 l 120 763 q 98 783 120 771 q 29 805 76 795 l 29 855 l 378 855 l 378 805 q 309 784 332 795 q 286 763 286 772 l 286 345 q 297 230 286 280 q 333 146 308 180 q 397 95 357 112 q 494 78 436 78 q 573 99 541 78 q 626 157 606 121 q 656 240 647 193 q 665 337 665 287 l 665 763 q 643 783 665 771 q 574 805 621 795 l 574 855 l 873 855 l 873 805 m 684 963 q 667 939 676 950 q 646 922 657 928 l 459 1033 l 274 922 q 253 939 262 928 q 234 963 243 950 l 419 1182 l 500 1182 l 684 963 "},"V":{"x_min":9,"x_max":883,"ha":905,"o":"m 883 805 q 812 787 837 796 q 780 760 786 779 l 530 55 q 510 28 525 40 q 476 6 495 16 q 436 -9 457 -3 q 400 -20 416 -16 l 98 760 q 70 788 90 777 q 9 805 50 799 l 9 855 l 348 855 l 348 803 q 277 793 294 803 q 267 763 260 783 l 483 194 l 681 760 q 682 777 684 770 q 670 789 679 784 q 642 797 660 794 q 597 805 624 801 l 597 855 l 883 855 l 883 805 "},"ś":{"x_min":51,"x_max":519,"ha":570,"o":"m 519 192 q 504 109 519 144 q 467 51 490 75 q 416 13 444 28 q 357 -7 387 0 q 301 -17 328 -15 q 255 -20 274 -20 q 209 -16 234 -20 q 158 -7 184 -13 q 106 7 132 -1 q 59 29 81 17 q 52 53 54 31 q 51 105 51 75 q 54 169 51 136 q 63 227 57 202 l 117 220 q 139 155 124 184 q 176 105 154 126 q 223 74 197 85 q 278 63 250 63 q 349 80 326 63 q 373 139 373 98 q 359 187 373 166 q 323 227 345 209 q 271 262 300 246 q 212 294 243 278 q 157 325 184 308 q 107 364 129 343 q 71 411 85 385 q 58 469 58 437 q 78 545 58 512 q 131 602 98 579 q 207 638 164 625 q 295 651 249 651 q 352 647 323 651 q 408 636 381 643 q 457 620 434 630 q 495 598 479 611 q 496 576 499 595 q 488 532 494 556 q 473 485 481 508 q 456 451 464 462 l 410 457 q 362 548 394 516 q 287 580 331 580 q 225 561 247 580 q 204 514 204 542 q 214 475 204 492 q 244 443 225 458 q 292 413 264 428 q 356 379 321 398 q 414 347 384 364 q 466 308 443 330 q 504 258 489 286 q 519 192 519 230 m 244 705 q 230 709 238 705 q 213 717 221 713 q 197 726 204 722 q 186 734 190 731 l 327 1025 q 356 1021 335 1024 q 402 1014 378 1018 q 449 1005 427 1010 q 478 999 471 1001 l 498 962 l 244 705 "}," ":{"x_min":0,"x_max":0,"ha":339},"ʼ":{"x_min":43.6875,"x_max":292,"ha":338,"o":"m 292 875 q 280 805 292 839 q 247 742 268 772 q 199 687 227 713 q 139 641 171 662 l 96 675 q 119 704 108 690 q 139 734 130 719 q 152 767 147 749 q 158 808 158 785 q 130 871 158 846 q 53 897 102 897 l 43 947 q 60 960 47 953 q 90 975 72 968 q 127 990 107 983 q 165 1003 147 998 q 199 1012 184 1009 q 222 1014 214 1015 q 275 955 259 990 q 292 875 292 920 "},"@":{"x_min":56,"x_max":1137,"ha":1193,"o":"m 693 495 q 660 543 678 525 q 609 561 641 561 q 520 502 551 561 q 490 317 490 443 q 499 219 490 259 q 523 154 508 179 q 556 119 538 129 q 592 108 574 108 q 616 111 605 108 q 638 124 627 115 q 662 149 649 133 q 693 189 675 165 l 693 495 m 1137 388 q 1123 278 1137 330 q 1087 180 1110 225 q 1032 97 1063 134 q 963 34 1000 60 q 887 -5 927 8 q 808 -20 848 -20 q 770 -14 788 -20 q 739 3 753 -9 q 714 36 724 15 q 697 89 703 57 q 649 35 669 56 q 610 1 629 14 q 572 -15 591 -10 q 525 -20 552 -20 q 456 -1 491 -20 q 393 56 421 17 q 347 155 365 95 q 330 296 330 215 q 338 381 330 339 q 364 464 347 424 q 406 537 381 503 q 463 597 431 571 q 534 636 495 622 q 619 651 574 651 q 648 648 635 651 q 675 639 661 646 q 702 621 688 633 q 732 588 716 608 q 795 615 768 601 q 852 651 823 629 l 872 630 q 862 580 866 606 q 855 531 858 558 q 853 474 853 503 l 853 193 q 862 130 853 151 q 900 110 871 110 q 935 125 916 110 q 970 171 954 141 q 996 246 986 201 q 1007 347 1007 290 q 979 549 1007 463 q 900 693 951 636 q 779 779 850 751 q 623 808 708 808 q 443 771 521 808 q 312 673 365 735 q 232 529 259 611 q 206 355 206 447 q 240 130 206 227 q 335 -32 275 33 q 476 -130 395 -97 q 649 -163 558 -163 q 769 -151 713 -163 q 870 -121 825 -139 q 950 -83 916 -103 q 1005 -45 985 -62 l 1036 -104 q 974 -163 1012 -132 q 883 -219 935 -193 q 764 -262 831 -245 q 616 -280 698 -280 q 390 -239 493 -280 q 212 -121 287 -198 q 97 65 138 -45 q 56 315 56 175 q 76 474 56 397 q 136 619 97 551 q 228 743 174 686 q 347 839 282 799 q 489 902 413 880 q 649 925 565 925 q 847 892 757 925 q 1001 792 936 859 q 1101 624 1065 725 q 1137 388 1137 524 "},"¾":{"x_min":35.28125,"x_max":809.640625,"ha":848,"o":"m 205 2 q 186 -4 197 -1 q 163 -10 175 -7 q 138 -15 150 -13 q 118 -19 127 -17 l 101 0 l 693 816 q 711 821 700 818 q 734 827 722 824 q 758 833 746 830 q 777 837 769 836 l 793 818 l 205 2 m 809 145 q 791 124 801 135 q 771 109 780 114 l 752 109 l 752 45 q 761 36 752 40 q 803 25 771 31 l 803 0 l 584 0 l 584 25 q 624 32 608 28 q 648 37 639 35 q 659 43 656 40 q 663 48 663 45 l 663 109 l 483 109 l 467 121 l 650 380 q 670 386 658 383 l 693 393 q 716 400 705 396 q 735 406 727 403 l 752 392 l 752 156 l 799 156 l 809 145 m 355 557 q 342 505 355 529 q 307 463 329 481 q 252 434 284 444 q 182 424 220 424 q 148 427 167 424 q 110 437 130 430 q 71 454 91 444 q 35 479 52 464 l 51 510 q 114 479 85 488 q 170 471 142 471 q 203 475 187 471 q 230 489 218 479 q 248 513 241 498 q 255 549 255 528 q 247 586 255 571 q 226 611 239 602 q 200 624 214 620 q 174 628 186 628 l 165 628 q 159 628 162 628 q 152 627 156 627 q 142 625 148 626 l 136 656 q 188 673 168 663 q 217 695 207 683 q 230 717 227 706 q 234 738 234 728 q 222 778 234 761 q 182 796 211 796 q 165 792 173 796 q 151 781 156 788 q 143 765 145 774 q 145 744 142 755 q 105 730 130 737 q 59 723 80 723 l 46 742 q 58 772 46 756 q 90 802 69 788 q 140 825 111 816 q 204 835 169 835 q 263 827 239 835 q 303 806 287 819 q 326 777 319 793 q 333 744 333 761 q 327 719 333 732 q 311 695 321 706 q 285 674 300 683 q 253 660 271 664 q 294 649 276 658 q 326 626 313 640 q 347 594 340 612 q 355 557 355 576 m 663 318 l 542 156 l 663 156 l 663 318 "},"i":{"x_min":42,"x_max":378,"ha":409,"o":"m 42 0 l 42 49 q 108 70 87 59 q 129 90 129 81 l 129 439 q 129 495 129 474 q 121 528 129 516 q 95 545 113 540 q 42 554 77 551 l 42 602 q 150 622 99 610 q 246 651 201 634 l 289 651 l 289 90 q 309 70 289 82 q 378 49 329 59 l 378 0 l 42 0 m 315 855 q 306 813 315 832 q 282 780 297 794 q 247 759 267 766 q 203 752 227 752 q 167 756 184 752 q 138 770 151 760 q 119 793 126 779 q 112 827 112 807 q 120 869 112 850 q 144 901 129 888 q 179 922 159 915 q 223 930 199 930 q 257 925 241 930 q 287 912 274 921 q 307 888 299 902 q 315 855 315 874 "},"m":{"x_min":32,"x_max":1134,"ha":1149,"o":"m 804 0 l 804 49 q 842 61 827 55 q 865 72 857 67 q 877 81 874 77 q 880 90 880 86 l 880 408 q 875 475 880 449 q 863 512 871 500 q 841 529 854 525 q 810 534 828 534 q 742 512 781 534 q 660 449 703 491 l 660 90 q 663 81 660 86 q 675 72 666 77 q 701 62 684 67 q 744 49 718 56 l 744 0 l 423 0 l 423 49 q 461 61 446 55 q 485 72 476 67 q 496 81 493 77 q 500 90 500 86 l 500 408 q 496 475 500 449 q 485 512 493 500 q 465 529 478 525 q 434 534 453 534 q 366 513 405 534 q 279 449 328 493 l 279 90 q 298 69 279 80 q 362 49 318 58 l 362 0 l 32 0 l 32 49 q 97 70 75 60 q 119 90 119 79 l 119 466 q 117 509 119 494 q 107 533 115 525 q 81 546 99 542 q 32 554 63 550 l 32 602 q 94 610 66 606 q 146 621 122 615 q 194 635 171 627 q 241 651 217 642 l 269 622 l 276 538 q 345 593 313 571 q 404 628 376 615 q 457 645 432 640 q 507 651 483 651 q 563 642 538 651 q 605 620 588 634 q 633 588 622 606 q 648 547 644 569 l 650 538 q 719 593 687 571 q 779 627 751 614 q 832 645 807 640 q 882 651 858 651 q 943 641 914 651 q 993 611 971 632 q 1027 557 1014 591 q 1040 477 1040 524 l 1040 90 q 1060 72 1040 81 q 1134 49 1081 63 l 1134 0 l 804 0 "},"ĕ":{"x_min":43,"x_max":615,"ha":658,"o":"m 338 570 q 285 557 307 570 q 246 522 262 545 q 222 467 231 499 q 209 394 213 434 l 430 394 q 451 399 446 394 q 456 418 456 404 q 450 464 456 438 q 431 514 445 490 q 395 553 418 537 q 338 570 372 570 m 615 373 q 597 358 609 366 q 573 343 586 350 q 546 328 559 335 q 521 318 532 322 l 208 318 q 219 228 208 269 q 252 157 231 187 q 304 110 273 127 q 373 94 334 94 q 414 96 394 94 q 456 107 433 98 q 508 132 479 116 q 576 176 537 148 q 586 167 580 174 q 596 154 591 161 q 605 141 601 147 q 611 132 609 135 q 528 55 565 85 q 458 8 492 25 q 391 -13 425 -7 q 318 -20 358 -20 q 212 3 262 -20 q 124 68 161 26 q 64 169 86 110 q 43 299 43 228 q 77 464 43 392 q 179 587 111 536 q 218 612 197 600 q 263 632 240 623 q 312 645 287 640 q 363 651 337 651 q 475 628 428 651 q 554 566 523 605 q 600 478 585 528 q 615 373 615 428 m 591 927 q 545 833 571 872 q 488 769 518 794 q 424 732 457 744 q 357 721 391 721 q 286 732 320 721 q 221 769 252 744 q 165 833 191 794 q 119 927 139 872 q 130 940 123 933 q 143 953 136 947 q 157 965 150 960 q 169 973 164 970 q 208 919 186 941 q 256 881 231 896 q 306 858 281 865 q 354 851 332 851 q 403 858 377 851 q 454 880 429 865 q 501 918 479 895 q 541 973 524 941 q 554 965 547 970 q 568 953 561 960 q 581 940 575 947 q 591 927 587 933 "},"ż":{"x_min":40.140625,"x_max":593.96875,"ha":637,"o":"m 582 224 q 582 189 582 209 q 582 147 582 169 q 582 102 582 125 q 582 59 582 79 q 582 23 582 39 q 577 0 582 8 l 57 0 l 40 30 l 391 549 l 218 549 q 163 515 189 549 q 121 406 138 481 l 82 420 l 82 641 q 117 634 105 637 q 141 631 129 631 q 170 631 154 631 l 579 631 l 593 601 l 241 81 l 469 81 q 490 91 481 81 q 506 122 499 102 q 521 170 514 142 q 538 235 529 199 l 582 224 m 428 859 q 419 813 428 834 q 397 775 411 791 q 364 749 383 758 q 324 740 345 740 q 265 761 285 740 q 245 822 245 782 q 253 869 245 847 q 276 907 262 891 q 309 932 290 923 q 349 942 328 942 q 407 921 386 942 q 428 859 428 901 "},"ő":{"x_min":43,"x_max":671,"ha":714,"o":"m 503 298 q 492 400 503 352 q 461 485 481 449 q 413 544 441 522 q 351 566 385 566 q 282 547 310 566 q 239 496 255 528 q 217 418 223 463 q 211 320 211 373 q 223 220 211 267 q 256 139 235 173 q 305 84 277 104 q 363 64 332 64 q 429 80 403 64 q 472 125 456 95 q 496 198 489 155 q 503 298 503 242 m 671 329 q 659 240 671 283 q 625 158 647 196 q 573 86 603 119 q 507 30 544 53 q 430 -6 471 6 q 344 -20 388 -20 q 220 4 276 -20 q 125 71 164 28 q 64 173 86 114 q 43 301 43 232 q 67 431 43 368 q 135 543 91 494 q 238 621 178 592 q 370 651 298 651 q 493 626 438 651 q 588 559 549 602 q 649 457 628 516 q 671 329 671 398 m 263 705 q 235 716 252 707 q 205 733 218 725 l 308 1019 q 332 1016 316 1018 q 366 1012 348 1015 q 399 1008 383 1010 q 421 1002 415 1005 l 441 964 l 263 705 m 476 705 q 448 716 465 707 q 419 733 431 725 l 520 1019 q 545 1016 528 1018 q 578 1012 561 1015 q 612 1008 596 1010 q 635 1002 627 1005 l 654 964 l 476 705 "},"ž":{"x_min":40.140625,"x_max":593.96875,"ha":637,"o":"m 582 224 q 582 189 582 209 q 582 147 582 169 q 582 102 582 125 q 582 59 582 79 q 582 23 582 39 q 577 0 582 8 l 57 0 l 40 30 l 391 549 l 218 549 q 164 515 189 549 q 121 406 138 481 l 82 420 l 82 641 q 117 634 105 637 q 142 631 129 631 q 170 631 155 631 l 579 631 l 593 601 l 241 81 l 469 81 q 490 91 481 81 q 506 122 499 102 q 521 170 514 142 q 538 235 529 199 l 582 224 m 379 722 l 288 722 l 109 980 q 126 1007 117 993 q 147 1026 136 1021 l 334 878 l 519 1026 q 542 1007 530 1021 q 564 980 554 993 l 379 722 "},"á":{"x_min":43,"x_max":675.671875,"ha":680,"o":"m 273 98 q 300 101 286 98 q 331 112 314 104 q 368 133 348 119 q 414 169 388 148 l 414 319 q 346 306 374 312 q 301 293 319 300 q 270 278 282 286 q 250 262 259 271 q 222 224 233 244 q 212 175 212 204 q 218 137 212 152 q 234 113 224 122 q 254 101 243 104 q 273 98 265 98 m 675 75 q 616 38 647 56 q 559 7 586 21 q 509 -12 532 -5 q 475 -20 487 -20 q 433 8 450 -20 q 416 87 416 36 q 354 36 384 56 q 296 3 324 15 q 241 -14 267 -9 q 194 -20 215 -20 q 139 -10 166 -20 q 91 18 112 0 q 56 67 69 38 q 43 136 43 97 q 59 214 43 182 q 100 272 75 247 q 137 303 116 288 q 192 333 158 319 q 280 360 227 347 q 414 386 333 373 l 414 466 q 410 505 414 487 q 396 535 406 523 q 369 555 386 548 q 327 563 352 563 q 295 556 311 563 q 267 539 279 550 q 248 512 255 528 q 243 476 241 496 q 233 466 244 472 q 204 453 221 460 q 166 440 187 447 q 126 429 145 434 q 91 423 106 425 q 70 422 76 420 l 56 458 q 107 534 72 499 q 187 595 141 569 q 287 636 233 621 q 396 651 341 651 q 476 638 442 651 q 531 604 509 626 q 563 552 552 582 q 574 488 574 523 l 574 161 q 581 121 574 133 q 600 109 588 109 q 610 109 605 109 q 622 112 615 110 q 638 118 629 114 q 661 127 647 121 l 675 75 m 302 705 q 288 709 296 705 q 271 717 279 713 q 255 726 262 722 q 244 734 248 731 l 384 1025 q 414 1021 392 1024 q 460 1014 436 1018 q 507 1005 485 1010 q 536 999 529 1001 l 556 962 l 302 705 "},"Ŏ":{"x_min":37,"x_max":796.484375,"ha":847,"o":"m 629 427 q 612 561 629 496 q 566 677 596 627 q 494 757 536 727 q 401 787 452 787 q 316 762 353 787 q 255 693 280 738 q 217 583 230 648 q 205 435 205 517 q 222 292 205 359 q 270 177 240 226 q 340 100 300 128 q 426 72 381 72 q 507 93 470 72 q 571 159 544 115 q 613 270 598 204 q 629 427 629 337 m 796 439 q 781 319 796 377 q 740 210 767 262 q 678 117 714 159 q 597 44 641 74 q 502 -3 552 13 q 397 -20 451 -20 q 246 15 314 -20 q 133 112 179 51 q 61 251 86 172 q 37 415 37 329 q 66 590 37 507 q 148 737 96 674 q 275 837 201 800 q 436 875 348 875 q 591 838 524 875 q 704 740 658 801 q 773 600 749 679 q 796 439 796 521 m 660 1144 q 613 1050 640 1089 q 556 986 587 1011 q 492 949 526 961 q 425 938 459 938 q 354 949 389 938 q 290 986 320 961 q 234 1050 260 1011 q 188 1144 208 1089 q 198 1157 192 1150 q 212 1170 205 1164 q 225 1182 218 1177 q 238 1190 232 1187 q 277 1136 254 1158 q 324 1098 300 1113 q 375 1075 349 1082 q 422 1068 401 1068 q 472 1075 446 1068 q 523 1097 498 1082 q 570 1135 547 1112 q 609 1190 593 1158 q 622 1182 615 1187 q 636 1170 629 1177 q 649 1157 643 1164 q 660 1144 656 1150 "},"×":{"x_min":55,"x_max":518,"ha":574,"o":"m 55 213 l 219 381 l 56 549 l 56 572 q 73 579 62 575 q 95 589 83 584 q 118 597 107 594 q 136 603 129 601 l 286 450 l 436 603 q 454 597 443 601 q 478 589 466 594 q 500 579 490 584 q 518 572 511 575 l 518 549 l 353 381 l 518 213 l 518 190 q 500 183 511 187 q 476 173 488 178 q 454 164 464 168 q 437 159 443 160 l 286 313 l 136 159 q 119 164 130 160 q 96 173 108 168 q 73 183 84 178 q 55 190 61 187 l 55 213 "},"İ":{"x_min":42,"x_max":391,"ha":446,"o":"m 42 0 l 42 49 q 109 70 86 58 q 133 90 133 81 l 133 762 q 111 782 133 770 q 42 804 89 795 l 42 854 l 391 854 l 391 804 q 322 783 345 795 q 299 762 299 771 l 299 90 q 321 70 299 82 q 391 49 343 58 l 391 0 l 42 0 m 307 1049 q 298 1003 307 1024 q 276 965 290 981 q 243 939 262 948 q 203 930 224 930 q 144 951 164 930 q 124 1012 124 972 q 132 1059 124 1037 q 155 1097 141 1081 q 188 1122 169 1113 q 228 1132 207 1132 q 286 1111 265 1132 q 307 1049 307 1091 "},"Ě":{"x_min":29,"x_max":683.859375,"ha":715,"o":"m 683 205 q 677 144 681 176 q 670 83 674 112 q 662 32 666 54 q 656 0 659 10 l 29 0 l 29 49 q 97 69 74 58 q 120 90 120 81 l 120 762 q 98 783 120 770 q 29 804 76 795 l 29 854 l 614 854 l 640 832 q 637 788 640 814 q 630 734 634 761 q 622 681 626 706 q 613 644 617 657 l 562 644 q 548 740 562 707 q 510 773 535 773 l 286 773 l 286 498 l 550 498 l 572 474 q 559 452 567 464 q 543 427 551 439 q 527 404 535 415 q 511 388 518 394 q 489 405 501 398 q 463 417 478 412 q 428 423 448 421 q 379 426 407 426 l 286 426 l 286 124 q 290 106 286 114 q 309 92 295 98 q 351 84 324 87 q 421 81 377 81 l 487 81 q 539 88 517 81 q 577 112 561 95 q 607 156 594 129 q 635 223 621 183 l 683 205 m 402 939 l 311 939 l 130 1162 q 149 1186 139 1175 q 170 1204 159 1198 l 358 1076 l 542 1204 q 563 1186 553 1198 q 581 1162 573 1175 l 402 939 "},"K":{"x_min":29,"x_max":840.53125,"ha":843,"o":"m 29 0 l 29 49 q 97 70 74 58 q 120 90 120 81 l 120 762 q 98 782 120 770 q 29 804 76 794 l 29 854 l 378 854 l 378 804 q 309 783 332 794 q 286 762 286 771 l 286 446 l 533 744 q 555 773 548 762 q 557 790 561 784 q 539 799 554 796 q 499 803 524 803 l 499 854 l 798 854 l 798 804 q 761 798 776 801 q 735 791 746 796 q 714 780 724 787 q 695 762 705 773 l 409 458 l 730 111 q 752 93 740 99 q 776 84 763 86 q 803 82 789 82 q 835 84 818 82 l 840 35 q 797 21 821 29 q 749 6 773 13 q 703 -5 725 0 q 665 -10 681 -10 q 631 -3 646 -10 q 603 19 616 2 l 286 423 l 286 90 q 307 70 286 82 q 378 49 329 58 l 378 0 l 29 0 "}}}
